Fita_Poluustav.ufo
<glyph name="question" format="1">
  <advance width="807"/>
  <unicode hex="0022"/>
  <outline>
    <contour>
      <point x="154" y="2142" type="line"/>
      <point x="154" y="1591" type="line"/>
      <point x="362" y="1591" type="line"/>
      <point x="231" y="2142" type="line"/>
    </contour>
    <contour>
      <point x="496" y="2138" type="line"/>
      <point x="496" y="1587" type="line"/>
      <point x="704" y="1587" type="line"/>
      <point x="571" y="2138" type="line"/>
    </contour>
  </outline>
</glyph>
<glyph name="at" format="1">
  <advance width="1751"/>
  <unicode hex="0023"/>
  <outline>
    <contour>
      <point x="618" y="348" type="line"/>
      <point x="719" y="178"/>
      <point x="868" y="98" type="qcurve"/>
      <point x="868" y="98" type="line"/>
      <point x="1020" y="195"/>
      <point x="1124" y="350" type="qcurve"/>
      <point x="1016" y="502"/>
      <point x="879" y="604" type="qcurve"/>
      <point x="879" y="604" type="line"/>
      <point x="737" y="510"/>
      <point x="618" y="348" type="qcurve"/>
    </contour>
    <contour>
      <point x="1003" y="739" type="line"/>
      <point x="1104" y="569"/>
      <point x="1253" y="489" type="qcurve"/>
      <point x="1253" y="489" type="line"/>
      <point x="1407" y="586"/>
      <point x="1509" y="741" type="qcurve"/>
      <point x="1401" y="895"/>
      <point x="1264" y="995" type="qcurve"/>
      <point x="1264" y="995" type="line"/>
      <point x="1122" y="901"/>
      <point x="1003" y="739" type="qcurve"/>
    </contour>
    <contour>
      <point x="633" y="1112" type="line"/>
      <point x="731" y="942"/>
      <point x="881" y="862" type="qcurve"/>
      <point x="881" y="862" type="line"/>
      <point x="950" y="903"/>
      <point x="1024" y="973" type="qcurve"/>
      <point x="1096" y="1044"/>
      <point x="1139" y="1114" type="qcurve"/>
      <point x="1030" y="1266"/>
      <point x="891" y="1368" type="qcurve"/>
      <point x="891" y="1368" type="line"/>
      <point x="750" y="1272"/>
      <point x="633" y="1112" type="qcurve"/>
    </contour>
    <contour>
      <point x="242" y="741" type="line"/>
      <point x="342" y="571"/>
      <point x="491" y="491" type="qcurve"/>
      <point x="491" y="491" type="line"/>
      <point x="643" y="588"/>
      <point x="747" y="743" type="qcurve"/>
      <point x="639" y="897"/>
      <point x="500" y="999" type="qcurve"/>
      <point x="500" y="999" type="line"/>
      <point x="362" y="903"/>
      <point x="242" y="741" type="qcurve"/>
    </contour>
  </outline>
</glyph>
<glyph name="A" format="1">
  <advance width="2144"/>
  <unicode hex="0024"/>
  <outline>
    <contour>
      <point x="977" y="1710" type="line"/>
      <point x="651" y="1751" type="line"/>
      <point x="651" y="1751" type="line"/>
      <point x="651" y="1700" type="line"/>
      <point x="721" y="1669"/>
      <point x="760" y="1636" type="qcurve"/>
      <point x="799" y="1601"/>
      <point x="813" y="1565" type="qcurve"/>
      <point x="827" y="1532"/>
      <point x="833" y="1497" type="qcurve" smooth="yes"/>
      <point x="838" y="1462"/>
      <point x="840" y="1431" type="qcurve"/>
      <point x="694" y="1413"/>
      <point x="573" y="1382" type="qcurve" smooth="yes"/>
      <point x="514" y="1366"/>
      <point x="473" y="1347" type="qcurve" smooth="yes"/>
      <point x="430" y="1327"/>
      <point x="410" y="1302" type="qcurve" smooth="yes"/>
      <point x="344" y="1218"/>
      <point x="295" y="1065" type="qcurve"/>
      <point x="242" y="913"/>
      <point x="242" y="784" type="qcurve"/>
      <point x="244" y="659"/>
      <point x="322" y="604" type="qcurve"/>
      <point x="395" y="547"/>
      <point x="504" y="547" type="qcurve" smooth="yes"/>
      <point x="569" y="547"/>
      <point x="661" y="569" type="qcurve"/>
      <point x="752" y="592"/>
      <point x="901" y="649" type="qcurve"/>
      <point x="901" y="649" type="line"/>
      <point x="938" y="258" type="line"/>
      <point x="868" y="266" type="line" smooth="yes"/>
      <point x="836" y="270"/>
      <point x="813" y="270" type="qcurve" smooth="yes"/>
      <point x="766" y="272"/>
      <point x="690" y="240" type="qcurve"/>
      <point x="260" y="41" type="line"/>
      <point x="285" y="-27" type="line"/>
      <point x="322" y="-16"/>
      <point x="375" y="4" type="qcurve" smooth="yes"/>
      <point x="426" y="23"/>
      <point x="481" y="45" type="qcurve"/>
      <point x="596" y="96"/>
      <point x="702" y="98" type="qcurve"/>
      <point x="960" y="41" type="line"/>
      <point x="975" y="-80"/>
      <point x="987" y="-190" type="qcurve"/>
      <point x="1005" y="-381" type="line"/>
      <point x="1100" y="-426" type="line"/>
      <point x="1100" y="-426" type="line"/>
      <point x="1169" y="-258" type="line"/>
      <point x="1102" y="-168" type="line"/>
      <point x="1100" y="-125"/>
      <point x="1096" y="-72" type="qcurve" smooth="yes"/>
      <point x="1094" y="-47"/>
      <point x="1089" y="-23" type="qcurve"/>
      <point x="1087" y="0"/>
      <point x="1083" y="14" type="qcurve"/>
      <point x="1280" y="-25"/>
      <point x="1393" y="-27" type="qcurve"/>
      <point x="1517" y="-27"/>
      <point x="1630" y="59" type="qcurve" smooth="yes"/>
      <point x="1665" y="86"/>
      <point x="1712" y="123" type="qcurve"/>
      <point x="1757" y="160"/>
      <point x="1800" y="207" type="qcurve"/>
      <point x="1845" y="254"/>
      <point x="1874" y="309" type="qcurve" smooth="yes"/>
      <point x="1902" y="362"/>
      <point x="1902" y="420" type="qcurve" smooth="yes"/>
      <point x="1902" y="620"/>
      <point x="1802" y="762" type="qcurve"/>
      <point x="1698" y="901"/>
      <point x="1491" y="905" type="qcurve"/>
      <point x="1417" y="905"/>
      <point x="1331" y="883" type="qcurve" smooth="yes"/>
      <point x="1001" y="795" type="line"/>
      <point x="1001" y="795" type="line"/>
      <point x="977" y="1143"/>
      <point x="977" y="1374" type="qcurve"/>
      <point x="1040" y="1372"/>
      <point x="1069" y="1339" type="qcurve"/>
      <point x="1098" y="1304"/>
      <point x="1106" y="1255" type="qcurve"/>
      <point x="1118" y="1143"/>
      <point x="1135" y="1135" type="qcurve"/>
      <point x="1167" y="1151" type="line"/>
      <point x="1382" y="1354" type="line"/>
      <point x="1382" y="1378"/>
      <point x="1360" y="1397" type="qcurve" smooth="yes"/>
      <point x="1339" y="1415"/>
      <point x="1298" y="1427" type="qcurve"/>
      <point x="1216" y="1448"/>
      <point x="1102" y="1448" type="qcurve"/>
      <point x="1022" y="1444"/>
      <point x="977" y="1444" type="qcurve"/>
    </contour>
    <contour>
      <point x="1010" y="694" type="line"/>
      <point x="1057" y="715"/>
      <point x="1112" y="739" type="qcurve" smooth="yes"/>
      <point x="1167" y="762"/>
      <point x="1221" y="764" type="qcurve"/>
      <point x="1313" y="762"/>
      <point x="1376" y="694" type="qcurve" smooth="yes"/>
      <point x="1438" y="627"/>
      <point x="1474" y="534" type="qcurve"/>
      <point x="1513" y="442"/>
      <point x="1532" y="362" type="qcurve"/>
      <point x="1546" y="283"/>
      <point x="1546" y="250" type="qcurve" smooth="yes"/>
      <point x="1546" y="192"/>
      <point x="1507" y="192" type="qcurve" smooth="yes"/>
      <point x="1483" y="192"/>
      <point x="1333" y="213" type="qcurve"/>
      <point x="1184" y="229"/>
      <point x="1057" y="244" type="qcurve"/>
      <point x="1028" y="473"/>
      <point x="1010" y="694" type="qcurve"/>
    </contour>
    <contour>
      <point x="850" y="1345" type="line"/>
      <point x="870" y="1032"/>
      <point x="891" y="766" type="qcurve"/>
      <point x="821" y="747" type="line" smooth="yes"/>
      <point x="801" y="741"/>
      <point x="780" y="741" type="qcurve" smooth="yes"/>
      <point x="717" y="741"/>
      <point x="672" y="790" type="qcurve"/>
      <point x="620" y="836"/>
      <point x="620" y="913" type="qcurve" smooth="yes"/>
      <point x="620" y="1046"/>
      <point x="680" y="1167" type="qcurve"/>
      <point x="735" y="1286"/>
      <point x="850" y="1345" type="qcurve"/>
    </contour>
  </outline>
</glyph>
<glyph name="H" format="1">
  <advance width="1190"/>
  <unicode hex="002B"/>
  <outline>
    <contour>
      <point x="524" y="752" type="line"/>
      <point x="322" y="754"/>
      <point x="156" y="756" type="qcurve"/>
      <point x="129" y="754"/>
      <point x="129" y="725" type="qcurve" smooth="yes"/>
      <point x="129" y="707"/>
      <point x="143" y="686" type="qcurve"/>
      <point x="156" y="664"/>
      <point x="178" y="664" type="qcurve" smooth="yes"/>
      <point x="346" y="664"/>
      <point x="506" y="668" type="qcurve"/>
      <point x="491" y="549"/>
      <point x="494" y="469" type="qcurve"/>
      <point x="494" y="276" type="line"/>
      <point x="543" y="236"/>
      <point x="651" y="233" type="qcurve" smooth="yes"/>
      <point x="692" y="231"/>
      <point x="713" y="246" type="qcurve"/>
      <point x="731" y="256"/>
      <point x="735" y="301" type="qcurve"/>
      <point x="754" y="657" type="line"/>
      <point x="1075" y="643" type="line"/>
      <point x="1089" y="657"/>
      <point x="1116" y="686" type="qcurve"/>
      <point x="1141" y="715"/>
      <point x="1143" y="739" type="qcurve"/>
      <point x="1141" y="750"/>
      <point x="1128" y="750" type="qcurve"/>
      <point x="1130" y="750"/>
      <point x="1061" y="745" type="qcurve" smooth="yes"/>
      <point x="989" y="739"/>
      <point x="760" y="739" type="qcurve"/>
      <point x="768" y="788"/>
      <point x="778" y="911" type="qcurve" smooth="yes"/>
      <point x="788" y="1032"/>
      <point x="788" y="1075" type="qcurve"/>
      <point x="786" y="1130"/>
      <point x="733" y="1147" type="qcurve"/>
      <point x="678" y="1159"/>
      <point x="590" y="1159" type="qcurve"/>
      <point x="537" y="1157"/>
      <point x="537" y="1137" type="qcurve" smooth="yes"/>
      <point x="537" y="1026"/>
      <point x="524" y="752" type="qcurve"/>
    </contour>
  </outline>
</glyph>
<glyph name="K" format="1">
  <advance width="1161"/>
  <unicode hex="002E"/>
  <outline>
    <contour>
      <point x="586" y="342" type="line"/>
      <point x="399" y="342"/>
      <point x="397" y="156" type="qcurve" smooth="yes"/>
      <point x="395" y="-27"/>
      <point x="577" y="-25" type="qcurve"/>
      <point x="762" y="-20"/>
      <point x="764" y="158" type="qcurve"/>
      <point x="760" y="340"/>
      <point x="586" y="342" type="qcurve"/>
    </contour>
  </outline>
</glyph>
<glyph name="N" format="1">
  <advance width="850"/>
  <unicode hex="0031"/>
  <outline>
    <contour>
      <point x="33" y="827" type="line"/>
      <point x="33" y="778"/>
      <point x="45" y="739" type="qcurve"/>
      <point x="55" y="698"/>
      <point x="80" y="698" type="qcurve" smooth="yes"/>
      <point x="111" y="698"/>
      <point x="213" y="725" type="qcurve" smooth="yes"/>
      <point x="260" y="737"/>
      <point x="311" y="752" type="qcurve" smooth="yes"/>
      <point x="358" y="766"/>
      <point x="399" y="784" type="qcurve"/>
      <point x="399" y="784" type="line"/>
      <point x="385" y="362"/>
      <point x="379" y="55" type="qcurve" smooth="yes"/>
      <point x="379" y="14"/>
      <point x="399" y="-4" type="qcurve"/>
      <point x="416" y="-25"/>
      <point x="436" y="-25" type="qcurve" smooth="yes"/>
      <point x="502" y="-23"/>
      <point x="682" y="0" type="qcurve" smooth="yes"/>
      <point x="709" y="4"/>
      <point x="717" y="27" type="qcurve"/>
      <point x="725" y="45"/>
      <point x="725" y="76" type="qcurve"/>
      <point x="721" y="156"/>
      <point x="719" y="369" type="qcurve"/>
      <point x="719" y="549"/>
      <point x="733" y="717" type="qcurve"/>
      <point x="743" y="883"/>
      <point x="745" y="940" type="qcurve"/>
      <point x="745" y="981"/>
      <point x="739" y="1001" type="qcurve"/>
      <point x="731" y="1022"/>
      <point x="702" y="1022" type="qcurve" smooth="yes"/>
      <point x="672" y="1022"/>
      <point x="657" y="1020" type="qcurve"/>
      <point x="641" y="1016"/>
      <point x="629" y="1010" type="qcurve" smooth="yes"/>
      <point x="555" y="973"/>
      <point x="418" y="922" type="qcurve"/>
      <point x="279" y="872"/>
      <point x="33" y="827" type="qcurve"/>
    </contour>
  </outline>
</glyph>
<glyph name="Q" format="1">
  <advance width="1657"/>
  <unicode hex="0034"/>
  <outline>
    <contour>
      <point x="846" y="639" type="line"/>
      <point x="399" y="639" type="line"/>
      <point x="385" y="655" type="line"/>
      <point x="547" y="821"/>
      <point x="786" y="1051" type="qcurve"/>
      <point x="1024" y="1282"/>
      <point x="1243" y="1577" type="qcurve"/>
      <point x="1212" y="1614" type="line"/>
      <point x="1212" y="1614" type="line"/>
      <point x="864" y="1522" type="line"/>
      <point x="745" y="1274"/>
      <point x="549" y="1057" type="qcurve"/>
      <point x="354" y="838"/>
      <point x="78" y="557" type="qcurve"/>
      <point x="80" y="489" type="line"/>
      <point x="170" y="498"/>
      <point x="270" y="498" type="qcurve"/>
      <point x="469" y="496"/>
      <point x="846" y="475" type="qcurve"/>
      <point x="846" y="373"/>
      <point x="831" y="225" type="qcurve" smooth="yes"/>
      <point x="825" y="156"/>
      <point x="821" y="109" type="qcurve"/>
      <point x="815" y="61"/>
      <point x="815" y="53" type="qcurve" smooth="yes"/>
      <point x="815" y="8"/>
      <point x="844" y="-8" type="qcurve"/>
      <point x="868" y="-27"/>
      <point x="889" y="-27" type="qcurve" smooth="yes"/>
      <point x="983" y="-25"/>
      <point x="1157" y="-6" type="qcurve"/>
      <point x="1182" y="6"/>
      <point x="1190" y="25" type="qcurve" smooth="yes"/>
      <point x="1196" y="39"/>
      <point x="1196" y="70" type="qcurve" smooth="yes"/>
      <point x="1196" y="463" type="line"/>
      <point x="1511" y="444" type="line"/>
      <point x="1599" y="534"/>
      <point x="1624" y="678" type="qcurve"/>
      <point x="1614" y="694" type="line"/>
      <point x="1444" y="666"/>
      <point x="1186" y="643" type="qcurve"/>
      <point x="1196" y="842"/>
      <point x="1243" y="1040" type="qcurve" smooth="yes"/>
      <point x="1247" y="1059"/>
      <point x="1247" y="1075" type="qcurve" smooth="yes"/>
      <point x="1247" y="1100"/>
      <point x="1241" y="1116" type="qcurve"/>
      <point x="1231" y="1132"/>
      <point x="1212" y="1132" type="qcurve"/>
      <point x="1225" y="1130"/>
      <point x="846" y="1044" type="qcurve"/>
    </contour>
  </outline>
</glyph>
<glyph name="R" format="1">
  <advance width="1589"/>
  <unicode hex="0035"/>
  <outline>
    <contour>
      <point x="1374" y="1063" type="line"/>
      <point x="1374" y="1063" type="line"/>
      <point x="1347" y="999"/>
      <point x="1313" y="960" type="qcurve" smooth="yes"/>
      <point x="1276" y="917"/>
      <point x="1237" y="917" type="qcurve" smooth="yes"/>
      <point x="1190" y="917"/>
      <point x="1124" y="932" type="qcurve"/>
      <point x="1057" y="944"/>
      <point x="971" y="960" type="qcurve"/>
      <point x="799" y="999"/>
      <point x="563" y="1001" type="qcurve"/>
      <point x="319" y="1001" type="line"/>
      <point x="293" y="969" type="line"/>
      <point x="334" y="866"/>
      <point x="332" y="735" type="qcurve"/>
      <point x="332" y="637"/>
      <point x="324" y="537" type="qcurve"/>
      <point x="311" y="434"/>
      <point x="311" y="338" type="qcurve" smooth="yes"/>
      <point x="311" y="276"/>
      <point x="319" y="221" type="qcurve"/>
      <point x="379" y="197" type="line"/>
      <point x="414" y="217"/>
      <point x="471" y="236" type="qcurve" smooth="yes"/>
      <point x="526" y="254"/>
      <point x="586" y="268" type="qcurve" smooth="yes"/>
      <point x="715" y="297"/>
      <point x="756" y="299" type="qcurve"/>
      <point x="852" y="299"/>
      <point x="944" y="168" type="qcurve" smooth="yes"/>
      <point x="1038" y="35"/>
      <point x="1042" y="-217" type="qcurve"/>
      <point x="1040" y="-246"/>
      <point x="1030" y="-254" type="qcurve"/>
      <point x="1018" y="-262"/>
      <point x="1003" y="-262" type="qcurve" smooth="yes"/>
      <point x="960" y="-260"/>
      <point x="895" y="-231" type="qcurve"/>
      <point x="827" y="-203"/>
      <point x="745" y="-168" type="qcurve"/>
      <point x="668" y="-129"/>
      <point x="586" y="-100" type="qcurve"/>
      <point x="506" y="-74"/>
      <point x="434" y="-74" type="qcurve"/>
      <point x="367" y="-76"/>
      <point x="256" y="-166" type="qcurve"/>
      <point x="143" y="-256"/>
      <point x="49" y="-342" type="qcurve"/>
      <point x="51" y="-342" type="line"/>
      <point x="96" y="-412" type="line"/>
      <point x="96" y="-412" type="line"/>
      <point x="217" y="-289"/>
      <point x="358" y="-287" type="qcurve" smooth="yes"/>
      <point x="403" y="-287"/>
      <point x="465" y="-313" type="qcurve"/>
      <point x="524" y="-342"/>
      <point x="592" y="-377" type="qcurve"/>
      <point x="664" y="-412"/>
      <point x="737" y="-438" type="qcurve"/>
      <point x="811" y="-467"/>
      <point x="885" y="-469" type="qcurve"/>
      <point x="977" y="-467"/>
      <point x="1053" y="-426" type="qcurve" smooth="yes"/>
      <point x="1126" y="-387"/>
      <point x="1192" y="-328" type="qcurve"/>
      <point x="1259" y="-270"/>
      <point x="1329" y="-186" type="qcurve"/>
      <point x="1399" y="-104"/>
      <point x="1401" y="-10" type="qcurve"/>
      <point x="1401" y="106"/>
      <point x="1341" y="238" type="qcurve"/>
      <point x="1280" y="369"/>
      <point x="1151" y="455" type="qcurve"/>
      <point x="1085" y="491"/>
      <point x="956" y="491" type="qcurve"/>
      <point x="725" y="487"/>
      <point x="477" y="428" type="qcurve"/>
      <point x="477" y="428" type="line"/>
      <point x="508" y="790" type="line"/>
      <point x="569" y="790"/>
      <point x="625" y="770" type="qcurve"/>
      <point x="680" y="752"/>
      <point x="737" y="725" type="qcurve"/>
      <point x="795" y="700"/>
      <point x="862" y="680" type="qcurve"/>
      <point x="926" y="657"/>
      <point x="999" y="657" type="qcurve"/>
      <point x="1118" y="659"/>
      <point x="1249" y="756" type="qcurve"/>
      <point x="1378" y="848"/>
      <point x="1450" y="997" type="qcurve"/>
    </contour>
  </outline>
</glyph>
<glyph name="S" format="1">
  <advance width="1413"/>
  <unicode hex="0036"/>
  <outline>
    <contour>
      <point x="1272" y="1556" type="line"/>
      <point x="1272" y="1556" type="line"/>
      <point x="903" y="1323" type="line"/>
      <point x="375" y="981"/>
      <point x="227" y="797" type="qcurve"/>
      <point x="147" y="702"/>
      <point x="123" y="635" type="qcurve"/>
      <point x="96" y="565"/>
      <point x="98" y="510" type="qcurve"/>
      <point x="92" y="2"/>
      <point x="629" y="0" type="qcurve" smooth="yes"/>
      <point x="899" y="-2"/>
      <point x="1112" y="115" type="qcurve"/>
      <point x="1329" y="236"/>
      <point x="1335" y="543" type="qcurve"/>
      <point x="1331" y="711"/>
      <point x="1212" y="852" type="qcurve"/>
      <point x="1157" y="919"/>
      <point x="1089" y="960" type="qcurve" smooth="yes"/>
      <point x="1022" y="1001"/>
      <point x="952" y="1001" type="qcurve"/>
      <point x="883" y="999"/>
      <point x="805" y="928" type="qcurve"/>
      <point x="727" y="860"/>
      <point x="657" y="778" type="qcurve"/>
      <point x="686" y="727" type="line"/>
      <point x="1046" y="694"/>
      <point x="1040" y="385" type="qcurve" smooth="yes"/>
      <point x="1040" y="334"/>
      <point x="1028" y="287" type="qcurve"/>
      <point x="1014" y="238"/>
      <point x="977" y="197" type="qcurve"/>
      <point x="940" y="160"/>
      <point x="876" y="137" type="qcurve"/>
      <point x="813" y="111"/>
      <point x="715" y="111" type="qcurve"/>
      <point x="610" y="113"/>
      <point x="534" y="209" type="qcurve"/>
      <point x="457" y="301"/>
      <point x="455" y="453" type="qcurve"/>
      <point x="459" y="813"/>
      <point x="707" y="1034" type="qcurve"/>
      <point x="950" y="1255"/>
      <point x="1309" y="1446" type="qcurve"/>
    </contour>
  </outline>
</glyph>
<glyph name="U" format="1">
  <advance width="1583"/>
  <unicode hex="0038"/>
  <outline>
    <contour>
      <point x="469" y="778" type="line"/>
      <point x="287" y="702"/>
      <point x="213" y="620" type="qcurve"/>
      <point x="137" y="539"/>
      <point x="139" y="440" type="qcurve"/>
      <point x="139" y="344"/>
      <point x="209" y="254" type="qcurve"/>
      <point x="272" y="164"/>
      <point x="375" y="92" type="qcurve" smooth="yes"/>
      <point x="594" y="-61"/>
      <point x="829" y="-66" type="qcurve"/>
      <point x="962" y="-63"/>
      <point x="1079" y="2" type="qcurve" smooth="yes"/>
      <point x="1194" y="66"/>
      <point x="1280" y="154" type="qcurve"/>
      <point x="1368" y="242"/>
      <point x="1417" y="322" type="qcurve"/>
      <point x="1464" y="401"/>
      <point x="1464" y="434" type="qcurve" smooth="yes"/>
      <point x="1464" y="577"/>
      <point x="1376" y="664" type="qcurve"/>
      <point x="1288" y="745"/>
      <point x="1104" y="809" type="qcurve"/>
      <point x="1249" y="891"/>
      <point x="1309" y="965" type="qcurve"/>
      <point x="1366" y="1040"/>
      <point x="1366" y="1137" type="qcurve" smooth="yes"/>
      <point x="1366" y="1221"/>
      <point x="1315" y="1282" type="qcurve"/>
      <point x="1261" y="1343"/>
      <point x="1175" y="1386" type="qcurve"/>
      <point x="997" y="1470"/>
      <point x="801" y="1470" type="qcurve"/>
      <point x="575" y="1466"/>
      <point x="395" y="1343" type="qcurve"/>
      <point x="311" y="1284"/>
      <point x="260" y="1212" type="qcurve"/>
      <point x="205" y="1141"/>
      <point x="205" y="1065" type="qcurve"/>
      <point x="207" y="985"/>
      <point x="285" y="909" type="qcurve"/>
      <point x="358" y="831"/>
      <point x="469" y="778" type="qcurve"/>
    </contour>
    <contour>
      <point x="940" y="874" type="line"/>
      <point x="711" y="952"/>
      <point x="596" y="1018" type="qcurve" smooth="yes"/>
      <point x="483" y="1083"/>
      <point x="483" y="1196" type="qcurve" smooth="yes"/>
      <point x="483" y="1253"/>
      <point x="541" y="1302" type="qcurve"/>
      <point x="594" y="1350"/>
      <point x="670" y="1352" type="qcurve"/>
      <point x="862" y="1347"/>
      <point x="960" y="1257" type="qcurve" smooth="yes"/>
      <point x="1059" y="1165"/>
      <point x="1059" y="1055" type="qcurve"/>
      <point x="1055" y="932"/>
      <point x="940" y="874" type="qcurve"/>
    </contour>
    <contour>
      <point x="559" y="707" type="line"/>
      <point x="657" y="704"/>
      <point x="764" y="664" type="qcurve" smooth="yes"/>
      <point x="817" y="645"/>
      <point x="868" y="616" type="qcurve" smooth="yes"/>
      <point x="917" y="588"/>
      <point x="965" y="557" type="qcurve" smooth="yes"/>
      <point x="1059" y="496"/>
      <point x="1120" y="432" type="qcurve"/>
      <point x="1178" y="369"/>
      <point x="1180" y="324" type="qcurve"/>
      <point x="1178" y="244"/>
      <point x="1135" y="188" type="qcurve" smooth="yes"/>
      <point x="1089" y="129"/>
      <point x="1026" y="129" type="qcurve" smooth="yes"/>
      <point x="958" y="129"/>
      <point x="899" y="143" type="qcurve"/>
      <point x="838" y="156"/>
      <point x="782" y="176" type="qcurve"/>
      <point x="672" y="219"/>
      <point x="592" y="285" type="qcurve"/>
      <point x="426" y="428"/>
      <point x="424" y="545" type="qcurve"/>
      <point x="424" y="604"/>
      <point x="467" y="653" type="qcurve"/>
      <point x="506" y="704"/>
      <point x="559" y="707" type="qcurve"/>
    </contour>
  </outline>
</glyph>
<glyph name="W" format="1">
  <advance width="934"/>
  <unicode hex="003A"/>
  <outline>
    <contour>
      <point x="473" y="342" type="line"/>
      <point x="287" y="342"/>
      <point x="285" y="156" type="qcurve" smooth="yes"/>
      <point x="283" y="-27"/>
      <point x="465" y="-25" type="qcurve"/>
      <point x="649" y="-20"/>
      <point x="651" y="158" type="qcurve"/>
      <point x="647" y="340"/>
      <point x="473" y="342" type="qcurve"/>
    </contour>
    <contour>
      <point x="473" y="979" type="line"/>
      <point x="287" y="979"/>
      <point x="285" y="793" type="qcurve" smooth="yes"/>
      <point x="283" y="610"/>
      <point x="465" y="612" type="qcurve" smooth="yes"/>
      <point x="649" y="614"/>
      <point x="651" y="795" type="qcurve"/>
      <point x="647" y="977"/>
      <point x="473" y="979" type="qcurve"/>
    </contour>
  </outline>
</glyph>
<glyph name="backslash" format="1">
  <advance width="1143"/>
  <unicode hex="003F"/>
  <outline>
    <contour>
      <point x="602" y="281" type="line"/>
      <point x="438" y="281"/>
      <point x="436" y="125" type="qcurve" smooth="yes"/>
      <point x="434" y="-29"/>
      <point x="596" y="-27" type="qcurve"/>
      <point x="758" y="-23"/>
      <point x="760" y="125" type="qcurve"/>
      <point x="756" y="279"/>
      <point x="602" y="281" type="qcurve"/>
    </contour>
    <contour>
      <point x="555" y="1460" type="line"/>
      <point x="438" y="1460"/>
      <point x="311" y="1429" type="qcurve" smooth="yes"/>
      <point x="252" y="1415"/>
      <point x="215" y="1384" type="qcurve"/>
      <point x="174" y="1354"/>
      <point x="174" y="1309" type="qcurve" smooth="yes"/>
      <point x="174" y="1282"/>
      <point x="192" y="1208" type="qcurve" smooth="yes"/>
      <point x="209" y="1135"/>
      <point x="236" y="1085" type="qcurve"/>
      <point x="246" y="1073"/>
      <point x="274" y="1067" type="qcurve"/>
      <point x="303" y="1059"/>
      <point x="338" y="1059" type="qcurve" smooth="yes"/>
      <point x="373" y="1059"/>
      <point x="399" y="1094" type="qcurve"/>
      <point x="422" y="1122"/>
      <point x="448" y="1161" type="qcurve" smooth="yes"/>
      <point x="475" y="1200"/>
      <point x="514" y="1229" type="qcurve" smooth="yes"/>
      <point x="551" y="1257"/>
      <point x="614" y="1259" type="qcurve"/>
      <point x="698" y="1257"/>
      <point x="743" y="1206" type="qcurve"/>
      <point x="786" y="1155"/>
      <point x="786" y="1081" type="qcurve"/>
      <point x="784" y="1024"/>
      <point x="743" y="971" type="qcurve"/>
      <point x="698" y="915"/>
      <point x="641" y="864" type="qcurve" smooth="yes"/>
      <point x="584" y="813"/>
      <point x="541" y="758" type="qcurve"/>
      <point x="494" y="702"/>
      <point x="494" y="635" type="qcurve" smooth="yes"/>
      <point x="494" y="582"/>
      <point x="532" y="532" type="qcurve"/>
      <point x="567" y="477"/>
      <point x="618" y="475" type="qcurve"/>
      <point x="674" y="477"/>
      <point x="704" y="514" type="qcurve"/>
      <point x="721" y="530"/>
      <point x="733" y="545" type="qcurve" smooth="yes"/>
      <point x="743" y="557"/>
      <point x="752" y="567" type="qcurve" smooth="yes"/>
      <point x="889" y="715" type="line"/>
      <point x="942" y="776"/>
      <point x="962" y="856" type="qcurve" smooth="yes"/>
      <point x="981" y="932"/>
      <point x="981" y="987" type="qcurve"/>
      <point x="977" y="1151"/>
      <point x="848" y="1300" type="qcurve"/>
      <point x="788" y="1372"/>
      <point x="713" y="1417" type="qcurve"/>
      <point x="635" y="1458"/>
      <point x="555" y="1460" type="qcurve"/>
    </contour>
  </outline>
</glyph>
<glyph name="bracketright" format="1">
  <advance width="2009"/>
  <unicode hex="0040"/>
  <outline>
    <contour>
      <point x="750" y="1167" type="line"/>
      <point x="778" y="1145"/>
      <point x="801" y="1083" type="qcurve"/>
      <point x="823" y="1020"/>
      <point x="823" y="948" type="qcurve"/>
      <point x="821" y="895"/>
      <point x="782" y="827" type="qcurve"/>
      <point x="743" y="756"/>
      <point x="688" y="676" type="qcurve"/>
      <point x="637" y="596"/>
      <point x="598" y="510" type="qcurve"/>
      <point x="553" y="420"/>
      <point x="553" y="328" type="qcurve" smooth="yes"/>
      <point x="553" y="250"/>
      <point x="582" y="207" type="qcurve"/>
      <point x="608" y="162"/>
      <point x="645" y="162" type="qcurve" smooth="yes"/>
      <point x="735" y="164"/>
      <point x="805" y="285" type="qcurve"/>
      <point x="874" y="401"/>
      <point x="940" y="557" type="qcurve"/>
      <point x="940" y="557" type="line"/>
      <point x="1022" y="270" type="line"/>
      <point x="1083" y="164"/>
      <point x="1194" y="162" type="qcurve"/>
      <point x="1317" y="162"/>
      <point x="1520" y="192" type="qcurve"/>
      <point x="1614" y="209"/>
      <point x="1687" y="233" type="qcurve"/>
      <point x="1759" y="258"/>
      <point x="1786" y="291" type="qcurve"/>
      <point x="1847" y="375"/>
      <point x="1874" y="469" type="qcurve" smooth="yes"/>
      <point x="1900" y="563"/>
      <point x="1900" y="727" type="qcurve"/>
      <point x="1896" y="1116"/>
      <point x="1640" y="1370" type="qcurve"/>
      <point x="1388" y="1626"/>
      <point x="1005" y="1630" type="qcurve"/>
      <point x="821" y="1630"/>
      <point x="659" y="1560" type="qcurve" smooth="yes"/>
      <point x="498" y="1491"/>
      <point x="377" y="1366" type="qcurve"/>
      <point x="119" y="1108"/>
      <point x="115" y="721" type="qcurve"/>
      <point x="121" y="340"/>
      <point x="383" y="88" type="qcurve"/>
      <point x="637" y="-172"/>
      <point x="969" y="-178" type="qcurve"/>
      <point x="1120" y="-176"/>
      <point x="1221" y="-152" type="qcurve" smooth="yes"/>
      <point x="1321" y="-129"/>
      <point x="1370" y="-100" type="qcurve"/>
      <point x="1407" y="-80"/>
      <point x="1436" y="-55" type="qcurve" smooth="yes"/>
      <point x="1464" y="-31"/>
      <point x="1466" y="-14" type="qcurve"/>
      <point x="1462" y="-2"/>
      <point x="1390" y="25" type="qcurve"/>
      <point x="1317" y="49"/>
      <point x="1241" y="51" type="qcurve"/>
      <point x="1202" y="49"/>
      <point x="1126" y="27" type="qcurve"/>
      <point x="1051" y="2"/>
      <point x="889" y="0" type="qcurve"/>
      <point x="645" y="2"/>
      <point x="467" y="170" type="qcurve"/>
      <point x="281" y="330"/>
      <point x="276" y="573" type="qcurve"/>
      <point x="283" y="905"/>
      <point x="549" y="1169" type="qcurve"/>
      <point x="805" y="1438"/>
      <point x="1149" y="1446" type="qcurve"/>
      <point x="1395" y="1442"/>
      <point x="1560" y="1272" type="qcurve" smooth="yes"/>
      <point x="1724" y="1102"/>
      <point x="1728" y="850" type="qcurve"/>
      <point x="1728" y="725"/>
      <point x="1655" y="500" type="qcurve"/>
      <point x="1616" y="395"/>
      <point x="1554" y="326" type="qcurve"/>
      <point x="1491" y="250"/>
      <point x="1405" y="248" type="qcurve" smooth="yes"/>
      <point x="1386" y="248"/>
      <point x="1360" y="260" type="qcurve"/>
      <point x="1331" y="270"/>
      <point x="1317" y="295" type="qcurve"/>
      <point x="1139" y="711"/>
      <point x="1104" y="1069" type="qcurve"/>
      <point x="1096" y="1130"/>
      <point x="1075" y="1165" type="qcurve" smooth="yes"/>
      <point x="1055" y="1198"/>
      <point x="1005" y="1198" type="qcurve" smooth="yes"/>
      <point x="764" y="1198" type="line"/>
    </contour>
    <contour>
      <point x="870" y="799" type="line"/>
      <point x="907" y="741"/>
      <point x="911" y="657" type="qcurve"/>
      <point x="911" y="600"/>
      <point x="879" y="532" type="qcurve" smooth="yes"/>
      <point x="864" y="502"/>
      <point x="842" y="479" type="qcurve"/>
      <point x="817" y="457"/>
      <point x="790" y="457" type="qcurve"/>
      <point x="774" y="459"/>
      <point x="774" y="512" type="qcurve" smooth="yes"/>
      <point x="774" y="594"/>
      <point x="801" y="692" type="qcurve" smooth="yes"/>
      <point x="813" y="739"/>
      <point x="831" y="770" type="qcurve"/>
      <point x="850" y="799"/>
      <point x="870" y="799" type="qcurve"/>
    </contour>
  </outline>
</glyph>
<glyph name="underscore" format="1">
  <advance width="1370"/>
  <unicode hex="0042"/>
  <outline>
    <contour>
      <point x="1175" y="0" type="line"/>
      <point x="1231" y="72" type="line"/>
      <point x="1218" y="483"/>
      <point x="1079" y="780" type="qcurve"/>
      <point x="1069" y="807"/>
      <point x="1049" y="838" type="qcurve"/>
      <point x="1026" y="864"/>
      <point x="971" y="866" type="qcurve"/>
      <point x="860" y="866" type="line"/>
      <point x="860" y="885" type="line"/>
      <point x="1145" y="1100"/>
      <point x="1223" y="1405" type="qcurve"/>
      <point x="1208" y="1429" type="line"/>
      <point x="1063" y="1431"/>
      <point x="915" y="1433" type="qcurve" smooth="yes"/>
      <point x="844" y="1433"/>
      <point x="756" y="1429" type="qcurve"/>
      <point x="293" y="1401" type="line"/>
      <point x="180" y="909"/>
      <point x="180" y="268" type="qcurve"/>
      <point x="178" y="96"/>
      <point x="199" y="-27" type="qcurve"/>
      <point x="227" y="-37"/>
      <point x="272" y="-37" type="qcurve"/>
      <point x="344" y="-35"/>
      <point x="545" y="-16" type="qcurve"/>
      <point x="745" y="0"/>
      <point x="1175" y="0" type="qcurve"/>
    </contour>
    <contour>
      <point x="688" y="1286" type="line"/>
      <point x="715" y="1311"/>
      <point x="764" y="1327" type="qcurve" smooth="yes"/>
      <point x="813" y="1343"/>
      <point x="854" y="1343" type="qcurve" smooth="yes"/>
      <point x="887" y="1343"/>
      <point x="907" y="1337" type="qcurve" smooth="yes"/>
      <point x="926" y="1331"/>
      <point x="936" y="1317" type="qcurve"/>
      <point x="954" y="1288"/>
      <point x="954" y="1241" type="qcurve" smooth="yes"/>
      <point x="954" y="1188"/>
      <point x="922" y="1128" type="qcurve"/>
      <point x="887" y="1069"/>
      <point x="838" y="1016" type="qcurve"/>
      <point x="786" y="962"/>
      <point x="739" y="932" type="qcurve"/>
      <point x="692" y="895"/>
      <point x="659" y="895" type="qcurve" smooth="yes"/>
      <point x="627" y="895"/>
      <point x="629" y="962" type="qcurve"/>
      <point x="629" y="1049"/>
      <point x="655" y="1151" type="qcurve" smooth="yes"/>
      <point x="680" y="1253"/>
      <point x="688" y="1286" type="qcurve"/>
    </contour>
    <contour>
      <point x="854" y="115" type="line"/>
      <point x="844" y="90" type="line"/>
      <point x="575" y="82" type="line"/>
      <point x="577" y="211"/>
      <point x="580" y="434" type="qcurve"/>
      <point x="580" y="565"/>
      <point x="596" y="741" type="qcurve" smooth="yes"/>
      <point x="596" y="752"/>
      <point x="606" y="772" type="qcurve"/>
      <point x="612" y="788"/>
      <point x="629" y="790" type="qcurve"/>
      <point x="651" y="788"/>
      <point x="707" y="715" type="qcurve"/>
      <point x="760" y="639"/>
      <point x="797" y="528" type="qcurve"/>
      <point x="856" y="315"/>
      <point x="854" y="115" type="qcurve"/>
    </contour>
  </outline>
</glyph>
<glyph name="a" format="1">
  <advance width="1976"/>
  <unicode hex="0044"/>
  <outline>
    <contour>
      <point x="358" y="1378" type="line"/>
      <point x="281" y="1051"/>
      <point x="262" y="723" type="qcurve"/>
      <point x="240" y="393"/>
      <point x="242" y="227" type="qcurve" smooth="yes"/>
      <point x="242" y="178"/>
      <point x="258" y="84" type="qcurve"/>
      <point x="268" y="39"/>
      <point x="283" y="10" type="qcurve"/>
      <point x="295" y="-20"/>
      <point x="317" y="-23" type="qcurve"/>
      <point x="338" y="-20"/>
      <point x="379" y="-8" type="qcurve"/>
      <point x="420" y="2"/>
      <point x="469" y="18" type="qcurve" smooth="yes"/>
      <point x="518" y="35"/>
      <point x="565" y="47" type="qcurve"/>
      <point x="612" y="57"/>
      <point x="645" y="57" type="qcurve" smooth="yes"/>
      <point x="692" y="57"/>
      <point x="780" y="43" type="qcurve"/>
      <point x="868" y="27"/>
      <point x="973" y="8" type="qcurve" smooth="yes"/>
      <point x="1077" y="-10"/>
      <point x="1165" y="-27" type="qcurve" smooth="yes"/>
      <point x="1251" y="-43"/>
      <point x="1294" y="-45" type="qcurve"/>
      <point x="1427" y="-41"/>
      <point x="1552" y="55" type="qcurve" smooth="yes"/>
      <point x="1585" y="80"/>
      <point x="1626" y="117" type="qcurve"/>
      <point x="1667" y="152"/>
      <point x="1708" y="195" type="qcurve"/>
      <point x="1749" y="242"/>
      <point x="1778" y="293" type="qcurve"/>
      <point x="1804" y="342"/>
      <point x="1804" y="401" type="qcurve" smooth="yes"/>
      <point x="1800" y="645"/>
      <point x="1712" y="858" type="qcurve"/>
      <point x="1628" y="1067"/>
      <point x="1579" y="1169" type="qcurve"/>
      <point x="1532" y="1282"/>
      <point x="1433" y="1370" type="qcurve" smooth="yes"/>
      <point x="1388" y="1411"/>
      <point x="1341" y="1436" type="qcurve" smooth="yes"/>
      <point x="1294" y="1460"/>
      <point x="1255" y="1460" type="qcurve" smooth="yes"/>
      <point x="1108" y="1458"/>
      <point x="1008" y="1444" type="qcurve"/>
      <point x="909" y="1427"/>
      <point x="827" y="1417" type="qcurve"/>
      <point x="446" y="1382"/>
      <point x="358" y="1378" type="qcurve"/>
    </contour>
    <contour>
      <point x="647" y="231" type="line"/>
      <point x="659" y="496"/>
      <point x="661" y="745" type="qcurve"/>
      <point x="666" y="997"/>
      <point x="698" y="1137" type="qcurve"/>
      <point x="723" y="1229"/>
      <point x="776" y="1253" type="qcurve" smooth="yes"/>
      <point x="827" y="1276"/>
      <point x="932" y="1274" type="qcurve" smooth="yes"/>
      <point x="1046" y="1272"/>
      <point x="1141" y="1141" type="qcurve" smooth="yes"/>
      <point x="1235" y="1010"/>
      <point x="1302" y="825" type="qcurve" smooth="yes"/>
      <point x="1446" y="422"/>
      <point x="1448" y="223" type="qcurve"/>
      <point x="1446" y="170"/>
      <point x="1388" y="172" type="qcurve" smooth="yes"/>
      <point x="1368" y="172"/>
      <point x="1294" y="186" type="qcurve"/>
      <point x="1221" y="197"/>
      <point x="1126" y="213" type="qcurve" smooth="yes"/>
      <point x="924" y="248"/>
      <point x="809" y="250" type="qcurve"/>
      <point x="745" y="250"/>
      <point x="711" y="248" type="qcurve"/>
      <point x="674" y="242"/>
      <point x="647" y="231" type="qcurve"/>
    </contour>
  </outline>
</glyph>
<glyph name="c" format="1">
  <advance width="1294"/>
  <unicode hex="0046"/>
  <outline>
    <contour>
      <point x="1286" y="1429" type="line"/>
      <point x="1106" y="1438"/>
      <point x="887" y="1438" type="qcurve" smooth="yes"/>
      <point x="780" y="1438"/>
      <point x="690" y="1429" type="qcurve"/>
      <point x="297" y="1384" type="line"/>
      <point x="182" y="901"/>
      <point x="182" y="266" type="qcurve"/>
      <point x="180" y="94"/>
      <point x="201" y="-29" type="qcurve"/>
      <point x="201" y="-29" type="line"/>
      <point x="582" y="18" type="line"/>
      <point x="582" y="432" type="line" smooth="yes"/>
      <point x="582" y="545"/>
      <point x="602" y="752" type="qcurve"/>
      <point x="618" y="756"/>
      <point x="678" y="758" type="qcurve"/>
      <point x="780" y="758" type="line" smooth="yes"/>
      <point x="958" y="758" type="line"/>
      <point x="989" y="760"/>
      <point x="1026" y="809" type="qcurve"/>
      <point x="1063" y="854"/>
      <point x="1065" y="889" type="qcurve"/>
      <point x="1065" y="911"/>
      <point x="1038" y="913" type="qcurve"/>
      <point x="711" y="911"/>
      <point x="625" y="897" type="qcurve"/>
      <point x="647" y="1149"/>
      <point x="690" y="1284" type="qcurve"/>
      <point x="717" y="1309"/>
      <point x="766" y="1325" type="qcurve" smooth="yes"/>
      <point x="811" y="1339"/>
      <point x="848" y="1339" type="qcurve"/>
      <point x="897" y="1337"/>
      <point x="928" y="1298" type="qcurve"/>
      <point x="956" y="1255"/>
      <point x="960" y="1210" type="qcurve"/>
      <point x="967" y="1169"/>
      <point x="973" y="1151" type="qcurve" smooth="yes"/>
      <point x="979" y="1132"/>
      <point x="993" y="1132" type="qcurve" smooth="yes"/>
      <point x="1028" y="1132"/>
      <point x="1079" y="1165" type="qcurve"/>
      <point x="1126" y="1194"/>
      <point x="1173" y="1241" type="qcurve" smooth="yes"/>
      <point x="1221" y="1288"/>
      <point x="1253" y="1337" type="qcurve" smooth="yes"/>
      <point x="1286" y="1388"/>
      <point x="1286" y="1429" type="qcurve"/>
    </contour>
  </outline>
</glyph>
<glyph name="i" format="1">
  <advance width="895"/>
  <unicode hex="004C"/>
  <outline>
    <contour>
      <point x="283" y="1642" type="line"/>
      <point x="199" y="1206"/>
      <point x="201" y="651" type="qcurve"/>
      <point x="199" y="416"/>
      <point x="225" y="59" type="qcurve"/>
      <point x="231" y="20"/>
      <point x="254" y="-2" type="qcurve" smooth="yes"/>
      <point x="279" y="-27"/>
      <point x="295" y="-27" type="qcurve" smooth="yes"/>
      <point x="305" y="-27"/>
      <point x="342" y="-23" type="qcurve" smooth="yes"/>
      <point x="584" y="0" type="line"/>
      <point x="623" y="6"/>
      <point x="625" y="68" type="qcurve"/>
      <point x="610" y="395"/>
      <point x="602" y="745" type="qcurve"/>
      <point x="602" y="891"/>
      <point x="637" y="1157" type="qcurve"/>
      <point x="670" y="1419"/>
      <point x="713" y="1599" type="qcurve"/>
      <point x="717" y="1622"/>
      <point x="717" y="1642" type="qcurve" smooth="yes"/>
      <point x="717" y="1665"/>
      <point x="711" y="1681" type="qcurve"/>
      <point x="700" y="1698"/>
      <point x="682" y="1698" type="qcurve"/>
      <point x="612" y="1692" type="line"/>
      <point x="541" y="1681"/>
      <point x="283" y="1642" type="qcurve"/>
    </contour>
  </outline>
</glyph>
<glyph name="o" format="1">
  <advance width="1499"/>
  <unicode hex="0052"/>
  <outline>
    <contour>
      <point x="295" y="1384" type="line"/>
      <point x="180" y="901"/>
      <point x="180" y="266" type="qcurve"/>
      <point x="178" y="94"/>
      <point x="199" y="-29" type="qcurve"/>
      <point x="199" y="-29" type="line"/>
      <point x="580" y="18" type="line"/>
      <point x="580" y="432" type="line" smooth="yes"/>
      <point x="580" y="649"/>
      <point x="616" y="934" type="qcurve" smooth="yes"/>
      <point x="633" y="1067"/>
      <point x="653" y="1165" type="qcurve" smooth="yes"/>
      <point x="672" y="1261"/>
      <point x="690" y="1288" type="qcurve"/>
      <point x="715" y="1317"/>
      <point x="764" y="1331" type="qcurve" smooth="yes"/>
      <point x="813" y="1345"/>
      <point x="858" y="1345" type="qcurve" smooth="yes"/>
      <point x="922" y="1345"/>
      <point x="942" y="1319" type="qcurve"/>
      <point x="960" y="1290"/>
      <point x="960" y="1243" type="qcurve"/>
      <point x="958" y="1178"/>
      <point x="909" y="1102" type="qcurve" smooth="yes"/>
      <point x="860" y="1026"/>
      <point x="797" y="967" type="qcurve"/>
      <point x="739" y="915"/>
      <point x="717" y="872" type="qcurve" smooth="yes"/>
      <point x="694" y="827"/>
      <point x="694" y="782" type="qcurve" smooth="yes"/>
      <point x="694" y="764"/>
      <point x="713" y="719" type="qcurve"/>
      <point x="729" y="672"/>
      <point x="752" y="612" type="qcurve"/>
      <point x="803" y="487"/>
      <point x="833" y="410" type="qcurve"/>
      <point x="856" y="358"/>
      <point x="881" y="287" type="qcurve"/>
      <point x="905" y="213"/>
      <point x="928" y="143" type="qcurve" smooth="yes"/>
      <point x="950" y="74"/>
      <point x="969" y="27" type="qcurve"/>
      <point x="985" y="-23"/>
      <point x="991" y="-25" type="qcurve"/>
      <point x="1061" y="-23"/>
      <point x="1337" y="0" type="qcurve"/>
      <point x="1358" y="4"/>
      <point x="1358" y="25" type="qcurve" smooth="yes"/>
      <point x="1354" y="119"/>
      <point x="1272" y="340" type="qcurve"/>
      <point x="1192" y="559"/>
      <point x="1106" y="754" type="qcurve" smooth="yes"/>
      <point x="1089" y="793"/>
      <point x="1071" y="817" type="qcurve"/>
      <point x="1051" y="840"/>
      <point x="1026" y="848" type="qcurve" smooth="yes"/>
      <point x="977" y="864"/>
      <point x="932" y="864" type="qcurve" smooth="yes"/>
      <point x="905" y="864"/>
      <point x="883" y="872" type="qcurve"/>
      <point x="856" y="879"/>
      <point x="856" y="901" type="qcurve"/>
      <point x="1005" y="985"/>
      <point x="1120" y="1124" type="qcurve"/>
      <point x="1235" y="1261"/>
      <point x="1268" y="1409" type="qcurve"/>
      <point x="1255" y="1431" type="line"/>
      <point x="1057" y="1436"/>
      <point x="930" y="1438" type="qcurve" smooth="yes"/>
      <point x="876" y="1438"/>
      <point x="747" y="1431" type="qcurve"/>
      <point x="620" y="1421"/>
      <point x="295" y="1384" type="qcurve"/>
    </contour>
  </outline>
</glyph>
<glyph name="r" format="1">
  <advance width="1601"/>
  <unicode hex="0055"/>
  <outline>
    <contour>
      <point x="168" y="1427" type="line"/>
      <point x="119" y="1171"/>
      <point x="115" y="821" type="qcurve"/>
      <point x="115" y="696"/>
      <point x="174" y="553" type="qcurve"/>
      <point x="229" y="410"/>
      <point x="311" y="276" type="qcurve"/>
      <point x="395" y="147"/>
      <point x="477" y="63" type="qcurve"/>
      <point x="559" y="-23"/>
      <point x="614" y="-25" type="qcurve"/>
      <point x="727" y="-23"/>
      <point x="840" y="80" type="qcurve"/>
      <point x="952" y="180"/>
      <point x="1036" y="315" type="qcurve"/>
      <point x="1030" y="233"/>
      <point x="1030" y="131" type="qcurve" smooth="yes"/>
      <point x="1030" y="80"/>
      <point x="1051" y="37" type="qcurve"/>
      <point x="1067" y="-6"/>
      <point x="1096" y="-8" type="qcurve"/>
      <point x="1112" y="-6"/>
      <point x="1173" y="0" type="qcurve"/>
      <point x="1390" y="25" type="line"/>
      <point x="1427" y="33"/>
      <point x="1429" y="100" type="qcurve"/>
      <point x="1415" y="393"/>
      <point x="1407" y="770" type="qcurve"/>
      <point x="1407" y="1065"/>
      <point x="1485" y="1382" type="qcurve" smooth="yes"/>
      <point x="1489" y="1401"/>
      <point x="1489" y="1417" type="qcurve" smooth="yes"/>
      <point x="1489" y="1442"/>
      <point x="1483" y="1458" type="qcurve"/>
      <point x="1472" y="1474"/>
      <point x="1454" y="1474" type="qcurve"/>
      <point x="1425" y="1477"/>
      <point x="1077" y="1425" type="qcurve"/>
      <point x="1030" y="1202"/>
      <point x="1030" y="891" type="qcurve"/>
      <point x="1028" y="543"/>
      <point x="960" y="418" type="qcurve"/>
      <point x="930" y="352"/>
      <point x="893" y="326" type="qcurve"/>
      <point x="856" y="297"/>
      <point x="819" y="297" type="qcurve"/>
      <point x="760" y="299"/>
      <point x="704" y="371" type="qcurve"/>
      <point x="647" y="440"/>
      <point x="600" y="539" type="qcurve"/>
      <point x="557" y="637"/>
      <point x="528" y="729" type="qcurve" smooth="yes"/>
      <point x="500" y="821"/>
      <point x="500" y="866" type="qcurve" smooth="yes"/>
      <point x="500" y="1071"/>
      <point x="594" y="1374" type="qcurve" smooth="yes"/>
      <point x="602" y="1397"/>
      <point x="602" y="1429" type="qcurve" smooth="yes"/>
      <point x="602" y="1452"/>
      <point x="596" y="1468" type="qcurve"/>
      <point x="586" y="1483"/>
      <point x="567" y="1483" type="qcurve" smooth="yes"/>
      <point x="565" y="1483"/>
      <point x="494" y="1477" type="qcurve"/>
      <point x="420" y="1466"/>
      <point x="168" y="1427" type="qcurve"/>
    </contour>
  </outline>
</glyph>
<glyph name="t" format="1">
  <advance width="2244"/>
  <unicode hex="0057"/>
  <outline>
    <contour>
      <point x="297" y="1431" type="line"/>
      <point x="262" y="1399"/>
      <point x="231" y="1333" type="qcurve"/>
      <point x="201" y="1264"/>
      <point x="174" y="1186" type="qcurve"/>
      <point x="121" y="1016"/>
      <point x="119" y="922" type="qcurve" smooth="yes"/>
      <point x="119" y="915"/>
      <point x="133" y="874" type="qcurve"/>
      <point x="145" y="831"/>
      <point x="168" y="762" type="qcurve"/>
      <point x="192" y="694"/>
      <point x="223" y="612" type="qcurve" smooth="yes"/>
      <point x="254" y="528"/>
      <point x="291" y="438" type="qcurve" smooth="yes"/>
      <point x="367" y="256"/>
      <point x="455" y="121" type="qcurve"/>
      <point x="500" y="55"/>
      <point x="543" y="16" type="qcurve"/>
      <point x="586" y="-25"/>
      <point x="627" y="-25" type="qcurve" smooth="yes"/>
      <point x="743" y="-23"/>
      <point x="827" y="23" type="qcurve"/>
      <point x="909" y="66"/>
      <point x="965" y="119" type="qcurve"/>
      <point x="1022" y="176"/>
      <point x="1059" y="217" type="qcurve" smooth="yes"/>
      <point x="1077" y="238"/>
      <point x="1089" y="250" type="qcurve"/>
      <point x="1102" y="260"/>
      <point x="1112" y="260" type="qcurve" smooth="yes"/>
      <point x="1149" y="258"/>
      <point x="1190" y="217" type="qcurve" smooth="yes"/>
      <point x="1231" y="176"/>
      <point x="1274" y="119" type="qcurve"/>
      <point x="1319" y="66"/>
      <point x="1368" y="23" type="qcurve"/>
      <point x="1415" y="-23"/>
      <point x="1460" y="-25" type="qcurve"/>
      <point x="1694" y="-23"/>
      <point x="1905" y="248" type="qcurve"/>
      <point x="2122" y="518"/>
      <point x="2130" y="1018" type="qcurve"/>
      <point x="2130" y="1241"/>
      <point x="2054" y="1399" type="qcurve"/>
      <point x="1771" y="1433" type="line"/>
      <point x="1771" y="1433" type="line"/>
      <point x="1653" y="1266" type="line"/>
      <point x="1653" y="1223" type="line"/>
      <point x="1773" y="1184"/>
      <point x="1812" y="1038" type="qcurve" smooth="yes"/>
      <point x="1851" y="891"/>
      <point x="1849" y="715" type="qcurve" smooth="yes"/>
      <point x="1847" y="512"/>
      <point x="1788" y="360" type="qcurve"/>
      <point x="1759" y="289"/>
      <point x="1728" y="246" type="qcurve"/>
      <point x="1694" y="201"/>
      <point x="1663" y="201" type="qcurve" smooth="yes"/>
      <point x="1638" y="201"/>
      <point x="1581" y="268" type="qcurve"/>
      <point x="1524" y="332"/>
      <point x="1456" y="440" type="qcurve"/>
      <point x="1393" y="549"/>
      <point x="1345" y="682" type="qcurve"/>
      <point x="1294" y="815"/>
      <point x="1294" y="954" type="qcurve"/>
      <point x="1296" y="1028"/>
      <point x="1345" y="1149" type="qcurve"/>
      <point x="1393" y="1272"/>
      <point x="1442" y="1378" type="qcurve"/>
      <point x="1419" y="1431" type="line"/>
      <point x="1073" y="1431" type="line"/>
      <point x="1003" y="1323"/>
      <point x="956" y="1202" type="qcurve"/>
      <point x="905" y="1079"/>
      <point x="905" y="946" type="qcurve" smooth="yes"/>
      <point x="905" y="872"/>
      <point x="926" y="805" type="qcurve"/>
      <point x="944" y="737"/>
      <point x="967" y="672" type="qcurve"/>
      <point x="991" y="608"/>
      <point x="1010" y="549" type="qcurve"/>
      <point x="1026" y="487"/>
      <point x="1026" y="432" type="qcurve" smooth="yes"/>
      <point x="1026" y="399"/>
      <point x="985" y="307" type="qcurve" smooth="yes"/>
      <point x="967" y="266"/>
      <point x="936" y="236" type="qcurve"/>
      <point x="905" y="201"/>
      <point x="864" y="201" type="qcurve"/>
      <point x="825" y="203"/>
      <point x="772" y="291" type="qcurve"/>
      <point x="717" y="377"/>
      <point x="659" y="498" type="qcurve"/>
      <point x="633" y="559"/>
      <point x="610" y="620" type="qcurve" smooth="yes"/>
      <point x="586" y="682"/>
      <point x="567" y="737" type="qcurve" smooth="yes"/>
      <point x="526" y="852"/>
      <point x="526" y="913" type="qcurve"/>
      <point x="524" y="1012"/>
      <point x="553" y="1118" type="qcurve"/>
      <point x="580" y="1223"/>
      <point x="686" y="1382" type="qcurve"/>
      <point x="657" y="1431" type="line"/>
    </contour>
  </outline>
</glyph>
<glyph name="u" format="1">
  <advance width="1513"/>
  <unicode hex="0058"/>
  <outline>
    <contour>
      <point x="733" y="735" type="line"/>
      <point x="733" y="735" type="line"/>
      <point x="678" y="973"/>
      <point x="614" y="1206" type="qcurve"/>
      <point x="592" y="1302"/>
      <point x="534" y="1366" type="qcurve"/>
      <point x="477" y="1427"/>
      <point x="377" y="1429" type="qcurve"/>
      <point x="59" y="1429" type="line"/>
      <point x="59" y="1345" type="line"/>
      <point x="115" y="1347"/>
      <point x="166" y="1309" type="qcurve"/>
      <point x="215" y="1268"/>
      <point x="266" y="1153" type="qcurve"/>
      <point x="367" y="942"/>
      <point x="518" y="274" type="qcurve"/>
      <point x="223" y="-545"/>
      <point x="20" y="-1384" type="qcurve"/>
      <point x="57" y="-1403" type="line"/>
      <point x="164" y="-1350" type="line"/>
      <point x="168" y="-1143"/>
      <point x="317" y="-733" type="qcurve"/>
      <point x="461" y="-326"/>
      <point x="614" y="12" type="qcurve"/>
      <point x="614" y="12" type="line"/>
      <point x="776" y="-592"/>
      <point x="905" y="-919" type="qcurve"/>
      <point x="975" y="-1085"/>
      <point x="1128" y="-1087" type="qcurve"/>
      <point x="1358" y="-1087" type="line"/>
      <point x="1358" y="-999" type="line"/>
      <point x="1282" y="-985" type="line" smooth="yes"/>
      <point x="1264" y="-981"/>
      <point x="1247" y="-958" type="qcurve"/>
      <point x="1229" y="-938"/>
      <point x="1221" y="-915" type="qcurve" smooth="yes"/>
      <point x="979" y="-213"/>
      <point x="809" y="520" type="qcurve"/>
      <point x="944" y="897"/>
      <point x="1030" y="1044" type="qcurve" smooth="yes"/>
      <point x="1075" y="1122"/>
      <point x="1114" y="1155" type="qcurve"/>
      <point x="1153" y="1186"/>
      <point x="1192" y="1186" type="qcurve"/>
      <point x="1241" y="1188"/>
      <point x="1292" y="1081" type="qcurve"/>
      <point x="1331" y="1081" type="line"/>
      <point x="1337" y="1137"/>
      <point x="1360" y="1186" type="qcurve"/>
      <point x="1378" y="1233"/>
      <point x="1401" y="1268" type="qcurve"/>
      <point x="1423" y="1304"/>
      <point x="1444" y="1327" type="qcurve" smooth="yes"/>
      <point x="1462" y="1347"/>
      <point x="1472" y="1354" type="qcurve"/>
      <point x="1477" y="1411" type="line"/>
      <point x="1405" y="1444"/>
      <point x="1341" y="1470" type="qcurve"/>
      <point x="1278" y="1497"/>
      <point x="1214" y="1497" type="qcurve" smooth="yes"/>
      <point x="1153" y="1497"/>
      <point x="1110" y="1481" type="qcurve" smooth="yes"/>
      <point x="1065" y="1464"/>
      <point x="1034" y="1436" type="qcurve" smooth="yes"/>
      <point x="1003" y="1407"/>
      <point x="985" y="1372" type="qcurve"/>
      <point x="965" y="1337"/>
      <point x="950" y="1300" type="qcurve" smooth="yes"/>
    </contour>
  </outline>
</glyph>
<glyph name="w" format="1">
  <advance width="1792"/>
  <unicode hex="005A"/>
  <outline>
    <contour>
      <point x="1153" y="-1378" type="line"/>
      <point x="1202" y="-1411" type="line"/>
      <point x="1202" y="-1411" type="line"/>
      <point x="1362" y="-1264"/>
      <point x="1501" y="-1034" type="qcurve"/>
      <point x="1644" y="-805"/>
      <point x="1649" y="-518" type="qcurve"/>
      <point x="1646" y="-147"/>
      <point x="1438" y="18" type="qcurve"/>
      <point x="1227" y="182"/>
      <point x="866" y="182" type="qcurve" smooth="yes"/>
      <point x="778" y="182"/>
      <point x="725" y="195" type="qcurve"/>
      <point x="672" y="205"/>
      <point x="641" y="223" type="qcurve"/>
      <point x="588" y="262"/>
      <point x="590" y="311" type="qcurve"/>
      <point x="590" y="371"/>
      <point x="639" y="444" type="qcurve"/>
      <point x="686" y="516"/>
      <point x="793" y="600" type="qcurve" smooth="yes"/>
      <point x="1642" y="1264" type="line" smooth="yes"/>
      <point x="1698" y="1307"/>
      <point x="1732" y="1341" type="qcurve"/>
      <point x="1767" y="1374"/>
      <point x="1767" y="1399" type="qcurve"/>
      <point x="1765" y="1427"/>
      <point x="1696" y="1427" type="qcurve" smooth="yes"/>
      <point x="883" y="1427" type="line" smooth="yes"/>
      <point x="747" y="1427"/>
      <point x="657" y="1374" type="qcurve"/>
      <point x="567" y="1317"/>
      <point x="565" y="1194" type="qcurve"/>
      <point x="567" y="1132"/>
      <point x="590" y="1026" type="qcurve"/>
      <point x="610" y="919"/>
      <point x="612" y="829" type="qcurve"/>
      <point x="612" y="756"/>
      <point x="577" y="719" type="qcurve"/>
      <point x="287" y="453"/>
      <point x="141" y="270" type="qcurve"/>
      <point x="82" y="188"/>
      <point x="66" y="152" type="qcurve"/>
      <point x="47" y="113"/>
      <point x="49" y="76" type="qcurve"/>
      <point x="49" y="53"/>
      <point x="72" y="29" type="qcurve"/>
      <point x="94" y="0"/>
      <point x="164" y="0" type="qcurve" smooth="yes"/>
      <point x="268" y="0"/>
      <point x="481" y="20" type="qcurve"/>
      <point x="696" y="39"/>
      <point x="815" y="41" type="qcurve"/>
      <point x="1110" y="37"/>
      <point x="1235" y="-143" type="qcurve" smooth="yes"/>
      <point x="1358" y="-321"/>
      <point x="1356" y="-594" type="qcurve"/>
      <point x="1358" y="-807"/>
      <point x="1325" y="-987" type="qcurve"/>
      <point x="1286" y="-1169"/>
      <point x="1153" y="-1378" type="qcurve"/>
    </contour>
    <contour>
      <point x="678" y="797" type="line"/>
      <point x="678" y="797" type="line"/>
      <point x="682" y="868"/>
      <point x="696" y="938" type="qcurve"/>
      <point x="713" y="1008"/>
      <point x="745" y="1063" type="qcurve" smooth="yes"/>
      <point x="778" y="1120"/>
      <point x="840" y="1151" type="qcurve"/>
      <point x="899" y="1184"/>
      <point x="987" y="1184" type="qcurve" smooth="yes"/>
      <point x="1182" y="1184" type="line"/>
    </contour>
  </outline>
</glyph>
<glyph name="y" format="1">
  <advance width="946"/>
  <unicode hex="005C"/>
  <outline>
    <contour>
      <point x="18" y="1534" type="line"/>
      <point x="12" y="1517" type="line"/>
      <point x="868" y="-111" type="line"/>
      <point x="962" y="-158" type="line"/>
      <point x="997" y="-143" type="line"/>
      <point x="575" y="645"/>
      <point x="410" y="1030" type="qcurve"/>
      <point x="242" y="1415"/>
      <point x="164" y="1575" type="qcurve"/>
      <point x="119" y="1603" type="line"/>
      <point x="80" y="1556"/>
      <point x="18" y="1534" type="qcurve"/>
    </contour>
  </outline>
</glyph>
<glyph name="Ntilde" format="1">
  <advance width="1200"/>
  <unicode hex="0066"/>
  <outline>
    <contour>
      <point x="45" y="592" type="line"/>
      <point x="80" y="604"/>
      <point x="156" y="633" type="qcurve"/>
      <point x="233" y="661"/>
      <point x="309" y="664" type="qcurve"/>
      <point x="342" y="664"/>
      <point x="383" y="653" type="qcurve"/>
      <point x="455" y="418"/>
      <point x="512" y="131" type="qcurve"/>
      <point x="571" y="-156"/>
      <point x="573" y="-321" type="qcurve"/>
      <point x="571" y="-543"/>
      <point x="528" y="-713" type="qcurve"/>
      <point x="483" y="-883"/>
      <point x="424" y="-999" type="qcurve"/>
      <point x="473" y="-1010" type="line"/>
      <point x="559" y="-967" type="line"/>
      <point x="747" y="-573"/>
      <point x="747" y="-119" type="qcurve"/>
      <point x="745" y="92"/>
      <point x="723" y="262" type="qcurve"/>
      <point x="696" y="432"/>
      <point x="676" y="582" type="qcurve"/>
      <point x="758" y="563"/>
      <point x="807" y="549" type="qcurve"/>
      <point x="854" y="530"/>
      <point x="897" y="530" type="qcurve" smooth="yes"/>
      <point x="946" y="530"/>
      <point x="985" y="563" type="qcurve" smooth="yes"/>
      <point x="1022" y="594"/>
      <point x="1049" y="635" type="qcurve"/>
      <point x="1102" y="727"/>
      <point x="1102" y="780" type="qcurve" smooth="yes"/>
      <point x="1102" y="809"/>
      <point x="1085" y="809" type="qcurve"/>
      <point x="1057" y="807"/>
      <point x="1032" y="784" type="qcurve"/>
      <point x="1010" y="758"/>
      <point x="979" y="756" type="qcurve"/>
      <point x="903" y="758"/>
      <point x="807" y="790" type="qcurve" smooth="yes"/>
      <point x="711" y="821"/>
      <point x="623" y="844" type="qcurve"/>
      <point x="573" y="911"/>
      <point x="541" y="973" type="qcurve"/>
      <point x="508" y="1032"/>
      <point x="508" y="1087" type="qcurve"/>
      <point x="510" y="1159"/>
      <point x="567" y="1200" type="qcurve" smooth="yes"/>
      <point x="620" y="1239"/>
      <point x="676" y="1239" type="qcurve"/>
      <point x="729" y="1237"/>
      <point x="764" y="1223" type="qcurve" smooth="yes"/>
      <point x="784" y="1216"/>
      <point x="813" y="1210" type="qcurve"/>
      <point x="840" y="1202"/>
      <point x="885" y="1202" type="qcurve" smooth="yes"/>
      <point x="911" y="1202"/>
      <point x="942" y="1229" type="qcurve"/>
      <point x="971" y="1251"/>
      <point x="999" y="1286" type="qcurve" smooth="yes"/>
      <point x="1028" y="1321"/>
      <point x="1044" y="1352" type="qcurve" smooth="yes"/>
      <point x="1061" y="1384"/>
      <point x="1061" y="1403" type="qcurve" smooth="yes"/>
      <point x="1061" y="1423"/>
      <point x="1044" y="1423" type="qcurve"/>
      <point x="1024" y="1421"/>
      <point x="999" y="1407" type="qcurve"/>
      <point x="977" y="1390"/>
      <point x="940" y="1390" type="qcurve" smooth="yes"/>
      <point x="889" y="1390"/>
      <point x="842" y="1411" type="qcurve"/>
      <point x="795" y="1427"/>
      <point x="737" y="1429" type="qcurve"/>
      <point x="672" y="1429"/>
      <point x="623" y="1399" type="qcurve" smooth="yes"/>
      <point x="571" y="1368"/>
      <point x="528" y="1311" type="qcurve"/>
      <point x="471" y="1241"/>
      <point x="403" y="1139" type="qcurve"/>
      <point x="373" y="1089"/>
      <point x="350" y="1044" type="qcurve" smooth="yes"/>
      <point x="328" y="1001"/>
      <point x="328" y="969" type="qcurve" smooth="yes"/>
      <point x="328" y="854"/>
      <point x="336" y="815" type="qcurve"/>
      <point x="295" y="803"/>
      <point x="258" y="786" type="qcurve" smooth="yes"/>
      <point x="221" y="768"/>
      <point x="188" y="745" type="qcurve" smooth="yes"/>
      <point x="123" y="702"/>
      <point x="29" y="639" type="qcurve"/>
    </contour>
  </outline>
</glyph>
<glyph name="acircumflex" format="1">
  <advance width="1272"/>
  <unicode hex="006B"/>
  <outline>
    <contour>
      <point x="534" y="541" type="line"/>
      <point x="534" y="526"/>
      <point x="561" y="496" type="qcurve"/>
      <point x="582" y="463"/>
      <point x="596" y="436" type="qcurve" smooth="yes"/>
      <point x="655" y="324"/>
      <point x="688" y="209" type="qcurve" smooth="yes"/>
      <point x="721" y="94"/>
      <point x="745" y="-6" type="qcurve"/>
      <point x="758" y="-20"/>
      <point x="768" y="-25" type="qcurve"/>
      <point x="1038" y="-8" type="line"/>
      <point x="1053" y="-6"/>
      <point x="1053" y="8" type="qcurve" smooth="yes"/>
      <point x="1053" y="47"/>
      <point x="969" y="305" type="qcurve"/>
      <point x="926" y="420"/>
      <point x="864" y="508" type="qcurve" smooth="yes"/>
      <point x="803" y="596"/>
      <point x="721" y="598" type="qcurve"/>
      <point x="661" y="596"/>
      <point x="661" y="623" type="qcurve" smooth="yes"/>
      <point x="661" y="647"/>
      <point x="684" y="682" type="qcurve" smooth="yes"/>
      <point x="707" y="717"/>
      <point x="739" y="747" type="qcurve" smooth="yes"/>
      <point x="774" y="780"/>
      <point x="815" y="803" type="qcurve"/>
      <point x="854" y="823"/>
      <point x="891" y="823" type="qcurve" smooth="yes"/>
      <point x="919" y="823"/>
      <point x="940" y="819" type="qcurve"/>
      <point x="958" y="813"/>
      <point x="975" y="805" type="qcurve"/>
      <point x="993" y="799"/>
      <point x="1020" y="793" type="qcurve"/>
      <point x="1046" y="784"/>
      <point x="1092" y="784" type="qcurve" smooth="yes"/>
      <point x="1120" y="784"/>
      <point x="1151" y="809" type="qcurve"/>
      <point x="1180" y="831"/>
      <point x="1206" y="864" type="qcurve"/>
      <point x="1235" y="899"/>
      <point x="1251" y="930" type="qcurve"/>
      <point x="1268" y="960"/>
      <point x="1268" y="977" type="qcurve" smooth="yes"/>
      <point x="1268" y="993"/>
      <point x="1251" y="995" type="qcurve"/>
      <point x="1231" y="993"/>
      <point x="1206" y="979" type="qcurve"/>
      <point x="1184" y="962"/>
      <point x="1147" y="962" type="qcurve" smooth="yes"/>
      <point x="1096" y="962"/>
      <point x="1049" y="983" type="qcurve"/>
      <point x="1001" y="999"/>
      <point x="944" y="1001" type="qcurve"/>
      <point x="879" y="1001"/>
      <point x="829" y="971" type="qcurve" smooth="yes"/>
      <point x="778" y="940"/>
      <point x="735" y="883" type="qcurve"/>
      <point x="678" y="813"/>
      <point x="610" y="711" type="qcurve"/>
      <point x="580" y="661"/>
      <point x="557" y="616" type="qcurve" smooth="yes"/>
      <point x="534" y="573"/>
      <point x="534" y="541" type="qcurve"/>
    </contour>
    <contour>
      <point x="207" y="1388" type="line"/>
      <point x="176" y="1272"/>
      <point x="156" y="1001" type="qcurve"/>
      <point x="133" y="727"/>
      <point x="133" y="451" type="qcurve" smooth="yes"/>
      <point x="133" y="313"/>
      <point x="149" y="37" type="qcurve"/>
      <point x="152" y="18"/>
      <point x="160" y="-2" type="qcurve" smooth="yes"/>
      <point x="168" y="-23"/>
      <point x="197" y="-25" type="qcurve"/>
      <point x="330" y="-23"/>
      <point x="387" y="-6" type="qcurve"/>
      <point x="414" y="0"/>
      <point x="422" y="16" type="qcurve" smooth="yes"/>
      <point x="430" y="31"/>
      <point x="430" y="47" type="qcurve" smooth="yes"/>
      <point x="420" y="238"/>
      <point x="416" y="451" type="qcurve"/>
      <point x="422" y="1008"/>
      <point x="504" y="1345" type="qcurve" smooth="yes"/>
      <point x="510" y="1368"/>
      <point x="510" y="1384" type="qcurve" smooth="yes"/>
      <point x="510" y="1403"/>
      <point x="506" y="1415" type="qcurve"/>
      <point x="500" y="1427"/>
      <point x="485" y="1427" type="qcurve" smooth="yes"/>
      <point x="483" y="1427"/>
      <point x="430" y="1423" type="qcurve"/>
      <point x="375" y="1415"/>
      <point x="207" y="1388" type="qcurve"/>
    </contour>
  </outline>
</glyph>
<glyph name="adieresis" format="1">
  <advance width="672"/>
  <unicode hex="006C"/>
  <outline>
    <contour>
      <point x="238" y="1388" type="line"/>
      <point x="207" y="1272"/>
      <point x="186" y="1001" type="qcurve" smooth="yes"/>
      <point x="164" y="727"/>
      <point x="164" y="451" type="qcurve" smooth="yes"/>
      <point x="164" y="313"/>
      <point x="180" y="37" type="qcurve" smooth="yes"/>
      <point x="182" y="18"/>
      <point x="190" y="-2" type="qcurve" smooth="yes"/>
      <point x="199" y="-23"/>
      <point x="227" y="-25" type="qcurve"/>
      <point x="360" y="-23"/>
      <point x="418" y="-6" type="qcurve"/>
      <point x="444" y="0"/>
      <point x="453" y="16" type="qcurve" smooth="yes"/>
      <point x="461" y="31"/>
      <point x="461" y="47" type="qcurve" smooth="yes"/>
      <point x="451" y="238"/>
      <point x="446" y="451" type="qcurve"/>
      <point x="453" y="1008"/>
      <point x="534" y="1345" type="qcurve"/>
      <point x="541" y="1368"/>
      <point x="541" y="1384" type="qcurve" smooth="yes"/>
      <point x="541" y="1403"/>
      <point x="537" y="1415" type="qcurve"/>
      <point x="530" y="1427"/>
      <point x="516" y="1427" type="qcurve" smooth="yes"/>
      <point x="514" y="1427"/>
      <point x="461" y="1423" type="qcurve"/>
      <point x="405" y="1415"/>
      <point x="238" y="1388" type="qcurve"/>
    </contour>
  </outline>
</glyph>
<glyph name="atilde" format="1">
  <advance width="1782"/>
  <unicode hex="006D"/>
  <outline>
    <contour>
      <point x="489" y="805" type="line"/>
      <point x="528" y="981"/>
      <point x="526" y="973" type="qcurve"/>
      <point x="526" y="995"/>
      <point x="502" y="995" type="qcurve" smooth="yes"/>
      <point x="477" y="995"/>
      <point x="219" y="969" type="qcurve"/>
      <point x="133" y="633"/>
      <point x="133" y="213" type="qcurve" smooth="yes"/>
      <point x="133" y="127"/>
      <point x="137" y="68" type="qcurve" smooth="yes"/>
      <point x="141" y="6"/>
      <point x="147" y="-25" type="qcurve"/>
      <point x="283" y="0"/>
      <point x="451" y="0" type="qcurve"/>
      <point x="444" y="84"/>
      <point x="444" y="178" type="qcurve" smooth="yes"/>
      <point x="444" y="356"/>
      <point x="459" y="494" type="qcurve" smooth="yes"/>
      <point x="471" y="608"/>
      <point x="543" y="731" type="qcurve" smooth="yes"/>
      <point x="577" y="788"/>
      <point x="616" y="825" type="qcurve"/>
      <point x="657" y="860"/>
      <point x="700" y="860" type="qcurve"/>
      <point x="764" y="858"/>
      <point x="764" y="739" type="qcurve" smooth="yes"/>
      <point x="764" y="725"/>
      <point x="756" y="623" type="qcurve" smooth="yes"/>
      <point x="747" y="520"/>
      <point x="747" y="379" type="qcurve"/>
      <point x="745" y="229"/>
      <point x="774" y="-25" type="qcurve"/>
      <point x="1073" y="-6" type="line"/>
      <point x="1049" y="238"/>
      <point x="1051" y="481" type="qcurve"/>
      <point x="1051" y="604"/>
      <point x="1112" y="725" type="qcurve"/>
      <point x="1143" y="782"/>
      <point x="1184" y="817" type="qcurve" smooth="yes"/>
      <point x="1225" y="852"/>
      <point x="1276" y="852" type="qcurve"/>
      <point x="1337" y="850"/>
      <point x="1339" y="731" type="qcurve" smooth="yes"/>
      <point x="1339" y="702"/>
      <point x="1331" y="608" type="qcurve" smooth="yes"/>
      <point x="1323" y="514"/>
      <point x="1323" y="375" type="qcurve"/>
      <point x="1321" y="231"/>
      <point x="1350" y="-25" type="qcurve"/>
      <point x="1649" y="-6" type="line"/>
      <point x="1624" y="233"/>
      <point x="1626" y="473" type="qcurve" smooth="yes"/>
      <point x="1626" y="592"/>
      <point x="1634" y="682" type="qcurve"/>
      <point x="1640" y="770"/>
      <point x="1640" y="807" type="qcurve" smooth="yes"/>
      <point x="1640" y="899"/>
      <point x="1597" y="952" type="qcurve"/>
      <point x="1552" y="1005"/>
      <point x="1452" y="1008" type="qcurve"/>
      <point x="1366" y="1008"/>
      <point x="1274" y="956" type="qcurve" smooth="yes"/>
      <point x="1182" y="903"/>
      <point x="1057" y="778" type="qcurve"/>
      <point x="1057" y="778" type="line"/>
      <point x="1057" y="887"/>
      <point x="1016" y="952" type="qcurve"/>
      <point x="973" y="1016"/>
      <point x="874" y="1016" type="qcurve" smooth="yes"/>
      <point x="762" y="1016"/>
      <point x="666" y="958" type="qcurve" smooth="yes"/>
      <point x="569" y="899"/>
      <point x="502" y="799" type="qcurve"/>
    </contour>
  </outline>
</glyph>
<glyph name="aring" format="1">
  <advance width="1206"/>
  <unicode hex="006E"/>
  <outline>
    <contour>
      <point x="489" y="805" type="line"/>
      <point x="528" y="981"/>
      <point x="526" y="973" type="qcurve"/>
      <point x="526" y="995"/>
      <point x="502" y="995" type="qcurve" smooth="yes"/>
      <point x="477" y="995"/>
      <point x="219" y="969" type="qcurve"/>
      <point x="133" y="633"/>
      <point x="133" y="213" type="qcurve" smooth="yes"/>
      <point x="133" y="127"/>
      <point x="137" y="68" type="qcurve" smooth="yes"/>
      <point x="141" y="6"/>
      <point x="147" y="-25" type="qcurve"/>
      <point x="283" y="0"/>
      <point x="451" y="0" type="qcurve"/>
      <point x="444" y="84"/>
      <point x="444" y="178" type="qcurve" smooth="yes"/>
      <point x="444" y="356"/>
      <point x="459" y="494" type="qcurve" smooth="yes"/>
      <point x="471" y="608"/>
      <point x="543" y="731" type="qcurve" smooth="yes"/>
      <point x="577" y="788"/>
      <point x="616" y="825" type="qcurve"/>
      <point x="657" y="860"/>
      <point x="700" y="860" type="qcurve"/>
      <point x="764" y="858"/>
      <point x="764" y="739" type="qcurve" smooth="yes"/>
      <point x="764" y="725"/>
      <point x="756" y="623" type="qcurve" smooth="yes"/>
      <point x="747" y="520"/>
      <point x="747" y="379" type="qcurve"/>
      <point x="745" y="229"/>
      <point x="774" y="-25" type="qcurve"/>
      <point x="1073" y="-6" type="line"/>
      <point x="1049" y="244"/>
      <point x="1051" y="481" type="qcurve"/>
      <point x="1055" y="643"/>
      <point x="1057" y="778" type="qcurve"/>
      <point x="1057" y="879"/>
      <point x="1020" y="946" type="qcurve"/>
      <point x="979" y="1014"/>
      <point x="876" y="1016" type="qcurve"/>
      <point x="762" y="1014"/>
      <point x="664" y="956" type="qcurve" smooth="yes"/>
      <point x="565" y="897"/>
      <point x="502" y="799" type="qcurve"/>
    </contour>
  </outline>
</glyph>
<glyph name="eacute" format="1">
  <advance width="743"/>
  <unicode hex="0070"/>
  <outline>
    <contour>
      <point x="379" y="-27" type="line"/>
      <point x="434" y="-25"/>
      <point x="477" y="31" type="qcurve" smooth="yes"/>
      <point x="518" y="84"/>
      <point x="545" y="166" type="qcurve" smooth="yes"/>
      <point x="600" y="338"/>
      <point x="600" y="483" type="qcurve"/>
      <point x="598" y="745"/>
      <point x="565" y="889" type="qcurve"/>
      <point x="530" y="1032"/>
      <point x="494" y="1032" type="qcurve" smooth="yes"/>
      <point x="442" y="1032"/>
      <point x="383" y="987" type="qcurve"/>
      <point x="324" y="940"/>
      <point x="266" y="862" type="qcurve"/>
      <point x="213" y="786"/>
      <point x="178" y="696" type="qcurve"/>
      <point x="139" y="604"/>
      <point x="139" y="510" type="qcurve" smooth="yes"/>
      <point x="141" y="274"/>
      <point x="192" y="-43" type="qcurve"/>
      <point x="238" y="-362"/>
      <point x="242" y="-567" type="qcurve"/>
      <point x="242" y="-684"/>
      <point x="231" y="-829" type="qcurve"/>
      <point x="217" y="-973"/>
      <point x="178" y="-1071" type="qcurve"/>
      <point x="227" y="-1081" type="line"/>
      <point x="332" y="-995" type="line"/>
      <point x="405" y="-774"/>
      <point x="405" y="-405" type="qcurve" smooth="yes"/>
      <point x="405" y="-283"/>
      <point x="399" y="-205" type="qcurve"/>
      <point x="391" y="-131"/>
      <point x="379" y="-27" type="qcurve"/>
    </contour>
    <contour>
      <point x="346" y="649" type="line"/>
      <point x="383" y="647"/>
      <point x="422" y="563" type="qcurve"/>
      <point x="459" y="477"/>
      <point x="461" y="377" type="qcurve" smooth="yes"/>
      <point x="461" y="330"/>
      <point x="442" y="274" type="qcurve" smooth="yes"/>
      <point x="422" y="217"/>
      <point x="365" y="201" type="qcurve"/>
      <point x="336" y="254"/>
      <point x="324" y="362" type="qcurve" smooth="yes"/>
      <point x="313" y="469"/>
      <point x="313" y="543" type="qcurve" smooth="yes"/>
      <point x="313" y="590"/>
      <point x="322" y="620" type="qcurve"/>
      <point x="328" y="649"/>
      <point x="346" y="649" type="qcurve"/>
    </contour>
  </outline>
</glyph>
<glyph name="ecircumflex" format="1">
  <advance width="1032"/>
  <unicode hex="0072"/>
  <outline>
    <contour>
      <point x="170" y="954" type="line"/>
      <point x="133" y="739"/>
      <point x="133" y="498" type="qcurve"/>
      <point x="137" y="260"/>
      <point x="158" y="59" type="qcurve"/>
      <point x="164" y="25"/>
      <point x="190" y="18" type="qcurve"/>
      <point x="289" y="0"/>
      <point x="358" y="0" type="qcurve"/>
      <point x="434" y="-2"/>
      <point x="436" y="70" type="qcurve"/>
      <point x="424" y="236"/>
      <point x="418" y="467" type="qcurve"/>
      <point x="418" y="616"/>
      <point x="481" y="715" type="qcurve"/>
      <point x="539" y="815"/>
      <point x="631" y="817" type="qcurve" smooth="yes"/>
      <point x="664" y="817"/>
      <point x="696" y="774" type="qcurve" smooth="yes"/>
      <point x="776" y="664" type="line"/>
      <point x="809" y="664" type="line"/>
      <point x="874" y="799"/>
      <point x="981" y="883" type="qcurve"/>
      <point x="922" y="946"/>
      <point x="883" y="971" type="qcurve"/>
      <point x="842" y="993"/>
      <point x="805" y="993" type="qcurve" smooth="yes"/>
      <point x="729" y="991"/>
      <point x="608" y="913" type="qcurve"/>
      <point x="487" y="840"/>
      <point x="426" y="745" type="qcurve"/>
      <point x="426" y="745" type="line"/>
      <point x="434" y="784"/>
      <point x="448" y="842" type="qcurve"/>
      <point x="463" y="899"/>
      <point x="465" y="944" type="qcurve"/>
      <point x="465" y="991"/>
      <point x="434" y="993" type="qcurve" smooth="yes"/>
      <point x="426" y="993"/>
      <point x="340" y="981" type="qcurve" smooth="yes"/>
      <point x="254" y="969"/>
      <point x="170" y="954" type="qcurve"/>
    </contour>
  </outline>
</glyph>
<glyph name="edieresis" format="1">
  <advance width="1368"/>
  <unicode hex="0073"/>
  <outline>
    <contour>
      <point x="911" y="940" type="line"/>
      <point x="909" y="975"/>
      <point x="856" y="993" type="qcurve"/>
      <point x="799" y="1008"/>
      <point x="715" y="1008" type="qcurve" smooth="yes"/>
      <point x="575" y="1008"/>
      <point x="428" y="981" type="qcurve"/>
      <point x="356" y="969"/>
      <point x="305" y="950" type="qcurve" smooth="yes"/>
      <point x="252" y="930"/>
      <point x="229" y="905" type="qcurve"/>
      <point x="184" y="844"/>
      <point x="149" y="737" type="qcurve"/>
      <point x="113" y="631"/>
      <point x="113" y="543" type="qcurve" smooth="yes"/>
      <point x="113" y="455"/>
      <point x="170" y="416" type="qcurve"/>
      <point x="221" y="375"/>
      <point x="297" y="375" type="qcurve"/>
      <point x="356" y="373"/>
      <point x="453" y="405" type="qcurve"/>
      <point x="545" y="434"/>
      <point x="739" y="516" type="qcurve"/>
      <point x="774" y="528"/>
      <point x="801" y="528" type="qcurve" smooth="yes"/>
      <point x="864" y="526"/>
      <point x="909" y="481" type="qcurve"/>
      <point x="952" y="436"/>
      <point x="977" y="369" type="qcurve"/>
      <point x="1026" y="223"/>
      <point x="1026" y="160" type="qcurve"/>
      <point x="1028" y="129"/>
      <point x="997" y="127" type="qcurve" smooth="yes"/>
      <point x="985" y="127"/>
      <point x="958" y="131" type="qcurve" smooth="yes"/>
      <point x="567" y="176" type="line" smooth="yes"/>
      <point x="537" y="180"/>
      <point x="512" y="180" type="qcurve" smooth="yes"/>
      <point x="479" y="180"/>
      <point x="426" y="160" type="qcurve"/>
      <point x="125" y="20" type="line"/>
      <point x="143" y="-27" type="line"/>
      <point x="211" y="-4"/>
      <point x="293" y="29" type="qcurve"/>
      <point x="373" y="59"/>
      <point x="436" y="61" type="qcurve"/>
      <point x="461" y="59"/>
      <point x="637" y="18" type="qcurve"/>
      <point x="719" y="2"/>
      <point x="797" y="-10" type="qcurve"/>
      <point x="874" y="-27"/>
      <point x="919" y="-27" type="qcurve" smooth="yes"/>
      <point x="1010" y="-25"/>
      <point x="1137" y="66" type="qcurve" smooth="yes"/>
      <point x="1196" y="109"/>
      <point x="1237" y="166" type="qcurve" smooth="yes"/>
      <point x="1276" y="221"/>
      <point x="1276" y="287" type="qcurve" smooth="yes"/>
      <point x="1276" y="426"/>
      <point x="1206" y="526" type="qcurve" smooth="yes"/>
      <point x="1137" y="625"/>
      <point x="991" y="627" type="qcurve" smooth="yes"/>
      <point x="938" y="627"/>
      <point x="876" y="610" type="qcurve" smooth="yes"/>
      <point x="541" y="522" type="line" smooth="yes"/>
      <point x="506" y="512"/>
      <point x="489" y="512" type="qcurve" smooth="yes"/>
      <point x="446" y="512"/>
      <point x="414" y="547" type="qcurve"/>
      <point x="379" y="577"/>
      <point x="379" y="633" type="qcurve" smooth="yes"/>
      <point x="379" y="745"/>
      <point x="442" y="848" type="qcurve" smooth="yes"/>
      <point x="504" y="950"/>
      <point x="629" y="954" type="qcurve"/>
      <point x="672" y="952"/>
      <point x="692" y="930" type="qcurve"/>
      <point x="713" y="905"/>
      <point x="719" y="872" type="qcurve"/>
      <point x="729" y="790"/>
      <point x="739" y="786" type="qcurve"/>
      <point x="762" y="799" type="line"/>
    </contour>
  </outline>
</glyph>
<glyph name="iacute" format="1">
  <advance width="1122"/>
  <unicode hex="0074"/>
  <outline>
    <contour>
      <point x="414" y="1227" type="line"/>
      <point x="401" y="1188"/>
      <point x="399" y="1151" type="qcurve"/>
      <point x="395" y="1112"/>
      <point x="385" y="993" type="qcurve"/>
      <point x="197" y="993" type="line" smooth="yes"/>
      <point x="180" y="993"/>
      <point x="174" y="981" type="qcurve"/>
      <point x="133" y="879" type="line"/>
      <point x="252" y="891"/>
      <point x="375" y="895" type="qcurve" smooth="yes"/>
      <point x="385" y="895"/>
      <point x="387" y="874" type="qcurve"/>
      <point x="387" y="844"/>
      <point x="379" y="672" type="qcurve"/>
      <point x="367" y="500"/>
      <point x="367" y="448" type="qcurve" smooth="yes"/>
      <point x="367" y="254"/>
      <point x="383" y="25" type="qcurve" smooth="yes"/>
      <point x="385" y="6"/>
      <point x="397" y="-8" type="qcurve"/>
      <point x="405" y="-25"/>
      <point x="430" y="-27" type="qcurve"/>
      <point x="541" y="-25"/>
      <point x="616" y="-10" type="qcurve" smooth="yes"/>
      <point x="643" y="-4"/>
      <point x="655" y="12" type="qcurve"/>
      <point x="664" y="27"/>
      <point x="664" y="45" type="qcurve" smooth="yes"/>
      <point x="653" y="256"/>
      <point x="647" y="508" type="qcurve"/>
      <point x="647" y="649"/>
      <point x="676" y="889" type="qcurve"/>
      <point x="752" y="883"/>
      <point x="846" y="872" type="qcurve"/>
      <point x="936" y="860"/>
      <point x="950" y="860" type="qcurve"/>
      <point x="960" y="858"/>
      <point x="975" y="879" type="qcurve"/>
      <point x="1030" y="1001" type="line"/>
      <point x="897" y="991"/>
      <point x="762" y="991" type="qcurve" smooth="yes"/>
      <point x="713" y="991"/>
      <point x="686" y="993" type="qcurve"/>
      <point x="698" y="1100"/>
      <point x="700" y="1124" type="qcurve" smooth="yes"/>
      <point x="702" y="1151"/>
      <point x="713" y="1192" type="qcurve" smooth="yes"/>
      <point x="717" y="1204"/>
      <point x="717" y="1225" type="qcurve" smooth="yes"/>
      <point x="717" y="1241"/>
      <point x="713" y="1253" type="qcurve"/>
      <point x="707" y="1266"/>
      <point x="692" y="1266" type="qcurve" smooth="yes"/>
      <point x="690" y="1266"/>
      <point x="633" y="1259" type="qcurve" smooth="yes"/>
      <point x="575" y="1251"/>
      <point x="414" y="1227" type="qcurve"/>
    </contour>
  </outline>
</glyph>
<glyph name="igrave" format="1">
  <advance width="1202"/>
  <unicode hex="0075"/>
  <outline>
    <contour>
      <point x="172" y="983" type="line"/>
      <point x="139" y="829"/>
      <point x="135" y="598" type="qcurve"/>
      <point x="135" y="496"/>
      <point x="176" y="383" type="qcurve"/>
      <point x="215" y="270"/>
      <point x="272" y="174" type="qcurve" smooth="yes"/>
      <point x="330" y="78"/>
      <point x="389" y="18" type="qcurve"/>
      <point x="446" y="-43"/>
      <point x="487" y="-45" type="qcurve"/>
      <point x="569" y="-43"/>
      <point x="649" y="29" type="qcurve" smooth="yes"/>
      <point x="727" y="100"/>
      <point x="786" y="195" type="qcurve"/>
      <point x="788" y="195" type="line"/>
      <point x="784" y="139"/>
      <point x="784" y="76" type="qcurve" smooth="yes"/>
      <point x="784" y="35"/>
      <point x="795" y="4" type="qcurve"/>
      <point x="803" y="-27"/>
      <point x="827" y="-29" type="qcurve"/>
      <point x="879" y="-27"/>
      <point x="1030" y="-10" type="qcurve"/>
      <point x="1065" y="-8"/>
      <point x="1065" y="35" type="qcurve"/>
      <point x="1055" y="252"/>
      <point x="1051" y="504" type="qcurve"/>
      <point x="1049" y="721"/>
      <point x="1102" y="936" type="qcurve" smooth="yes"/>
      <point x="1106" y="956"/>
      <point x="1108" y="975" type="qcurve"/>
      <point x="1108" y="993"/>
      <point x="1104" y="1005" type="qcurve"/>
      <point x="1098" y="1018"/>
      <point x="1083" y="1018" type="qcurve" smooth="yes"/>
      <point x="1081" y="1018"/>
      <point x="1030" y="1014" type="qcurve"/>
      <point x="977" y="1008"/>
      <point x="817" y="983" type="qcurve"/>
      <point x="786" y="838"/>
      <point x="784" y="600" type="qcurve" smooth="yes"/>
      <point x="782" y="367"/>
      <point x="735" y="274" type="qcurve"/>
      <point x="686" y="180"/>
      <point x="635" y="182" type="qcurve"/>
      <point x="598" y="182"/>
      <point x="559" y="229" type="qcurve"/>
      <point x="520" y="272"/>
      <point x="485" y="338" type="qcurve"/>
      <point x="412" y="481"/>
      <point x="410" y="612" type="qcurve"/>
      <point x="410" y="735"/>
      <point x="471" y="938" type="qcurve"/>
      <point x="479" y="960"/>
      <point x="479" y="981" type="qcurve" smooth="yes"/>
      <point x="479" y="999"/>
      <point x="475" y="1012" type="qcurve"/>
      <point x="469" y="1024"/>
      <point x="457" y="1024" type="qcurve" smooth="yes"/>
      <point x="448" y="1024"/>
      <point x="172" y="983" type="qcurve"/>
    </contour>
  </outline>
</glyph>
<glyph name="icircumflex" format="1">
  <advance width="1100"/>
  <unicode hex="0076"/>
  <outline>
    <contour>
      <point x="254" y="997" type="line"/>
      <point x="135" y="811"/>
      <point x="135" y="655" type="qcurve" smooth="yes"/>
      <point x="135" y="561"/>
      <point x="182" y="446" type="qcurve"/>
      <point x="227" y="330"/>
      <point x="291" y="223" type="qcurve"/>
      <point x="356" y="117"/>
      <point x="420" y="49" type="qcurve"/>
      <point x="451" y="14"/>
      <point x="479" y="-4" type="qcurve"/>
      <point x="506" y="-23"/>
      <point x="524" y="-25" type="qcurve"/>
      <point x="631" y="-23"/>
      <point x="717" y="45" type="qcurve" smooth="yes"/>
      <point x="803" y="113"/>
      <point x="868" y="219" type="qcurve"/>
      <point x="1003" y="446"/>
      <point x="1005" y="707" type="qcurve"/>
      <point x="1001" y="862"/>
      <point x="940" y="973" type="qcurve"/>
      <point x="741" y="997" type="line"/>
      <point x="657" y="881" type="line"/>
      <point x="657" y="850" type="line"/>
      <point x="704" y="838"/>
      <point x="731" y="805" type="qcurve"/>
      <point x="758" y="770"/>
      <point x="772" y="721" type="qcurve"/>
      <point x="799" y="618"/>
      <point x="797" y="494" type="qcurve" smooth="yes"/>
      <point x="795" y="350"/>
      <point x="754" y="246" type="qcurve"/>
      <point x="735" y="195"/>
      <point x="713" y="166" type="qcurve" smooth="yes"/>
      <point x="688" y="133"/>
      <point x="666" y="133" type="qcurve" smooth="yes"/>
      <point x="649" y="133"/>
      <point x="608" y="182" type="qcurve"/>
      <point x="567" y="227"/>
      <point x="520" y="305" type="qcurve"/>
      <point x="475" y="383"/>
      <point x="442" y="475" type="qcurve" smooth="yes"/>
      <point x="408" y="569"/>
      <point x="408" y="661" type="qcurve"/>
      <point x="410" y="713"/>
      <point x="444" y="799" type="qcurve" smooth="yes"/>
      <point x="477" y="883"/>
      <point x="510" y="958" type="qcurve"/>
      <point x="496" y="997" type="line"/>
    </contour>
  </outline>
</glyph>
<glyph name="idieresis" format="1">
  <advance width="1634"/>
  <unicode hex="0077"/>
  <outline>
    <contour>
      <point x="244" y="997" type="line"/>
      <point x="219" y="975"/>
      <point x="199" y="928" type="qcurve"/>
      <point x="176" y="881"/>
      <point x="158" y="823" type="qcurve" smooth="yes"/>
      <point x="119" y="704"/>
      <point x="119" y="639" type="qcurve" smooth="yes"/>
      <point x="119" y="629"/>
      <point x="156" y="528" type="qcurve"/>
      <point x="186" y="428"/>
      <point x="240" y="301" type="qcurve" smooth="yes"/>
      <point x="293" y="174"/>
      <point x="356" y="78" type="qcurve"/>
      <point x="387" y="33"/>
      <point x="418" y="4" type="qcurve"/>
      <point x="446" y="-25"/>
      <point x="475" y="-25" type="qcurve" smooth="yes"/>
      <point x="559" y="-23"/>
      <point x="616" y="8" type="qcurve"/>
      <point x="672" y="37"/>
      <point x="709" y="76" type="qcurve" smooth="yes"/>
      <point x="747" y="115"/>
      <point x="774" y="143" type="qcurve"/>
      <point x="786" y="160"/>
      <point x="799" y="168" type="qcurve"/>
      <point x="811" y="174"/>
      <point x="819" y="174" type="qcurve" smooth="yes"/>
      <point x="844" y="172"/>
      <point x="872" y="143" type="qcurve" smooth="yes"/>
      <point x="899" y="115"/>
      <point x="930" y="76" type="qcurve" smooth="yes"/>
      <point x="960" y="37"/>
      <point x="995" y="8" type="qcurve"/>
      <point x="1028" y="-23"/>
      <point x="1059" y="-25" type="qcurve"/>
      <point x="1163" y="-23"/>
      <point x="1249" y="43" type="qcurve"/>
      <point x="1337" y="106"/>
      <point x="1399" y="211" type="qcurve"/>
      <point x="1526" y="432"/>
      <point x="1528" y="680" type="qcurve" smooth="yes"/>
      <point x="1528" y="760"/>
      <point x="1517" y="838" type="qcurve"/>
      <point x="1505" y="915"/>
      <point x="1477" y="973" type="qcurve"/>
      <point x="1278" y="997" type="line"/>
      <point x="1194" y="881" type="line"/>
      <point x="1194" y="850" type="line"/>
      <point x="1237" y="840"/>
      <point x="1266" y="805" type="qcurve"/>
      <point x="1292" y="770"/>
      <point x="1307" y="721" type="qcurve"/>
      <point x="1333" y="618"/>
      <point x="1333" y="494" type="qcurve"/>
      <point x="1331" y="350"/>
      <point x="1290" y="246" type="qcurve"/>
      <point x="1272" y="195"/>
      <point x="1249" y="166" type="qcurve"/>
      <point x="1225" y="133"/>
      <point x="1202" y="133" type="qcurve" smooth="yes"/>
      <point x="1186" y="133"/>
      <point x="1145" y="182" type="qcurve"/>
      <point x="1104" y="227"/>
      <point x="1057" y="303" type="qcurve"/>
      <point x="1012" y="381"/>
      <point x="979" y="473" type="qcurve"/>
      <point x="942" y="565"/>
      <point x="942" y="661" type="qcurve"/>
      <point x="944" y="713"/>
      <point x="979" y="799" type="qcurve"/>
      <point x="1012" y="883"/>
      <point x="1046" y="958" type="qcurve"/>
      <point x="1030" y="997" type="line"/>
      <point x="788" y="997" type="line"/>
      <point x="743" y="926"/>
      <point x="709" y="840" type="qcurve"/>
      <point x="670" y="752"/>
      <point x="670" y="655" type="qcurve" smooth="yes"/>
      <point x="670" y="604"/>
      <point x="686" y="557" type="qcurve"/>
      <point x="698" y="508"/>
      <point x="715" y="463" type="qcurve" smooth="yes"/>
      <point x="731" y="420"/>
      <point x="743" y="379" type="qcurve" smooth="yes"/>
      <point x="756" y="336"/>
      <point x="756" y="295" type="qcurve" smooth="yes"/>
      <point x="756" y="272"/>
      <point x="727" y="209" type="qcurve" smooth="yes"/>
      <point x="713" y="180"/>
      <point x="690" y="158" type="qcurve"/>
      <point x="670" y="133"/>
      <point x="641" y="133" type="qcurve" smooth="yes"/>
      <point x="616" y="133"/>
      <point x="577" y="197" type="qcurve"/>
      <point x="537" y="254"/>
      <point x="500" y="340" type="qcurve" smooth="yes"/>
      <point x="463" y="426"/>
      <point x="436" y="508" type="qcurve"/>
      <point x="405" y="588"/>
      <point x="405" y="633" type="qcurve" smooth="yes"/>
      <point x="405" y="670"/>
      <point x="410" y="707" type="qcurve"/>
      <point x="412" y="739"/>
      <point x="424" y="776" type="qcurve"/>
      <point x="442" y="850"/>
      <point x="516" y="962" type="qcurve"/>
      <point x="496" y="997" type="line"/>
    </contour>
  </outline>
</glyph>
<glyph name="ntilde" format="1">
  <advance width="1087"/>
  <unicode hex="0078"/>
  <outline>
    <contour>
      <point x="33" y="952" type="line"/>
      <point x="109" y="944"/>
      <point x="154" y="881" type="qcurve"/>
      <point x="176" y="852"/>
      <point x="190" y="821" type="qcurve" smooth="yes"/>
      <point x="205" y="786"/>
      <point x="211" y="762" type="qcurve"/>
      <point x="229" y="717"/>
      <point x="276" y="565" type="qcurve" smooth="yes"/>
      <point x="322" y="414"/>
      <point x="373" y="186" type="qcurve"/>
      <point x="156" y="-397"/>
      <point x="4" y="-997" type="qcurve"/>
      <point x="31" y="-1012" type="line"/>
      <point x="111" y="-973" type="line"/>
      <point x="111" y="-903"/>
      <point x="143" y="-788" type="qcurve" smooth="yes"/>
      <point x="176" y="-672"/>
      <point x="225" y="-532" type="qcurve"/>
      <point x="330" y="-244"/>
      <point x="444" y="0" type="qcurve"/>
      <point x="444" y="0" type="line"/>
      <point x="565" y="-430"/>
      <point x="659" y="-666" type="qcurve"/>
      <point x="711" y="-784"/>
      <point x="825" y="-786" type="qcurve"/>
      <point x="995" y="-786" type="line"/>
      <point x="995" y="-723" type="line"/>
      <point x="938" y="-713" type="line"/>
      <point x="926" y="-709"/>
      <point x="913" y="-692" type="qcurve"/>
      <point x="901" y="-680"/>
      <point x="893" y="-663" type="qcurve"/>
      <point x="715" y="-162"/>
      <point x="588" y="362" type="qcurve"/>
      <point x="682" y="618"/>
      <point x="747" y="729" type="qcurve"/>
      <point x="813" y="838"/>
      <point x="872" y="838" type="qcurve"/>
      <point x="907" y="840"/>
      <point x="946" y="764" type="qcurve"/>
      <point x="975" y="764" type="line"/>
      <point x="989" y="844"/>
      <point x="1026" y="897" type="qcurve"/>
      <point x="1063" y="948"/>
      <point x="1079" y="958" type="qcurve"/>
      <point x="1083" y="999" type="line"/>
      <point x="1028" y="1022"/>
      <point x="983" y="1042" type="qcurve"/>
      <point x="934" y="1059"/>
      <point x="889" y="1061" type="qcurve"/>
      <point x="799" y="1059"/>
      <point x="756" y="1016" type="qcurve" smooth="yes"/>
      <point x="713" y="973"/>
      <point x="692" y="919" type="qcurve" smooth="yes"/>
      <point x="532" y="516" type="line"/>
      <point x="532" y="516" type="line"/>
      <point x="457" y="813" type="line"/>
      <point x="416" y="1008"/>
      <point x="268" y="1012" type="qcurve"/>
      <point x="33" y="1012" type="line"/>
    </contour>
  </outline>
</glyph>
<glyph name="ograve" format="1">
  <advance width="1505"/>
  <unicode hex="007A"/>
  <outline>
    <contour>
      <point x="940" y="-1014" type="line"/>
      <point x="977" y="-1038" type="line"/>
      <point x="1034" y="-985"/>
      <point x="1094" y="-915" type="qcurve" smooth="yes"/>
      <point x="1151" y="-848"/>
      <point x="1198" y="-768" type="qcurve" smooth="yes"/>
      <point x="1247" y="-684"/>
      <point x="1278" y="-592" type="qcurve"/>
      <point x="1307" y="-500"/>
      <point x="1307" y="-399" type="qcurve"/>
      <point x="1304" y="-137"/>
      <point x="1149" y="-16" type="qcurve"/>
      <point x="995" y="100"/>
      <point x="727" y="100" type="qcurve" smooth="yes"/>
      <point x="664" y="100"/>
      <point x="623" y="111" type="qcurve"/>
      <point x="580" y="117"/>
      <point x="559" y="129" type="qcurve"/>
      <point x="520" y="156"/>
      <point x="522" y="190" type="qcurve"/>
      <point x="522" y="223"/>
      <point x="545" y="270" type="qcurve"/>
      <point x="569" y="315"/>
      <point x="629" y="362" type="qcurve"/>
      <point x="1329" y="893" type="line"/>
      <point x="1366" y="924"/>
      <point x="1380" y="940" type="qcurve" smooth="yes"/>
      <point x="1395" y="958"/>
      <point x="1395" y="969" type="qcurve"/>
      <point x="1393" y="989"/>
      <point x="1333" y="989" type="qcurve" smooth="yes"/>
      <point x="731" y="989" type="line" smooth="yes"/>
      <point x="637" y="989"/>
      <point x="573" y="950" type="qcurve" smooth="yes"/>
      <point x="504" y="907"/>
      <point x="504" y="819" type="qcurve"/>
      <point x="506" y="778"/>
      <point x="522" y="704" type="qcurve" smooth="yes"/>
      <point x="537" y="631"/>
      <point x="539" y="563" type="qcurve"/>
      <point x="539" y="510"/>
      <point x="514" y="483" type="qcurve"/>
      <point x="334" y="324"/>
      <point x="229" y="209" type="qcurve"/>
      <point x="123" y="96"/>
      <point x="123" y="25" type="qcurve" smooth="yes"/>
      <point x="123" y="-8"/>
      <point x="156" y="-20" type="qcurve"/>
      <point x="182" y="-31"/>
      <point x="215" y="-31" type="qcurve"/>
      <point x="250" y="-29"/>
      <point x="438" y="-14" type="qcurve"/>
      <point x="627" y="0"/>
      <point x="692" y="0" type="qcurve" smooth="yes"/>
      <point x="913" y="-2"/>
      <point x="1003" y="-131" type="qcurve" smooth="yes"/>
      <point x="1092" y="-258"/>
      <point x="1089" y="-455" type="qcurve"/>
      <point x="1092" y="-596"/>
      <point x="1069" y="-729" type="qcurve"/>
      <point x="1042" y="-862"/>
      <point x="940" y="-1014" type="qcurve"/>
    </contour>
    <contour>
      <point x="588" y="539" type="line"/>
      <point x="588" y="539" type="line"/>
      <point x="590" y="592"/>
      <point x="602" y="641" type="qcurve" smooth="yes"/>
      <point x="614" y="688"/>
      <point x="639" y="729" type="qcurve"/>
      <point x="686" y="813"/>
      <point x="817" y="815" type="qcurve"/>
      <point x="960" y="815" type="line"/>
    </contour>
  </outline>
</glyph>
<glyph name="udieresis" format="1">
  <advance width="1266"/>
  <unicode hex="0081"/>
  <unicode hex="0403"/>
  <outline>
    <contour>
      <point x="213" y="1401" type="line"/>
      <point x="168" y="1237"/>
      <point x="168" y="651" type="qcurve"/>
      <point x="166" y="416"/>
      <point x="190" y="59" type="qcurve"/>
      <point x="195" y="20"/>
      <point x="215" y="-2" type="qcurve"/>
      <point x="233" y="-27"/>
      <point x="250" y="-27" type="qcurve" smooth="yes"/>
      <point x="330" y="-23"/>
      <point x="477" y="-4" type="qcurve" smooth="yes"/>
      <point x="524" y="2"/>
      <point x="539" y="18" type="qcurve"/>
      <point x="551" y="35"/>
      <point x="551" y="74" type="qcurve"/>
      <point x="537" y="375"/>
      <point x="528" y="747" type="qcurve"/>
      <point x="526" y="995"/>
      <point x="573" y="1239" type="qcurve"/>
      <point x="586" y="1313"/>
      <point x="631" y="1331" type="qcurve"/>
      <point x="674" y="1347"/>
      <point x="786" y="1347" type="qcurve"/>
      <point x="842" y="1345"/>
      <point x="879" y="1311" type="qcurve"/>
      <point x="915" y="1274"/>
      <point x="938" y="1223" type="qcurve"/>
      <point x="958" y="1173"/>
      <point x="971" y="1135" type="qcurve"/>
      <point x="979" y="1094"/>
      <point x="979" y="1081" type="qcurve"/>
      <point x="1012" y="1081"/>
      <point x="1059" y="1112" type="qcurve"/>
      <point x="1106" y="1141"/>
      <point x="1153" y="1186" type="qcurve"/>
      <point x="1200" y="1233"/>
      <point x="1233" y="1282" type="qcurve" smooth="yes"/>
      <point x="1266" y="1331"/>
      <point x="1266" y="1372" type="qcurve"/>
      <point x="1264" y="1411"/>
      <point x="1223" y="1423" type="qcurve"/>
      <point x="1180" y="1433"/>
      <point x="1135" y="1433" type="qcurve"/>
      <point x="1106" y="1429"/>
      <point x="1018" y="1429" type="qcurve" smooth="yes"/>
      <point x="807" y="1431"/>
      <point x="625" y="1433" type="qcurve"/>
      <point x="379" y="1433"/>
      <point x="213" y="1401" type="qcurve"/>
    </contour>
    <contour>
      <point x="541" y="1477" type="line"/>
      <point x="541" y="1477" type="line"/>
      <point x="684" y="1567"/>
      <point x="795" y="1616" type="qcurve"/>
      <point x="903" y="1665"/>
      <point x="1081" y="1712" type="qcurve" smooth="yes"/>
      <point x="1118" y="1722"/>
      <point x="1118" y="1761" type="qcurve" smooth="yes"/>
      <point x="1118" y="1804"/>
      <point x="1092" y="1845" type="qcurve" smooth="yes"/>
      <point x="1067" y="1884"/>
      <point x="1034" y="1886" type="qcurve"/>
      <point x="950" y="1882"/>
      <point x="803" y="1765" type="qcurve"/>
      <point x="653" y="1651"/>
      <point x="510" y="1528" type="qcurve"/>
    </contour>
  </outline>
</glyph>
<glyph name="dieresis" format="1">
  <advance width="1909"/>
  <unicode hex="008E"/>
  <unicode hex="040b"/>
  <outline>
    <contour>
      <point x="410" y="625" type="line"/>
      <point x="422" y="653" type="line"/>
      <point x="405" y="772"/>
      <point x="405" y="889" type="qcurve" smooth="yes"/>
      <point x="405" y="1040"/>
      <point x="430" y="1196" type="qcurve"/>
      <point x="440" y="1245"/>
      <point x="455" y="1276" type="qcurve"/>
      <point x="467" y="1304"/>
      <point x="485" y="1319" type="qcurve"/>
      <point x="524" y="1345"/>
      <point x="586" y="1343" type="qcurve"/>
      <point x="653" y="1343"/>
      <point x="717" y="1337" type="qcurve"/>
      <point x="756" y="1331"/>
      <point x="774" y="1315" type="qcurve"/>
      <point x="788" y="1296"/>
      <point x="788" y="1282" type="qcurve" smooth="yes"/>
      <point x="786" y="1231"/>
      <point x="750" y="944" type="qcurve"/>
      <point x="711" y="657"/>
      <point x="709" y="455" type="qcurve"/>
      <point x="709" y="145"/>
      <point x="731" y="55" type="qcurve" smooth="yes"/>
      <point x="741" y="14"/>
      <point x="758" y="-4" type="qcurve"/>
      <point x="774" y="-25"/>
      <point x="788" y="-25" type="qcurve"/>
      <point x="807" y="-23"/>
      <point x="885" y="-12" type="qcurve"/>
      <point x="960" y="-4"/>
      <point x="1038" y="0" type="qcurve"/>
      <point x="1083" y="4"/>
      <point x="1085" y="66" type="qcurve"/>
      <point x="1083" y="287"/>
      <point x="1077" y="506" type="qcurve"/>
      <point x="1112" y="522"/>
      <point x="1153" y="537" type="qcurve"/>
      <point x="1194" y="549"/>
      <point x="1235" y="549" type="qcurve"/>
      <point x="1278" y="547"/>
      <point x="1309" y="496" type="qcurve"/>
      <point x="1339" y="442"/>
      <point x="1364" y="360" type="qcurve"/>
      <point x="1409" y="184"/>
      <point x="1429" y="18" type="qcurve"/>
      <point x="1433" y="0"/>
      <point x="1450" y="-6" type="qcurve"/>
      <point x="1466" y="-16"/>
      <point x="1483" y="-16" type="qcurve" smooth="yes"/>
      <point x="1657" y="-10"/>
      <point x="1786" y="-8" type="qcurve"/>
      <point x="1802" y="0" type="line"/>
      <point x="1737" y="674"/>
      <point x="1345" y="684" type="qcurve"/>
      <point x="1264" y="682"/>
      <point x="1075" y="639" type="qcurve"/>
      <point x="1079" y="979"/>
      <point x="1182" y="1315" type="qcurve"/>
      <point x="1218" y="1319"/>
      <point x="1282" y="1319" type="qcurve"/>
      <point x="1378" y="1317"/>
      <point x="1448" y="1259" type="qcurve"/>
      <point x="1513" y="1202"/>
      <point x="1534" y="1124" type="qcurve"/>
      <point x="1550" y="1071"/>
      <point x="1565" y="1036" type="qcurve" smooth="yes"/>
      <point x="1581" y="997"/>
      <point x="1593" y="997" type="qcurve" smooth="yes"/>
      <point x="1634" y="997"/>
      <point x="1681" y="1032" type="qcurve"/>
      <point x="1728" y="1061"/>
      <point x="1765" y="1100" type="qcurve"/>
      <point x="1804" y="1137"/>
      <point x="1818" y="1173" type="qcurve" smooth="yes"/>
      <point x="1833" y="1210"/>
      <point x="1833" y="1286" type="qcurve" smooth="yes"/>
      <point x="1833" y="1370"/>
      <point x="1802" y="1403" type="qcurve"/>
      <point x="1769" y="1431"/>
      <point x="1696" y="1431" type="qcurve"/>
      <point x="889" y="1444"/>
      <point x="354" y="1452" type="qcurve"/>
      <point x="119" y="1454"/>
      <point x="86" y="1231" type="qcurve"/>
      <point x="66" y="1010"/>
      <point x="66" y="782" type="qcurve" smooth="yes"/>
      <point x="66" y="750"/>
      <point x="70" y="715" type="qcurve"/>
      <point x="72" y="680"/>
      <point x="78" y="649" type="qcurve"/>
      <point x="88" y="584"/>
      <point x="133" y="571" type="qcurve"/>
    </contour>
  </outline>
</glyph>
<glyph name="notequal" format="1">
  <advance width="1483"/>
  <unicode hex="008F"/>
  <unicode hex="040f"/>
  <outline>
    <contour>
      <point x="250" y="1380" type="line"/>
      <point x="139" y="905"/>
      <point x="139" y="287" type="qcurve"/>
      <point x="137" y="106"/>
      <point x="158" y="-25" type="qcurve"/>
      <point x="594" y="-25" type="line"/>
      <point x="672" y="-422"/>
      <point x="670" y="-553" type="qcurve"/>
      <point x="670" y="-1071"/>
      <point x="651" y="-1345" type="qcurve"/>
      <point x="754" y="-1386" type="line"/>
      <point x="754" y="-1386" type="line"/>
      <point x="868" y="-614"/>
      <point x="868" y="-231" type="qcurve"/>
      <point x="866" y="-96"/>
      <point x="858" y="-25" type="qcurve"/>
      <point x="1212" y="-25" type="line" smooth="yes"/>
      <point x="1259" y="-25"/>
      <point x="1292" y="-6" type="qcurve" smooth="yes"/>
      <point x="1325" y="14"/>
      <point x="1325" y="80" type="qcurve"/>
      <point x="1309" y="375"/>
      <point x="1300" y="764" type="qcurve"/>
      <point x="1300" y="1051"/>
      <point x="1370" y="1345" type="qcurve" smooth="yes"/>
      <point x="1374" y="1366"/>
      <point x="1376" y="1390" type="qcurve"/>
      <point x="1376" y="1417"/>
      <point x="1370" y="1436" type="qcurve"/>
      <point x="1362" y="1454"/>
      <point x="1343" y="1454" type="qcurve" smooth="yes"/>
      <point x="1341" y="1454"/>
      <point x="1274" y="1448" type="qcurve"/>
      <point x="1204" y="1438"/>
      <point x="985" y="1401" type="qcurve"/>
      <point x="944" y="1225"/>
      <point x="940" y="979" type="qcurve"/>
      <point x="942" y="563"/>
      <point x="956" y="104" type="qcurve"/>
      <point x="537" y="104" type="line"/>
      <point x="537" y="586"/>
      <point x="571" y="846" type="qcurve" smooth="yes"/>
      <point x="604" y="1104"/>
      <point x="641" y="1253" type="qcurve"/>
      <point x="655" y="1325"/>
      <point x="655" y="1339" type="qcurve" smooth="yes"/>
      <point x="655" y="1362"/>
      <point x="643" y="1384" type="qcurve"/>
      <point x="629" y="1405"/>
      <point x="588" y="1407" type="qcurve"/>
      <point x="498" y="1405"/>
      <point x="250" y="1380" type="qcurve"/>
    </contour>
  </outline>
</glyph>
<glyph name="questiondown" format="1">
  <advance width="1311"/>
  <unicode hex="00A2"/>
  <unicode hex="045e"/>
  <outline>
    <contour>
      <point x="74" y="934" type="line"/>
      <point x="156" y="932"/>
      <point x="207" y="897" type="qcurve" smooth="yes"/>
      <point x="233" y="879"/>
      <point x="254" y="846" type="qcurve"/>
      <point x="272" y="813"/>
      <point x="285" y="760" type="qcurve" smooth="yes"/>
      <point x="332" y="580"/>
      <point x="371" y="401" type="qcurve" smooth="yes"/>
      <point x="389" y="315"/>
      <point x="408" y="244" type="qcurve"/>
      <point x="426" y="170"/>
      <point x="442" y="123" type="qcurve"/>
      <point x="461" y="80"/>
      <point x="489" y="53" type="qcurve" smooth="yes"/>
      <point x="516" y="27"/>
      <point x="547" y="14" type="qcurve"/>
      <point x="610" y="-8"/>
      <point x="668" y="-8" type="qcurve"/>
      <point x="700" y="-6"/>
      <point x="700" y="-43" type="qcurve"/>
      <point x="696" y="-117"/>
      <point x="647" y="-358" type="qcurve"/>
      <point x="596" y="-600"/>
      <point x="594" y="-833" type="qcurve" smooth="yes"/>
      <point x="594" y="-919"/>
      <point x="606" y="-1008" type="qcurve"/>
      <point x="680" y="-1008" type="line"/>
      <point x="725" y="-965" type="line"/>
      <point x="696" y="-895"/>
      <point x="692" y="-768" type="qcurve"/>
      <point x="694" y="-625"/>
      <point x="750" y="-410" type="qcurve"/>
      <point x="801" y="-197"/>
      <point x="836" y="-8" type="qcurve"/>
      <point x="913" y="457"/>
      <point x="940" y="659" type="qcurve" smooth="yes"/>
      <point x="948" y="719"/>
      <point x="979" y="768" type="qcurve"/>
      <point x="1008" y="817"/>
      <point x="1057" y="819" type="qcurve" smooth="yes"/>
      <point x="1110" y="821"/>
      <point x="1135" y="760" type="qcurve"/>
      <point x="1157" y="760" type="line"/>
      <point x="1173" y="833"/>
      <point x="1200" y="891" type="qcurve"/>
      <point x="1227" y="946"/>
      <point x="1241" y="956" type="qcurve"/>
      <point x="1245" y="997" type="line"/>
      <point x="1180" y="1024"/>
      <point x="1112" y="1036" type="qcurve"/>
      <point x="1046" y="1044"/>
      <point x="1010" y="1044" type="qcurve" smooth="yes"/>
      <point x="829" y="1042"/>
      <point x="801" y="795" type="qcurve"/>
      <point x="772" y="471"/>
      <point x="735" y="102" type="qcurve"/>
      <point x="704" y="100"/>
      <point x="684" y="131" type="qcurve"/>
      <point x="659" y="162"/>
      <point x="639" y="258" type="qcurve"/>
      <point x="512" y="903" type="line"/>
      <point x="502" y="948"/>
      <point x="444" y="973" type="qcurve"/>
      <point x="387" y="993"/>
      <point x="311" y="993" type="qcurve" smooth="yes"/>
      <point x="74" y="993" type="line"/>
    </contour>
    <contour>
      <point x="1192" y="1341" type="line"/>
      <point x="1202" y="1358"/>
      <point x="1202" y="1384" type="qcurve" smooth="yes"/>
      <point x="1202" y="1448"/>
      <point x="1163" y="1507" type="qcurve"/>
      <point x="1122" y="1567"/>
      <point x="1008" y="1569" type="qcurve" smooth="yes"/>
      <point x="985" y="1569"/>
      <point x="973" y="1563" type="qcurve"/>
      <point x="958" y="1554"/>
      <point x="958" y="1544" type="qcurve" smooth="yes"/>
      <point x="958" y="1520"/>
      <point x="956" y="1497" type="qcurve" smooth="yes"/>
      <point x="954" y="1472"/>
      <point x="942" y="1454" type="qcurve"/>
      <point x="919" y="1413"/>
      <point x="848" y="1413" type="qcurve" smooth="yes"/>
      <point x="786" y="1413"/>
      <point x="553" y="1429" type="qcurve"/>
      <point x="315" y="1444"/>
      <point x="242" y="1446" type="qcurve"/>
      <point x="227" y="1444"/>
      <point x="221" y="1395" type="qcurve" smooth="yes"/>
      <point x="215" y="1343"/>
      <point x="215" y="1309" type="qcurve" smooth="yes"/>
      <point x="215" y="1231"/>
      <point x="268" y="1200" type="qcurve"/>
      <point x="322" y="1171"/>
      <point x="422" y="1171" type="qcurve" smooth="yes"/>
      <point x="461" y="1171"/>
      <point x="475" y="1178" type="qcurve" smooth="yes"/>
      <point x="487" y="1184"/>
      <point x="487" y="1200" type="qcurve"/>
      <point x="481" y="1229"/>
      <point x="477" y="1296" type="qcurve"/>
      <point x="477" y="1378"/>
      <point x="582" y="1374" type="qcurve" smooth="yes"/>
      <point x="645" y="1372"/>
      <point x="836" y="1362" type="qcurve"/>
      <point x="1026" y="1350"/>
      <point x="1192" y="1341" type="qcurve"/>
    </contour>
  </outline>
</glyph>
<glyph name="exclamdown" format="1">
  <advance width="1012"/>
  <unicode hex="00A3"/>
  <unicode hex="0408"/>
  <outline>
    <contour>
      <point x="444" y="-1534" type="line"/>
      <point x="592" y="-1411" type="line"/>
      <point x="698" y="-1081"/>
      <point x="698" y="-569" type="qcurve"/>
      <point x="696" y="-420"/>
      <point x="670" y="-33" type="qcurve"/>
      <point x="643" y="350"/>
      <point x="641" y="797" type="qcurve" smooth="yes"/>
      <point x="641" y="1014"/>
      <point x="666" y="1143" type="qcurve"/>
      <point x="688" y="1270"/>
      <point x="713" y="1341" type="qcurve" smooth="yes"/>
      <point x="721" y="1364"/>
      <point x="721" y="1395" type="qcurve" smooth="yes"/>
      <point x="721" y="1417"/>
      <point x="715" y="1433" type="qcurve"/>
      <point x="704" y="1450"/>
      <point x="686" y="1450" type="qcurve"/>
      <point x="616" y="1444" type="line"/>
      <point x="545" y="1433"/>
      <point x="287" y="1395" type="qcurve"/>
      <point x="274" y="1333"/>
      <point x="260" y="1229" type="qcurve"/>
      <point x="242" y="1120"/>
      <point x="242" y="975" type="qcurve"/>
      <point x="248" y="602"/>
      <point x="344" y="129" type="qcurve"/>
      <point x="438" y="-344"/>
      <point x="444" y="-807" type="qcurve"/>
      <point x="444" y="-1016"/>
      <point x="434" y="-1208" type="qcurve"/>
      <point x="420" y="-1403"/>
      <point x="373" y="-1519" type="qcurve"/>
    </contour>
    <contour>
      <point x="528" y="2074" type="line"/>
      <point x="297" y="2077"/>
      <point x="301" y="1866" type="qcurve"/>
      <point x="301" y="1786"/>
      <point x="350" y="1743" type="qcurve"/>
      <point x="395" y="1698"/>
      <point x="473" y="1698" type="qcurve" smooth="yes"/>
      <point x="776" y="1698"/>
      <point x="780" y="1913" type="qcurve"/>
      <point x="780" y="1970"/>
      <point x="762" y="2003" type="qcurve" smooth="yes"/>
      <point x="743" y="2038"/>
      <point x="709" y="2052" type="qcurve"/>
      <point x="639" y="2077"/>
      <point x="528" y="2074" type="qcurve"/>
    </contour>
  </outline>
</glyph>
<glyph name="Delta" format="1">
  <advance width="1554"/>
  <unicode hex="00A8"/>
  <unicode hex="0401"/>
  <outline>
    <contour>
      <point x="1065" y="1073" type="line"/>
      <point x="1444" y="1147" type="line"/>
      <point x="1442" y="1196"/>
      <point x="1407" y="1255" type="qcurve"/>
      <point x="1368" y="1315"/>
      <point x="1309" y="1370" type="qcurve" smooth="yes"/>
      <point x="1249" y="1427"/>
      <point x="1182" y="1464" type="qcurve"/>
      <point x="1114" y="1499"/>
      <point x="1051" y="1501" type="qcurve"/>
      <point x="889" y="1501"/>
      <point x="764" y="1472" type="qcurve"/>
      <point x="641" y="1440"/>
      <point x="498" y="1372" type="qcurve"/>
      <point x="387" y="1323"/>
      <point x="285" y="1143" type="qcurve"/>
      <point x="176" y="965"/>
      <point x="172" y="700" type="qcurve"/>
      <point x="174" y="395"/>
      <point x="322" y="186" type="qcurve"/>
      <point x="467" y="-27"/>
      <point x="700" y="-31" type="qcurve"/>
      <point x="829" y="-27"/>
      <point x="987" y="72" type="qcurve" smooth="yes"/>
      <point x="1061" y="119"/>
      <point x="1108" y="172" type="qcurve"/>
      <point x="1155" y="223"/>
      <point x="1157" y="272" type="qcurve"/>
      <point x="1157" y="317"/>
      <point x="1112" y="354" type="qcurve"/>
      <point x="1079" y="352"/>
      <point x="1049" y="330" type="qcurve"/>
      <point x="1018" y="303"/>
      <point x="985" y="268" type="qcurve"/>
      <point x="954" y="233"/>
      <point x="915" y="207" type="qcurve"/>
      <point x="876" y="178"/>
      <point x="825" y="178" type="qcurve" smooth="yes"/>
      <point x="715" y="180"/>
      <point x="631" y="276" type="qcurve"/>
      <point x="545" y="369"/>
      <point x="543" y="524" type="qcurve" smooth="yes"/>
      <point x="541" y="620"/>
      <point x="598" y="678" type="qcurve"/>
      <point x="629" y="707"/>
      <point x="680" y="721" type="qcurve" smooth="yes"/>
      <point x="729" y="735"/>
      <point x="807" y="735" type="qcurve" smooth="yes"/>
      <point x="928" y="735"/>
      <point x="977" y="694" type="qcurve" smooth="yes"/>
      <point x="1028" y="651"/>
      <point x="1032" y="571" type="qcurve"/>
      <point x="1386" y="600" type="line"/>
      <point x="1296" y="776"/>
      <point x="1147" y="840" type="qcurve"/>
      <point x="993" y="899"/>
      <point x="807" y="897" type="qcurve" smooth="yes"/>
      <point x="756" y="897"/>
      <point x="688" y="883" type="qcurve" smooth="yes"/>
      <point x="620" y="868"/>
      <point x="577" y="833" type="qcurve"/>
      <point x="539" y="799"/>
      <point x="516" y="799" type="qcurve"/>
      <point x="481" y="801"/>
      <point x="481" y="868" type="qcurve"/>
      <point x="479" y="958"/>
      <point x="545" y="1128" type="qcurve"/>
      <point x="577" y="1204"/>
      <point x="633" y="1259" type="qcurve" smooth="yes"/>
      <point x="688" y="1313"/>
      <point x="770" y="1315" type="qcurve"/>
      <point x="889" y="1313"/>
      <point x="960" y="1245" type="qcurve"/>
      <point x="1030" y="1175"/>
      <point x="1065" y="1073" type="qcurve"/>
    </contour>
    <contour>
      <point x="1145" y="1620" type="line"/>
      <point x="1186" y="1620"/>
      <point x="1235" y="1636" type="qcurve"/>
      <point x="1259" y="1642"/>
      <point x="1278" y="1653" type="qcurve"/>
      <point x="1296" y="1659"/>
      <point x="1307" y="1669" type="qcurve"/>
      <point x="1339" y="1694"/>
      <point x="1358" y="1739" type="qcurve" smooth="yes"/>
      <point x="1376" y="1782"/>
      <point x="1376" y="1880" type="qcurve"/>
      <point x="1374" y="1923"/>
      <point x="1341" y="1939" type="qcurve"/>
      <point x="1307" y="1952"/>
      <point x="1259" y="1952" type="qcurve"/>
      <point x="1180" y="1954"/>
      <point x="1110" y="1921" type="qcurve"/>
      <point x="1079" y="1902"/>
      <point x="1059" y="1866" type="qcurve"/>
      <point x="1036" y="1829"/>
      <point x="1036" y="1771" type="qcurve" smooth="yes"/>
      <point x="1036" y="1687"/>
      <point x="1069" y="1655" type="qcurve"/>
      <point x="1098" y="1620"/>
      <point x="1145" y="1620" type="qcurve"/>
    </contour>
    <contour>
      <point x="614" y="1608" type="line"/>
      <point x="655" y="1608"/>
      <point x="704" y="1624" type="qcurve"/>
      <point x="729" y="1630"/>
      <point x="747" y="1640" type="qcurve"/>
      <point x="766" y="1646"/>
      <point x="776" y="1657" type="qcurve"/>
      <point x="809" y="1681"/>
      <point x="827" y="1726" type="qcurve"/>
      <point x="846" y="1769"/>
      <point x="846" y="1868" type="qcurve"/>
      <point x="844" y="1911"/>
      <point x="811" y="1927" type="qcurve"/>
      <point x="776" y="1939"/>
      <point x="729" y="1939" type="qcurve"/>
      <point x="649" y="1941"/>
      <point x="580" y="1909" type="qcurve"/>
      <point x="549" y="1890"/>
      <point x="528" y="1853" type="qcurve" smooth="yes"/>
      <point x="506" y="1816"/>
      <point x="506" y="1759" type="qcurve" smooth="yes"/>
      <point x="506" y="1675"/>
      <point x="539" y="1642" type="qcurve"/>
      <point x="567" y="1608"/>
      <point x="614" y="1608" type="qcurve"/>
    </contour>
  </outline>
</glyph>
<glyph name="guillemotright" format="1">
  <advance width="1554"/>
  <unicode hex="00AA"/>
  <unicode hex="0404"/>
  <outline>
    <contour>
      <point x="1065" y="1073" type="line"/>
      <point x="1444" y="1147" type="line"/>
      <point x="1442" y="1196"/>
      <point x="1407" y="1255" type="qcurve"/>
      <point x="1368" y="1315"/>
      <point x="1309" y="1370" type="qcurve" smooth="yes"/>
      <point x="1249" y="1427"/>
      <point x="1182" y="1464" type="qcurve"/>
      <point x="1114" y="1499"/>
      <point x="1051" y="1501" type="qcurve"/>
      <point x="889" y="1501"/>
      <point x="764" y="1472" type="qcurve"/>
      <point x="641" y="1440"/>
      <point x="498" y="1372" type="qcurve"/>
      <point x="387" y="1323"/>
      <point x="285" y="1143" type="qcurve"/>
      <point x="176" y="965"/>
      <point x="172" y="700" type="qcurve"/>
      <point x="174" y="395"/>
      <point x="322" y="186" type="qcurve"/>
      <point x="467" y="-27"/>
      <point x="700" y="-31" type="qcurve"/>
      <point x="829" y="-27"/>
      <point x="987" y="72" type="qcurve" smooth="yes"/>
      <point x="1061" y="119"/>
      <point x="1108" y="172" type="qcurve"/>
      <point x="1155" y="223"/>
      <point x="1157" y="272" type="qcurve"/>
      <point x="1157" y="317"/>
      <point x="1112" y="354" type="qcurve"/>
      <point x="1079" y="352"/>
      <point x="1049" y="330" type="qcurve"/>
      <point x="1018" y="303"/>
      <point x="985" y="268" type="qcurve"/>
      <point x="954" y="233"/>
      <point x="915" y="207" type="qcurve"/>
      <point x="876" y="178"/>
      <point x="825" y="178" type="qcurve" smooth="yes"/>
      <point x="715" y="180"/>
      <point x="631" y="276" type="qcurve"/>
      <point x="545" y="369"/>
      <point x="543" y="524" type="qcurve"/>
      <point x="543" y="620"/>
      <point x="580" y="678" type="qcurve" smooth="yes"/>
      <point x="616" y="735"/>
      <point x="698" y="735" type="qcurve" smooth="yes"/>
      <point x="762" y="735"/>
      <point x="817" y="709" type="qcurve"/>
      <point x="872" y="680"/>
      <point x="922" y="643" type="qcurve"/>
      <point x="971" y="608"/>
      <point x="1014" y="580" type="qcurve"/>
      <point x="1057" y="549"/>
      <point x="1087" y="549" type="qcurve" smooth="yes"/>
      <point x="1143" y="549"/>
      <point x="1251" y="559" type="qcurve"/>
      <point x="1276" y="563"/>
      <point x="1300" y="569" type="qcurve"/>
      <point x="1323" y="571"/>
      <point x="1337" y="577" type="qcurve"/>
      <point x="1370" y="586"/>
      <point x="1372" y="604" type="qcurve"/>
      <point x="1378" y="602"/>
      <point x="1112" y="813" type="qcurve"/>
      <point x="1087" y="840"/>
      <point x="1051" y="858" type="qcurve"/>
      <point x="1014" y="874"/>
      <point x="971" y="883" type="qcurve"/>
      <point x="885" y="897"/>
      <point x="807" y="897" type="qcurve" smooth="yes"/>
      <point x="756" y="897"/>
      <point x="688" y="883" type="qcurve" smooth="yes"/>
      <point x="620" y="868"/>
      <point x="577" y="833" type="qcurve"/>
      <point x="539" y="799"/>
      <point x="516" y="799" type="qcurve"/>
      <point x="481" y="801"/>
      <point x="481" y="868" type="qcurve"/>
      <point x="479" y="958"/>
      <point x="545" y="1128" type="qcurve"/>
      <point x="577" y="1204"/>
      <point x="633" y="1259" type="qcurve" smooth="yes"/>
      <point x="688" y="1313"/>
      <point x="770" y="1315" type="qcurve"/>
      <point x="889" y="1313"/>
      <point x="960" y="1245" type="qcurve"/>
      <point x="1030" y="1175"/>
      <point x="1065" y="1073" type="qcurve"/>
    </contour>
  </outline>
</glyph>
<glyph name="ellipsis" format="1">
  <advance width="1407"/>
  <unicode hex="00AB"/>
  <outline>
    <contour>
      <point x="676" y="879" type="line"/>
      <point x="592" y="938" type="line"/>
      <point x="592" y="938" type="line"/>
      <point x="504" y="821"/>
      <point x="416" y="764" type="qcurve"/>
      <point x="328" y="704"/>
      <point x="231" y="649" type="qcurve" smooth="yes"/>
      <point x="215" y="641"/>
      <point x="209" y="641" type="qcurve"/>
      <point x="203" y="643"/>
      <point x="192" y="645" type="qcurve"/>
      <point x="176" y="643"/>
      <point x="164" y="623" type="qcurve"/>
      <point x="86" y="477" type="line"/>
      <point x="221" y="389"/>
      <point x="379" y="258" type="qcurve" smooth="yes"/>
      <point x="455" y="195"/>
      <point x="508" y="141" type="qcurve"/>
      <point x="561" y="84"/>
      <point x="582" y="49" type="qcurve"/>
      <point x="582" y="49" type="line"/>
      <point x="645" y="125"/>
      <point x="707" y="203" type="qcurve"/>
      <point x="715" y="209"/>
      <point x="715" y="219" type="qcurve" smooth="yes"/>
      <point x="715" y="227"/>
      <point x="707" y="233" type="qcurve"/>
      <point x="623" y="328"/>
      <point x="496" y="440" type="qcurve"/>
      <point x="367" y="551"/>
      <point x="309" y="580" type="qcurve"/>
      <point x="405" y="633"/>
      <point x="502" y="690" type="qcurve" smooth="yes"/>
      <point x="594" y="745"/>
      <point x="678" y="844" type="qcurve"/>
    </contour>
    <contour>
      <point x="1253" y="866" type="line"/>
      <point x="1169" y="926" type="line"/>
      <point x="1169" y="926" type="line"/>
      <point x="1081" y="809"/>
      <point x="993" y="752" type="qcurve"/>
      <point x="905" y="692"/>
      <point x="809" y="637" type="qcurve"/>
      <point x="793" y="629"/>
      <point x="786" y="629" type="qcurve"/>
      <point x="780" y="631"/>
      <point x="770" y="633" type="qcurve"/>
      <point x="754" y="631"/>
      <point x="741" y="610" type="qcurve"/>
      <point x="664" y="465" type="line"/>
      <point x="799" y="377"/>
      <point x="956" y="246" type="qcurve" smooth="yes"/>
      <point x="1032" y="182"/>
      <point x="1085" y="129" type="qcurve"/>
      <point x="1139" y="72"/>
      <point x="1159" y="37" type="qcurve"/>
      <point x="1159" y="37" type="line"/>
      <point x="1223" y="113"/>
      <point x="1284" y="190" type="qcurve"/>
      <point x="1292" y="197"/>
      <point x="1292" y="207" type="qcurve" smooth="yes"/>
      <point x="1292" y="215"/>
      <point x="1284" y="221" type="qcurve"/>
      <point x="1200" y="315"/>
      <point x="1073" y="428" type="qcurve"/>
      <point x="944" y="539"/>
      <point x="887" y="567" type="qcurve"/>
      <point x="983" y="620"/>
      <point x="1079" y="678" type="qcurve" smooth="yes"/>
      <point x="1171" y="733"/>
      <point x="1255" y="831" type="qcurve"/>
    </contour>
  </outline>
</glyph>
<glyph name="uni00AD" format="1">
  <advance width="575"/>
  <unicode hex="00AD"/>
  <outline>
    <contour>
      <point x="113" y="444" type="line"/>
      <point x="170" y="430"/>
      <point x="336" y="432" type="qcurve" smooth="yes"/>
      <point x="555" y="434"/>
      <point x="702" y="436" type="qcurve" smooth="yes"/>
      <point x="721" y="436"/>
      <point x="741" y="459" type="qcurve"/>
      <point x="760" y="477"/>
      <point x="776" y="506" type="qcurve" smooth="yes"/>
      <point x="811" y="567"/>
      <point x="813" y="618" type="qcurve"/>
      <point x="813" y="651"/>
      <point x="786" y="653" type="qcurve"/>
      <point x="489" y="655"/>
      <point x="262" y="657" type="qcurve" smooth="yes"/>
      <point x="242" y="657"/>
      <point x="211" y="645" type="qcurve"/>
      <point x="180" y="629"/>
      <point x="168" y="604" type="qcurve"/>
    </contour>
  </outline>
</glyph>
<glyph name="Atilde" format="1">
  <advance width="1106"/>
  <unicode hex="00AE"/>
  <outline>
    <contour>
      <point x="563" y="1347" type="line"/>
      <point x="522" y="1311"/>
      <point x="522" y="1278" type="qcurve" smooth="yes"/>
      <point x="522" y="1268"/>
      <point x="543" y="1218" type="qcurve"/>
      <point x="561" y="1169"/>
      <point x="584" y="1112" type="qcurve" smooth="yes"/>
      <point x="637" y="977"/>
      <point x="647" y="969" type="qcurve"/>
      <point x="795" y="979" type="line" smooth="yes"/>
      <point x="801" y="979"/>
      <point x="801" y="989" type="qcurve" smooth="yes"/>
      <point x="799" y="1032"/>
      <point x="758" y="1126" type="qcurve"/>
      <point x="719" y="1221"/>
      <point x="696" y="1266" type="qcurve"/>
      <point x="684" y="1294"/>
      <point x="664" y="1302" type="qcurve"/>
      <point x="641" y="1309"/>
      <point x="623" y="1309" type="qcurve"/>
      <point x="590" y="1307"/>
      <point x="588" y="1323" type="qcurve"/>
      <point x="623" y="1341"/>
      <point x="692" y="1401" type="qcurve" smooth="yes"/>
      <point x="725" y="1429"/>
      <point x="747" y="1456" type="qcurve" smooth="yes"/>
      <point x="768" y="1483"/>
      <point x="768" y="1501" type="qcurve" smooth="yes"/>
      <point x="768" y="1511"/>
      <point x="758" y="1526" type="qcurve"/>
      <point x="696" y="1526"/>
      <point x="620" y="1528" type="qcurve"/>
      <point x="537" y="1528"/>
      <point x="352" y="1511" type="qcurve"/>
      <point x="305" y="1345"/>
      <point x="305" y="1106" type="qcurve" smooth="yes"/>
      <point x="305" y="1063"/>
      <point x="309" y="1034" type="qcurve"/>
      <point x="311" y="1008"/>
      <point x="311" y="997" type="qcurve" smooth="yes"/>
      <point x="311" y="989"/>
      <point x="317" y="979" type="qcurve" smooth="yes"/>
      <point x="322" y="969"/>
      <point x="342" y="969" type="qcurve" smooth="yes"/>
      <point x="399" y="969"/>
      <point x="436" y="977" type="qcurve" smooth="yes"/>
      <point x="471" y="985"/>
      <point x="473" y="1014" type="qcurve"/>
      <point x="473" y="1079" type="line" smooth="yes"/>
      <point x="473" y="1298"/>
      <point x="496" y="1399" type="qcurve" smooth="yes"/>
      <point x="508" y="1448"/>
      <point x="532" y="1472" type="qcurve" smooth="yes"/>
      <point x="553" y="1493"/>
      <point x="590" y="1493" type="qcurve"/>
      <point x="635" y="1491"/>
      <point x="633" y="1454" type="qcurve"/>
      <point x="633" y="1427"/>
      <point x="612" y="1399" type="qcurve"/>
      <point x="590" y="1372"/>
      <point x="563" y="1347" type="qcurve"/>
    </contour>
    <contour>
      <point x="557" y="1786" type="line"/>
      <point x="330" y="1782"/>
      <point x="180" y="1626" type="qcurve"/>
      <point x="25" y="1470"/>
      <point x="23" y="1237" type="qcurve"/>
      <point x="27" y="1008"/>
      <point x="184" y="856" type="qcurve"/>
      <point x="338" y="700"/>
      <point x="565" y="698" type="qcurve"/>
      <point x="795" y="700"/>
      <point x="944" y="860" type="qcurve"/>
      <point x="1094" y="1014"/>
      <point x="1096" y="1243" type="qcurve"/>
      <point x="1092" y="1477"/>
      <point x="940" y="1630" type="qcurve"/>
      <point x="786" y="1782"/>
      <point x="557" y="1786" type="qcurve"/>
    </contour>
    <contour>
      <point x="645" y="1675" type="line"/>
      <point x="803" y="1673"/>
      <point x="897" y="1567" type="qcurve"/>
      <point x="993" y="1462"/>
      <point x="995" y="1319" type="qcurve"/>
      <point x="991" y="1128"/>
      <point x="836" y="971" type="qcurve"/>
      <point x="684" y="809"/>
      <point x="479" y="805" type="qcurve"/>
      <point x="328" y="807"/>
      <point x="225" y="913" type="qcurve"/>
      <point x="121" y="1018"/>
      <point x="119" y="1163" type="qcurve"/>
      <point x="123" y="1358"/>
      <point x="287" y="1513" type="qcurve"/>
      <point x="446" y="1671"/>
      <point x="645" y="1675" type="qcurve"/>
    </contour>
  </outline>
</glyph>
<glyph name="OE" format="1">
  <advance width="768"/>
  <unicode hex="00B0"/>
  <outline>
    <contour>
      <point x="719" y="725" type="line"/>
      <point x="717" y="858"/>
      <point x="631" y="944" type="qcurve"/>
      <point x="545" y="1028"/>
      <point x="416" y="1030" type="qcurve"/>
      <point x="289" y="1028"/>
      <point x="205" y="942" type="qcurve"/>
      <point x="117" y="856"/>
      <point x="115" y="723" type="qcurve"/>
      <point x="117" y="594"/>
      <point x="207" y="510" type="qcurve"/>
      <point x="293" y="422"/>
      <point x="420" y="420" type="qcurve"/>
      <point x="549" y="422"/>
      <point x="633" y="510" type="qcurve"/>
      <point x="717" y="596"/>
      <point x="719" y="725" type="qcurve"/>
    </contour>
    <contour>
      <point x="635" y="727" type="line"/>
      <point x="633" y="631"/>
      <point x="573" y="563" type="qcurve" smooth="yes"/>
      <point x="512" y="494"/>
      <point x="418" y="494" type="qcurve" smooth="yes"/>
      <point x="326" y="494"/>
      <point x="264" y="563" type="qcurve"/>
      <point x="199" y="627"/>
      <point x="197" y="725" type="qcurve"/>
      <point x="197" y="825"/>
      <point x="262" y="893" type="qcurve" smooth="yes"/>
      <point x="324" y="958"/>
      <point x="414" y="960" type="qcurve"/>
      <point x="508" y="958"/>
      <point x="571" y="895" type="qcurve"/>
      <point x="633" y="827"/>
      <point x="635" y="727" type="qcurve"/>
    </contour>
  </outline>
</glyph>
<glyph name="endash" format="1">
  <advance width="969"/>
  <unicode hex="00B2"/>
  <unicode hex="0406"/>
  <outline>
    <contour>
      <point x="291" y="1395" type="line"/>
      <point x="268" y="1302"/>
      <point x="256" y="1145" type="qcurve"/>
      <point x="242" y="985"/>
      <point x="242" y="651" type="qcurve"/>
      <point x="240" y="416"/>
      <point x="266" y="59" type="qcurve"/>
      <point x="272" y="20"/>
      <point x="295" y="-2" type="qcurve"/>
      <point x="319" y="-27"/>
      <point x="336" y="-27" type="qcurve" smooth="yes"/>
      <point x="346" y="-27"/>
      <point x="383" y="-23" type="qcurve" smooth="yes"/>
      <point x="625" y="0" type="line"/>
      <point x="664" y="6"/>
      <point x="666" y="68" type="qcurve"/>
      <point x="651" y="395"/>
      <point x="643" y="745" type="qcurve"/>
      <point x="641" y="1049"/>
      <point x="719" y="1350" type="qcurve" smooth="yes"/>
      <point x="725" y="1370"/>
      <point x="725" y="1395" type="qcurve" smooth="yes"/>
      <point x="725" y="1417"/>
      <point x="719" y="1433" type="qcurve"/>
      <point x="709" y="1450"/>
      <point x="690" y="1450" type="qcurve"/>
      <point x="620" y="1444" type="line"/>
      <point x="549" y="1433"/>
      <point x="291" y="1395" type="qcurve"/>
    </contour>
  </outline>
</glyph>
<glyph name="emdash" format="1">
  <advance width="633"/>
  <unicode hex="00B3"/>
  <unicode hex="0456"/>
  <outline>
    <contour>
      <point x="195" y="958" type="line"/>
      <point x="186" y="922"/>
      <point x="180" y="876" type="qcurve" smooth="yes"/>
      <point x="174" y="831"/>
      <point x="168" y="768" type="qcurve"/>
      <point x="160" y="645"/>
      <point x="160" y="367" type="qcurve" smooth="yes"/>
      <point x="160" y="190"/>
      <point x="174" y="86" type="qcurve"/>
      <point x="182" y="35"/>
      <point x="195" y="6" type="qcurve"/>
      <point x="207" y="-25"/>
      <point x="223" y="-25" type="qcurve" smooth="yes"/>
      <point x="276" y="-23"/>
      <point x="426" y="-6" type="qcurve" smooth="yes"/>
      <point x="451" y="-4"/>
      <point x="453" y="39" type="qcurve"/>
      <point x="442" y="233"/>
      <point x="438" y="471" type="qcurve"/>
      <point x="436" y="709"/>
      <point x="487" y="919" type="qcurve" smooth="yes"/>
      <point x="491" y="936"/>
      <point x="494" y="960" type="qcurve"/>
      <point x="494" y="977"/>
      <point x="489" y="987" type="qcurve" smooth="yes"/>
      <point x="483" y="997"/>
      <point x="471" y="997" type="qcurve"/>
      <point x="485" y="999"/>
      <point x="195" y="958" type="qcurve"/>
    </contour>
    <contour>
      <point x="328" y="1173" type="line"/>
      <point x="422" y="1175"/>
      <point x="477" y="1212" type="qcurve"/>
      <point x="508" y="1229"/>
      <point x="530" y="1255" type="qcurve"/>
      <point x="541" y="1270"/>
      <point x="547" y="1302" type="qcurve" smooth="yes"/>
      <point x="551" y="1321"/>
      <point x="551" y="1343" type="qcurve" smooth="yes"/>
      <point x="551" y="1393" type="line"/>
      <point x="549" y="1425"/>
      <point x="512" y="1436" type="qcurve"/>
      <point x="473" y="1442"/>
      <point x="432" y="1442" type="qcurve"/>
      <point x="358" y="1444"/>
      <point x="295" y="1417" type="qcurve" smooth="yes"/>
      <point x="229" y="1388"/>
      <point x="227" y="1296" type="qcurve"/>
      <point x="227" y="1227"/>
      <point x="256" y="1200" type="qcurve" smooth="yes"/>
      <point x="285" y="1173"/>
      <point x="328" y="1173" type="qcurve"/>
    </contour>
  </outline>
</glyph>
<glyph name="quotedblleft" format="1">
  <advance width="999"/>
  <unicode hex="00B4"/>
  <unicode hex="0491"/>
  <outline>
    <contour>
      <point x="465" y="1005" type="line"/>
      <point x="342" y="1010"/>
      <point x="197" y="1012" type="qcurve" smooth="yes"/>
      <point x="162" y="1012"/>
      <point x="147" y="989" type="qcurve"/>
      <point x="123" y="932"/>
      <point x="123" y="733" type="qcurve" smooth="yes"/>
      <point x="123" y="395"/>
      <point x="160" y="43" type="qcurve"/>
      <point x="164" y="16"/>
      <point x="180" y="0" type="qcurve" smooth="yes"/>
      <point x="197" y="-18"/>
      <point x="207" y="-18" type="qcurve" smooth="yes"/>
      <point x="256" y="-16"/>
      <point x="403" y="0" type="qcurve"/>
      <point x="438" y="6"/>
      <point x="438" y="43" type="qcurve"/>
      <point x="424" y="258"/>
      <point x="418" y="645" type="qcurve" smooth="yes"/>
      <point x="418" y="707"/>
      <point x="424" y="766" type="qcurve"/>
      <point x="426" y="823"/>
      <point x="438" y="872" type="qcurve"/>
      <point x="448" y="924"/>
      <point x="489" y="936" type="qcurve"/>
      <point x="530" y="944"/>
      <point x="625" y="944" type="qcurve" smooth="yes"/>
      <point x="709" y="944"/>
      <point x="747" y="940" type="qcurve"/>
      <point x="784" y="934"/>
      <point x="821" y="934" type="qcurve" smooth="yes"/>
      <point x="897" y="934"/>
      <point x="940" y="942" type="qcurve" smooth="yes"/>
      <point x="981" y="950"/>
      <point x="981" y="981" type="qcurve"/>
      <point x="979" y="1032"/>
      <point x="903" y="1106" type="qcurve" smooth="yes"/>
      <point x="868" y="1141"/>
      <point x="831" y="1163" type="qcurve"/>
      <point x="790" y="1184"/>
      <point x="754" y="1184" type="qcurve" smooth="yes"/>
      <point x="739" y="1184"/>
      <point x="735" y="1171" type="qcurve"/>
      <point x="729" y="1157"/>
      <point x="729" y="1114" type="qcurve"/>
      <point x="727" y="1051"/>
      <point x="698" y="1028" type="qcurve" smooth="yes"/>
      <point x="670" y="1005"/>
      <point x="631" y="1005" type="qcurve" smooth="yes"/>
    </contour>
  </outline>
</glyph>
<glyph name="quoteright" format="1">
  <advance width="934"/>
  <unicode hex="00B7"/>
  <outline>
    <contour>
      <point x="473" y="690" type="line"/>
      <point x="287" y="690"/>
      <point x="285" y="504" type="qcurve" smooth="yes"/>
      <point x="283" y="322"/>
      <point x="465" y="324" type="qcurve" smooth="yes"/>
      <point x="649" y="326"/>
      <point x="651" y="506" type="qcurve"/>
      <point x="647" y="688"/>
      <point x="473" y="690" type="qcurve"/>
    </contour>
  </outline>
</glyph>
<glyph name="lozenge" format="1">
  <advance width="2265"/>
  <unicode hex="00B9"/>
  <unicode hex="2116"/>
  <outline>
    <contour>
      <point x="985" y="596" type="line"/>
      <point x="786" y="852"/>
      <point x="690" y="995" type="qcurve"/>
      <point x="670" y="1030"/>
      <point x="664" y="1071" type="qcurve" smooth="yes"/>
      <point x="657" y="1112"/>
      <point x="657" y="1141" type="qcurve"/>
      <point x="659" y="1169"/>
      <point x="676" y="1245" type="qcurve"/>
      <point x="690" y="1323"/>
      <point x="692" y="1335" type="qcurve"/>
      <point x="694" y="1405"/>
      <point x="616" y="1407" type="qcurve" smooth="yes"/>
      <point x="586" y="1407"/>
      <point x="485" y="1399" type="qcurve"/>
      <point x="385" y="1390"/>
      <point x="287" y="1380" type="qcurve"/>
      <point x="176" y="905"/>
      <point x="176" y="281" type="qcurve"/>
      <point x="174" y="102"/>
      <point x="195" y="-27" type="qcurve"/>
      <point x="195" y="-27" type="line"/>
      <point x="573" y="18" type="line"/>
      <point x="573" y="248"/>
      <point x="582" y="510" type="qcurve"/>
      <point x="588" y="770"/>
      <point x="608" y="897" type="qcurve"/>
      <point x="608" y="897" type="line"/>
      <point x="768" y="680"/>
      <point x="944" y="434" type="qcurve"/>
      <point x="985" y="367"/>
      <point x="985" y="326" type="qcurve" smooth="yes"/>
      <point x="985" y="260"/>
      <point x="989" y="164" type="qcurve" smooth="yes"/>
      <point x="991" y="125"/>
      <point x="1001" y="72" type="qcurve"/>
      <point x="1008" y="47"/>
      <point x="1018" y="29" type="qcurve"/>
      <point x="1028" y="6"/>
      <point x="1042" y="0" type="qcurve"/>
      <point x="1100" y="-14"/>
      <point x="1159" y="-20" type="qcurve"/>
      <point x="1216" y="-27"/>
      <point x="1257" y="-27" type="qcurve" smooth="yes"/>
      <point x="1307" y="-27"/>
      <point x="1335" y="-4" type="qcurve" smooth="yes"/>
      <point x="1360" y="16"/>
      <point x="1360" y="74" type="qcurve"/>
      <point x="1345" y="422"/>
      <point x="1337" y="750" type="qcurve"/>
      <point x="1337" y="1061"/>
      <point x="1407" y="1345" type="qcurve" smooth="yes"/>
      <point x="1413" y="1368"/>
      <point x="1413" y="1390" type="qcurve" smooth="yes"/>
      <point x="1413" y="1417"/>
      <point x="1407" y="1436" type="qcurve"/>
      <point x="1399" y="1454"/>
      <point x="1380" y="1454" type="qcurve" smooth="yes"/>
      <point x="1378" y="1454"/>
      <point x="1311" y="1448" type="qcurve"/>
      <point x="1241" y="1438"/>
      <point x="1022" y="1401" type="qcurve"/>
      <point x="979" y="1163"/>
      <point x="977" y="979" type="qcurve"/>
      <point x="977" y="776"/>
      <point x="985" y="596" type="qcurve"/>
    </contour>
    <contour>
      <point x="1970" y="1436" type="line"/>
      <point x="1796" y="1378"/>
      <point x="1675" y="1276" type="qcurve"/>
      <point x="1550" y="1173"/>
      <point x="1548" y="977" type="qcurve" smooth="yes"/>
      <point x="1548" y="911"/>
      <point x="1612" y="786" type="qcurve" smooth="yes"/>
      <point x="1642" y="729"/>
      <point x="1685" y="690" type="qcurve"/>
      <point x="1728" y="647"/>
      <point x="1782" y="647" type="qcurve" smooth="yes"/>
      <point x="1816" y="647"/>
      <point x="1855" y="664" type="qcurve" smooth="yes"/>
      <point x="2023" y="737" type="line"/>
      <point x="2124" y="782"/>
      <point x="2179" y="883" type="qcurve"/>
      <point x="2236" y="981"/>
      <point x="2236" y="1106" type="qcurve"/>
      <point x="2230" y="1393"/>
      <point x="1970" y="1436" type="qcurve"/>
    </contour>
    <contour>
      <point x="1954" y="793" type="line"/>
      <point x="1864" y="793"/>
      <point x="1792" y="876" type="qcurve"/>
      <point x="1718" y="958"/>
      <point x="1716" y="1096" type="qcurve"/>
      <point x="1716" y="1169"/>
      <point x="1739" y="1229" type="qcurve"/>
      <point x="1759" y="1288"/>
      <point x="1808" y="1290" type="qcurve"/>
      <point x="2048" y="1286"/>
      <point x="2052" y="958" type="qcurve" smooth="yes"/>
      <point x="2052" y="899"/>
      <point x="2029" y="850" type="qcurve"/>
      <point x="2005" y="795"/>
      <point x="1954" y="793" type="qcurve"/>
    </contour>
  </outline>
</glyph>
<glyph name="ydieresis" format="1">
  <advance width="1069"/>
  <unicode hex="00BA"/>
  <unicode hex="0454"/>
  <outline>
    <contour>
      <point x="704" y="719" type="line"/>
      <point x="971" y="770" type="line"/>
      <point x="967" y="844"/>
      <point x="879" y="928" type="qcurve" smooth="yes"/>
      <point x="838" y="967"/>
      <point x="790" y="991" type="qcurve" smooth="yes"/>
      <point x="741" y="1016"/>
      <point x="694" y="1016" type="qcurve" smooth="yes"/>
      <point x="487" y="1016"/>
      <point x="307" y="928" type="qcurve"/>
      <point x="221" y="879"/>
      <point x="152" y="747" type="qcurve"/>
      <point x="80" y="614"/>
      <point x="78" y="459" type="qcurve"/>
      <point x="80" y="244"/>
      <point x="188" y="100" type="qcurve"/>
      <point x="293" y="-49"/>
      <point x="451" y="-53" type="qcurve"/>
      <point x="539" y="-49"/>
      <point x="649" y="18" type="qcurve"/>
      <point x="700" y="51"/>
      <point x="735" y="88" type="qcurve" smooth="yes"/>
      <point x="768" y="123"/>
      <point x="768" y="158" type="qcurve" smooth="yes"/>
      <point x="768" y="190"/>
      <point x="737" y="215" type="qcurve"/>
      <point x="713" y="215"/>
      <point x="692" y="199" type="qcurve"/>
      <point x="672" y="180"/>
      <point x="649" y="156" type="qcurve"/>
      <point x="629" y="133"/>
      <point x="600" y="115" type="qcurve"/>
      <point x="573" y="94"/>
      <point x="537" y="94" type="qcurve" smooth="yes"/>
      <point x="444" y="96"/>
      <point x="393" y="174" type="qcurve"/>
      <point x="340" y="246"/>
      <point x="340" y="336" type="qcurve" smooth="yes"/>
      <point x="340" y="403"/>
      <point x="367" y="444" type="qcurve"/>
      <point x="391" y="483"/>
      <point x="448" y="483" type="qcurve" smooth="yes"/>
      <point x="489" y="483"/>
      <point x="528" y="463" type="qcurve"/>
      <point x="569" y="444"/>
      <point x="602" y="418" type="qcurve"/>
      <point x="639" y="393"/>
      <point x="670" y="373" type="qcurve"/>
      <point x="698" y="352"/>
      <point x="721" y="352" type="qcurve" smooth="yes"/>
      <point x="780" y="352"/>
      <point x="848" y="360" type="qcurve"/>
      <point x="879" y="367"/>
      <point x="901" y="375" type="qcurve"/>
      <point x="919" y="383"/>
      <point x="919" y="395" type="qcurve"/>
      <point x="924" y="389"/>
      <point x="737" y="537" type="qcurve"/>
      <point x="704" y="567"/>
      <point x="651" y="586" type="qcurve"/>
      <point x="596" y="600"/>
      <point x="532" y="600" type="qcurve" smooth="yes"/>
      <point x="483" y="600"/>
      <point x="436" y="588" type="qcurve" smooth="yes"/>
      <point x="389" y="575"/>
      <point x="360" y="549" type="qcurve" smooth="yes"/>
      <point x="334" y="526"/>
      <point x="319" y="526" type="qcurve"/>
      <point x="297" y="528"/>
      <point x="297" y="575" type="qcurve"/>
      <point x="295" y="639"/>
      <point x="342" y="758" type="qcurve"/>
      <point x="367" y="811"/>
      <point x="405" y="850" type="qcurve" smooth="yes"/>
      <point x="442" y="889"/>
      <point x="498" y="889" type="qcurve"/>
      <point x="580" y="887"/>
      <point x="631" y="840" type="qcurve"/>
      <point x="680" y="793"/>
      <point x="704" y="719" type="qcurve"/>
    </contour>
  </outline>
</glyph>
<glyph name="Ydieresis" format="1">
  <advance width="1395"/>
  <unicode hex="00BB"/>
  <outline>
    <contour>
      <point x="727" y="96" type="line"/>
      <point x="811" y="37" type="line"/>
      <point x="811" y="37" type="line"/>
      <point x="903" y="154"/>
      <point x="991" y="213" type="qcurve"/>
      <point x="1077" y="274"/>
      <point x="1171" y="326" type="qcurve"/>
      <point x="1188" y="334"/>
      <point x="1194" y="334" type="qcurve"/>
      <point x="1200" y="330"/>
      <point x="1210" y="330" type="qcurve" smooth="yes"/>
      <point x="1227" y="330"/>
      <point x="1239" y="352" type="qcurve" smooth="yes"/>
      <point x="1317" y="498" type="line"/>
      <point x="1186" y="590"/>
      <point x="1028" y="721" type="qcurve" smooth="yes"/>
      <point x="952" y="784"/>
      <point x="899" y="840" type="qcurve"/>
      <point x="842" y="893"/>
      <point x="821" y="926" type="qcurve"/>
      <point x="821" y="926" type="line"/>
      <point x="760" y="850"/>
      <point x="696" y="772" type="qcurve"/>
      <point x="688" y="766"/>
      <point x="688" y="756" type="qcurve" smooth="yes"/>
      <point x="688" y="750"/>
      <point x="696" y="741" type="qcurve" smooth="yes"/>
      <point x="780" y="647"/>
      <point x="909" y="539" type="qcurve"/>
      <point x="1038" y="428"/>
      <point x="1094" y="395" type="qcurve"/>
      <point x="997" y="346"/>
      <point x="905" y="291" type="qcurve"/>
      <point x="813" y="233"/>
      <point x="725" y="131" type="qcurve"/>
    </contour>
    <contour>
      <point x="149" y="109" type="line"/>
      <point x="233" y="49" type="line"/>
      <point x="233" y="49" type="line"/>
      <point x="326" y="166"/>
      <point x="414" y="225" type="qcurve"/>
      <point x="500" y="287"/>
      <point x="594" y="338" type="qcurve" smooth="yes"/>
      <point x="610" y="346"/>
      <point x="616" y="346" type="qcurve"/>
      <point x="623" y="342"/>
      <point x="633" y="342" type="qcurve" smooth="yes"/>
      <point x="649" y="342"/>
      <point x="661" y="365" type="qcurve" smooth="yes"/>
      <point x="739" y="510" type="line"/>
      <point x="608" y="602"/>
      <point x="451" y="733" type="qcurve" smooth="yes"/>
      <point x="375" y="797"/>
      <point x="322" y="852" type="qcurve"/>
      <point x="264" y="905"/>
      <point x="244" y="938" type="qcurve"/>
      <point x="244" y="938" type="line"/>
      <point x="182" y="862"/>
      <point x="119" y="784" type="qcurve"/>
      <point x="111" y="778"/>
      <point x="111" y="768" type="qcurve" smooth="yes"/>
      <point x="111" y="762"/>
      <point x="119" y="754" type="qcurve" smooth="yes"/>
      <point x="203" y="659"/>
      <point x="332" y="551" type="qcurve"/>
      <point x="461" y="440"/>
      <point x="516" y="408" type="qcurve"/>
      <point x="420" y="358"/>
      <point x="328" y="303" type="qcurve"/>
      <point x="236" y="246"/>
      <point x="147" y="143" type="qcurve"/>
    </contour>
  </outline>
</glyph>
<glyph name="guilsinglright" format="1">
  <advance width="633"/>
  <unicode hex="00BF"/>
  <unicode hex="0457"/>
  <outline>
    <contour>
      <point x="195" y="958" type="line"/>
      <point x="186" y="922"/>
      <point x="180" y="876" type="qcurve" smooth="yes"/>
      <point x="174" y="831"/>
      <point x="168" y="768" type="qcurve"/>
      <point x="160" y="645"/>
      <point x="160" y="367" type="qcurve" smooth="yes"/>
      <point x="160" y="190"/>
      <point x="174" y="86" type="qcurve"/>
      <point x="182" y="35"/>
      <point x="195" y="6" type="qcurve"/>
      <point x="207" y="-25"/>
      <point x="223" y="-25" type="qcurve" smooth="yes"/>
      <point x="276" y="-23"/>
      <point x="426" y="-6" type="qcurve" smooth="yes"/>
      <point x="451" y="-4"/>
      <point x="453" y="39" type="qcurve"/>
      <point x="442" y="233"/>
      <point x="438" y="471" type="qcurve"/>
      <point x="436" y="709"/>
      <point x="487" y="919" type="qcurve" smooth="yes"/>
      <point x="491" y="936"/>
      <point x="494" y="960" type="qcurve"/>
      <point x="494" y="977"/>
      <point x="489" y="987" type="qcurve" smooth="yes"/>
      <point x="483" y="997"/>
      <point x="471" y="997" type="qcurve"/>
      <point x="485" y="999"/>
      <point x="195" y="958" type="qcurve"/>
    </contour>
    <contour>
      <point x="512" y="1175" type="line"/>
      <point x="590" y="1178"/>
      <point x="637" y="1210" type="qcurve" smooth="yes"/>
      <point x="661" y="1227"/>
      <point x="678" y="1266" type="qcurve"/>
      <point x="690" y="1300"/>
      <point x="690" y="1376" type="qcurve"/>
      <point x="688" y="1401"/>
      <point x="657" y="1409" type="qcurve"/>
      <point x="625" y="1413"/>
      <point x="600" y="1413" type="qcurve" smooth="yes"/>
      <point x="539" y="1413"/>
      <point x="485" y="1390" type="qcurve" smooth="yes"/>
      <point x="430" y="1366"/>
      <point x="428" y="1284" type="qcurve"/>
      <point x="428" y="1225"/>
      <point x="453" y="1200" type="qcurve"/>
      <point x="475" y="1173"/>
      <point x="512" y="1175" type="qcurve"/>
    </contour>
    <contour>
      <point x="109" y="1167" type="line"/>
      <point x="186" y="1169"/>
      <point x="233" y="1202" type="qcurve"/>
      <point x="258" y="1218"/>
      <point x="274" y="1257" type="qcurve"/>
      <point x="287" y="1292"/>
      <point x="287" y="1368" type="qcurve"/>
      <point x="285" y="1393"/>
      <point x="254" y="1401" type="qcurve"/>
      <point x="221" y="1405"/>
      <point x="197" y="1405" type="qcurve" smooth="yes"/>
      <point x="135" y="1405"/>
      <point x="82" y="1382" type="qcurve" smooth="yes"/>
      <point x="27" y="1358"/>
      <point x="25" y="1276" type="qcurve"/>
      <point x="25" y="1216"/>
      <point x="49" y="1192" type="qcurve"/>
      <point x="72" y="1165"/>
      <point x="109" y="1167" type="qcurve"/>
    </contour>
  </outline>
</glyph>
<glyph name="quotedblbase" format="1">
  <advance width="1554"/>
  <unicode hex="00C5"/>
  <unicode hex="0415"/>
  <outline>
    <contour>
      <point x="1065" y="1073" type="line"/>
      <point x="1444" y="1147" type="line"/>
      <point x="1442" y="1196"/>
      <point x="1407" y="1255" type="qcurve"/>
      <point x="1368" y="1315"/>
      <point x="1309" y="1370" type="qcurve" smooth="yes"/>
      <point x="1249" y="1427"/>
      <point x="1182" y="1464" type="qcurve"/>
      <point x="1114" y="1499"/>
      <point x="1051" y="1501" type="qcurve"/>
      <point x="889" y="1501"/>
      <point x="764" y="1472" type="qcurve"/>
      <point x="641" y="1440"/>
      <point x="498" y="1372" type="qcurve"/>
      <point x="387" y="1323"/>
      <point x="285" y="1143" type="qcurve"/>
      <point x="176" y="965"/>
      <point x="172" y="700" type="qcurve"/>
      <point x="174" y="395"/>
      <point x="322" y="186" type="qcurve"/>
      <point x="467" y="-27"/>
      <point x="700" y="-31" type="qcurve"/>
      <point x="829" y="-27"/>
      <point x="987" y="72" type="qcurve" smooth="yes"/>
      <point x="1061" y="119"/>
      <point x="1108" y="172" type="qcurve"/>
      <point x="1155" y="223"/>
      <point x="1157" y="272" type="qcurve"/>
      <point x="1157" y="317"/>
      <point x="1112" y="354" type="qcurve"/>
      <point x="1079" y="352"/>
      <point x="1049" y="330" type="qcurve"/>
      <point x="1018" y="303"/>
      <point x="985" y="268" type="qcurve"/>
      <point x="954" y="233"/>
      <point x="915" y="207" type="qcurve"/>
      <point x="876" y="178"/>
      <point x="825" y="178" type="qcurve" smooth="yes"/>
      <point x="715" y="180"/>
      <point x="631" y="276" type="qcurve"/>
      <point x="545" y="369"/>
      <point x="543" y="524" type="qcurve" smooth="yes"/>
      <point x="541" y="620"/>
      <point x="598" y="678" type="qcurve"/>
      <point x="629" y="707"/>
      <point x="680" y="721" type="qcurve" smooth="yes"/>
      <point x="729" y="735"/>
      <point x="807" y="735" type="qcurve" smooth="yes"/>
      <point x="928" y="735"/>
      <point x="977" y="694" type="qcurve" smooth="yes"/>
      <point x="1028" y="651"/>
      <point x="1032" y="571" type="qcurve"/>
      <point x="1386" y="600" type="line"/>
      <point x="1296" y="776"/>
      <point x="1147" y="840" type="qcurve"/>
      <point x="993" y="899"/>
      <point x="807" y="897" type="qcurve" smooth="yes"/>
      <point x="756" y="897"/>
      <point x="688" y="883" type="qcurve" smooth="yes"/>
      <point x="620" y="868"/>
      <point x="577" y="833" type="qcurve"/>
      <point x="539" y="799"/>
      <point x="516" y="799" type="qcurve"/>
      <point x="481" y="801"/>
      <point x="481" y="868" type="qcurve"/>
      <point x="479" y="958"/>
      <point x="545" y="1128" type="qcurve"/>
      <point x="577" y="1204"/>
      <point x="633" y="1259" type="qcurve" smooth="yes"/>
      <point x="688" y="1313"/>
      <point x="770" y="1315" type="qcurve"/>
      <point x="889" y="1313"/>
      <point x="960" y="1245" type="qcurve"/>
      <point x="1030" y="1175"/>
      <point x="1065" y="1073" type="qcurve"/>
    </contour>
  </outline>
</glyph>
<glyph name="perthousand" format="1">
  <advance width="2124"/>
  <unicode hex="00C6"/>
  <unicode hex="0416"/>
  <outline>
    <contour>
      <point x="979" y="1395" type="line"/>
      <point x="962" y="1311"/>
      <point x="950" y="1147" type="qcurve"/>
      <point x="919" y="1147" type="line"/>
      <point x="809" y="1255"/>
      <point x="702" y="1350" type="qcurve" smooth="yes"/>
      <point x="649" y="1397"/>
      <point x="594" y="1423" type="qcurve" smooth="yes"/>
      <point x="539" y="1450"/>
      <point x="481" y="1450" type="qcurve"/>
      <point x="422" y="1448"/>
      <point x="313" y="1429" type="qcurve"/>
      <point x="313" y="850" type="line"/>
      <point x="434" y="838"/>
      <point x="559" y="774" type="qcurve"/>
      <point x="602" y="774" type="line"/>
      <point x="602" y="926" type="line" smooth="yes"/>
      <point x="602" y="1063"/>
      <point x="612" y="1137" type="qcurve" smooth="yes"/>
      <point x="623" y="1212"/>
      <point x="664" y="1212" type="qcurve"/>
      <point x="756" y="1208"/>
      <point x="844" y="1126" type="qcurve"/>
      <point x="885" y="1092"/>
      <point x="911" y="1057" type="qcurve"/>
      <point x="936" y="1020"/>
      <point x="936" y="993" type="qcurve"/>
      <point x="938" y="952"/>
      <point x="922" y="924" type="qcurve"/>
      <point x="901" y="893"/>
      <point x="819" y="848" type="qcurve"/>
      <point x="537" y="709"/>
      <point x="391" y="543" type="qcurve" smooth="yes"/>
      <point x="244" y="377"/>
      <point x="131" y="0" type="qcurve"/>
      <point x="162" y="-27" type="line"/>
      <point x="532" y="-27" type="line"/>
      <point x="590" y="223"/>
      <point x="682" y="471" type="qcurve"/>
      <point x="729" y="590"/>
      <point x="786" y="678" type="qcurve"/>
      <point x="846" y="764"/>
      <point x="915" y="797" type="qcurve"/>
      <point x="936" y="788" type="line"/>
      <point x="936" y="451" type="line"/>
      <point x="938" y="295"/>
      <point x="956" y="59" type="qcurve"/>
      <point x="965" y="10"/>
      <point x="999" y="0" type="qcurve"/>
      <point x="1128" y="-25"/>
      <point x="1216" y="-27" type="qcurve"/>
      <point x="1266" y="-27"/>
      <point x="1292" y="-4" type="qcurve" smooth="yes"/>
      <point x="1317" y="18"/>
      <point x="1317" y="76" type="qcurve" smooth="yes"/>
      <point x="1313" y="326"/>
      <point x="1298" y="643" type="qcurve"/>
      <point x="1298" y="643" type="line"/>
      <point x="1395" y="557"/>
      <point x="1499" y="358" type="qcurve"/>
      <point x="1601" y="158"/>
      <point x="1638" y="2" type="qcurve"/>
      <point x="1988" y="-27" type="line"/>
      <point x="2013" y="0" type="line"/>
      <point x="1921" y="299"/>
      <point x="1802" y="479" type="qcurve" smooth="yes"/>
      <point x="1683" y="659"/>
      <point x="1567" y="758" type="qcurve"/>
      <point x="1511" y="809"/>
      <point x="1464" y="846" type="qcurve"/>
      <point x="1415" y="881"/>
      <point x="1376" y="907" type="qcurve"/>
      <point x="1339" y="934"/>
      <point x="1319" y="958" type="qcurve"/>
      <point x="1296" y="979"/>
      <point x="1296" y="999" type="qcurve" smooth="yes"/>
      <point x="1296" y="1051"/>
      <point x="1350" y="1094" type="qcurve"/>
      <point x="1401" y="1132"/>
      <point x="1485" y="1178" type="qcurve"/>
      <point x="1530" y="1204"/>
      <point x="1565" y="1204" type="qcurve" smooth="yes"/>
      <point x="1612" y="1204"/>
      <point x="1657" y="1139" type="qcurve"/>
      <point x="1759" y="979" type="line"/>
      <point x="1802" y="979" type="line"/>
      <point x="1886" y="1173"/>
      <point x="2023" y="1292" type="qcurve"/>
      <point x="1945" y="1384"/>
      <point x="1894" y="1419" type="qcurve"/>
      <point x="1843" y="1450"/>
      <point x="1796" y="1450" type="qcurve" smooth="yes"/>
      <point x="1763" y="1450"/>
      <point x="1735" y="1440" type="qcurve" smooth="yes"/>
      <point x="1706" y="1429"/>
      <point x="1694" y="1419" type="qcurve"/>
      <point x="1319" y="1169" type="line"/>
      <point x="1319" y="1169" type="line"/>
      <point x="1327" y="1212"/>
      <point x="1343" y="1276" type="qcurve"/>
      <point x="1360" y="1339"/>
      <point x="1362" y="1390" type="qcurve"/>
      <point x="1362" y="1448"/>
      <point x="1321" y="1450" type="qcurve"/>
      <point x="1288" y="1448"/>
      <point x="979" y="1395" type="qcurve"/>
    </contour>
  </outline>
</glyph>
<glyph name="Acircumflex" format="1">
  <advance width="1939"/>
  <unicode hex="00C7"/>
  <unicode hex="0417"/>
  <outline>
    <contour>
      <point x="250" y="840" type="line"/>
      <point x="594" y="874" type="line"/>
      <point x="586" y="926"/>
      <point x="586" y="973" type="qcurve" smooth="yes"/>
      <point x="588" y="1341"/>
      <point x="1028" y="1339" type="qcurve"/>
      <point x="1126" y="1337"/>
      <point x="1206" y="1278" type="qcurve" smooth="yes"/>
      <point x="1286" y="1218"/>
      <point x="1341" y="1120" type="qcurve"/>
      <point x="1458" y="917"/>
      <point x="1460" y="717" type="qcurve" smooth="yes"/>
      <point x="1460" y="666"/>
      <point x="1440" y="612" type="qcurve"/>
      <point x="1417" y="557"/>
      <point x="1382" y="506" type="qcurve"/>
      <point x="1352" y="459"/>
      <point x="1319" y="428" type="qcurve"/>
      <point x="1286" y="395"/>
      <point x="1264" y="395" type="qcurve" smooth="yes"/>
      <point x="1198" y="395"/>
      <point x="1159" y="414" type="qcurve"/>
      <point x="1118" y="430"/>
      <point x="1092" y="453" type="qcurve"/>
      <point x="1065" y="475"/>
      <point x="1034" y="494" type="qcurve"/>
      <point x="1001" y="510"/>
      <point x="954" y="510" type="qcurve" smooth="yes"/>
      <point x="905" y="510"/>
      <point x="856" y="504" type="qcurve"/>
      <point x="803" y="496"/>
      <point x="760" y="471" type="qcurve"/>
      <point x="717" y="451"/>
      <point x="690" y="408" type="qcurve"/>
      <point x="661" y="365"/>
      <point x="661" y="301" type="qcurve" smooth="yes"/>
      <point x="661" y="276"/>
      <point x="682" y="248" type="qcurve"/>
      <point x="698" y="217"/>
      <point x="727" y="188" type="qcurve"/>
      <point x="756" y="162"/>
      <point x="786" y="145" type="qcurve"/>
      <point x="815" y="125"/>
      <point x="838" y="125" type="qcurve" smooth="yes"/>
      <point x="895" y="127"/>
      <point x="952" y="147" type="qcurve" smooth="yes"/>
      <point x="1008" y="166"/>
      <point x="1073" y="168" type="qcurve" smooth="yes"/>
      <point x="1184" y="170"/>
      <point x="1235" y="100" type="qcurve"/>
      <point x="1286" y="27"/>
      <point x="1286" y="-162" type="qcurve"/>
      <point x="1282" y="-315"/>
      <point x="1204" y="-440" type="qcurve"/>
      <point x="1169" y="-500"/>
      <point x="1135" y="-534" type="qcurve" smooth="yes"/>
      <point x="1098" y="-571"/>
      <point x="1073" y="-573" type="qcurve"/>
      <point x="1026" y="-571"/>
      <point x="954" y="-516" type="qcurve"/>
      <point x="883" y="-465"/>
      <point x="790" y="-397" type="qcurve"/>
      <point x="700" y="-328"/>
      <point x="596" y="-276" type="qcurve"/>
      <point x="487" y="-223"/>
      <point x="371" y="-223" type="qcurve"/>
      <point x="287" y="-225"/>
      <point x="186" y="-291" type="qcurve"/>
      <point x="84" y="-356"/>
      <point x="20" y="-432" type="qcurve"/>
      <point x="47" y="-481" type="line"/>
      <point x="47" y="-481" type="line"/>
      <point x="94" y="-451"/>
      <point x="158" y="-434" type="qcurve"/>
      <point x="221" y="-420"/>
      <point x="264" y="-420" type="qcurve" smooth="yes"/>
      <point x="326" y="-420"/>
      <point x="393" y="-483" type="qcurve"/>
      <point x="461" y="-545"/>
      <point x="534" y="-625" type="qcurve"/>
      <point x="608" y="-704"/>
      <point x="686" y="-766" type="qcurve" smooth="yes"/>
      <point x="725" y="-797"/>
      <point x="762" y="-813" type="qcurve"/>
      <point x="799" y="-831"/>
      <point x="836" y="-833" type="qcurve"/>
      <point x="962" y="-831"/>
      <point x="1151" y="-715" type="qcurve"/>
      <point x="1454" y="-520" type="line" smooth="yes"/>
      <point x="1507" y="-485"/>
      <point x="1540" y="-416" type="qcurve"/>
      <point x="1575" y="-346"/>
      <point x="1595" y="-266" type="qcurve"/>
      <point x="1632" y="-96"/>
      <point x="1632" y="-25" type="qcurve" smooth="yes"/>
      <point x="1632" y="74"/>
      <point x="1599" y="133" type="qcurve" smooth="yes"/>
      <point x="1567" y="192"/>
      <point x="1522" y="225" type="qcurve"/>
      <point x="1481" y="258"/>
      <point x="1448" y="279" type="qcurve"/>
      <point x="1433" y="291"/>
      <point x="1423" y="301" type="qcurve"/>
      <point x="1411" y="311"/>
      <point x="1411" y="319" type="qcurve" smooth="yes"/>
      <point x="1413" y="350"/>
      <point x="1479" y="385" type="qcurve" smooth="yes"/>
      <point x="1540" y="418"/>
      <point x="1624" y="469" type="qcurve" smooth="yes"/>
      <point x="1708" y="520"/>
      <point x="1769" y="602" type="qcurve" smooth="yes"/>
      <point x="1831" y="684"/>
      <point x="1833" y="807" type="qcurve"/>
      <point x="1827" y="1116"/>
      <point x="1579" y="1282" type="qcurve" smooth="yes"/>
      <point x="1335" y="1446"/>
      <point x="1030" y="1448" type="qcurve" smooth="yes"/>
      <point x="704" y="1450"/>
      <point x="483" y="1323" type="qcurve" smooth="yes"/>
      <point x="254" y="1192"/>
      <point x="250" y="840" type="qcurve"/>
    </contour>
  </outline>
</glyph>
<glyph name="Ecircumflex" format="1">
  <advance width="1538"/>
  <unicode hex="00C8"/>
  <unicode hex="0418"/>
  <outline>
    <contour>
      <point x="279" y="1380" type="line"/>
      <point x="168" y="905"/>
      <point x="168" y="281" type="qcurve"/>
      <point x="166" y="102"/>
      <point x="186" y="-27" type="qcurve"/>
      <point x="186" y="-27" type="line"/>
      <point x="565" y="18" type="line"/>
      <point x="565" y="418"/>
      <point x="573" y="571" type="qcurve"/>
      <point x="907" y="780" type="line"/>
      <point x="926" y="790"/>
      <point x="936" y="790" type="qcurve" smooth="yes"/>
      <point x="975" y="790"/>
      <point x="977" y="727" type="qcurve"/>
      <point x="977" y="297" type="line" smooth="yes"/>
      <point x="977" y="152"/>
      <point x="991" y="82" type="qcurve"/>
      <point x="1003" y="8"/>
      <point x="1034" y="0" type="qcurve" smooth="yes"/>
      <point x="1092" y="-14"/>
      <point x="1151" y="-20" type="qcurve"/>
      <point x="1208" y="-27"/>
      <point x="1249" y="-27" type="qcurve" smooth="yes"/>
      <point x="1298" y="-27"/>
      <point x="1327" y="-4" type="qcurve" smooth="yes"/>
      <point x="1352" y="16"/>
      <point x="1352" y="74" type="qcurve"/>
      <point x="1337" y="422"/>
      <point x="1329" y="750" type="qcurve"/>
      <point x="1329" y="1061"/>
      <point x="1399" y="1345" type="qcurve" smooth="yes"/>
      <point x="1405" y="1368"/>
      <point x="1405" y="1390" type="qcurve" smooth="yes"/>
      <point x="1405" y="1417"/>
      <point x="1399" y="1436" type="qcurve"/>
      <point x="1390" y="1454"/>
      <point x="1372" y="1454" type="qcurve" smooth="yes"/>
      <point x="1370" y="1454"/>
      <point x="1302" y="1448" type="qcurve"/>
      <point x="1233" y="1438"/>
      <point x="1014" y="1401" type="qcurve"/>
      <point x="997" y="1323"/>
      <point x="985" y="1182" type="qcurve"/>
      <point x="969" y="1040"/>
      <point x="969" y="979" type="qcurve"/>
      <point x="825" y="870"/>
      <point x="735" y="811" type="qcurve"/>
      <point x="690" y="780"/>
      <point x="659" y="766" type="qcurve"/>
      <point x="629" y="747"/>
      <point x="612" y="747" type="qcurve"/>
      <point x="588" y="745"/>
      <point x="588" y="797" type="qcurve"/>
      <point x="590" y="870"/>
      <point x="637" y="1077" type="qcurve"/>
      <point x="655" y="1173"/>
      <point x="672" y="1247" type="qcurve"/>
      <point x="684" y="1321"/>
      <point x="684" y="1339" type="qcurve" smooth="yes"/>
      <point x="684" y="1362"/>
      <point x="672" y="1384" type="qcurve"/>
      <point x="657" y="1405"/>
      <point x="616" y="1407" type="qcurve"/>
      <point x="526" y="1405"/>
      <point x="279" y="1380" type="qcurve"/>
    </contour>
  </outline>
</glyph>
<glyph name="Egrave" format="1">
  <advance width="1259"/>
  <unicode hex="00CB"/>
  <unicode hex="041b"/>
  <outline>
    <contour>
      <point x="954" y="1411" type="line"/>
      <point x="913" y="1423"/>
      <point x="815" y="1427" type="qcurve"/>
      <point x="717" y="1429"/>
      <point x="631" y="1429" type="qcurve"/>
      <point x="573" y="1427"/>
      <point x="577" y="1304" type="qcurve"/>
      <point x="577" y="1245"/>
      <point x="586" y="1184" type="qcurve"/>
      <point x="590" y="1122"/>
      <point x="590" y="1085" type="qcurve"/>
      <point x="588" y="1020"/>
      <point x="510" y="901" type="qcurve"/>
      <point x="432" y="780"/>
      <point x="330" y="625" type="qcurve"/>
      <point x="227" y="473"/>
      <point x="149" y="307" type="qcurve" smooth="yes"/>
      <point x="70" y="141"/>
      <point x="68" y="-14" type="qcurve"/>
      <point x="84" y="-27" type="line"/>
      <point x="424" y="0" type="line" smooth="yes"/>
      <point x="471" y="4"/>
      <point x="487" y="12" type="qcurve"/>
      <point x="500" y="20"/>
      <point x="500" y="45" type="qcurve" smooth="yes"/>
      <point x="498" y="113"/>
      <point x="469" y="178" type="qcurve"/>
      <point x="438" y="244"/>
      <point x="436" y="307" type="qcurve"/>
      <point x="438" y="463"/>
      <point x="498" y="590" type="qcurve"/>
      <point x="524" y="653"/>
      <point x="549" y="690" type="qcurve"/>
      <point x="571" y="725"/>
      <point x="588" y="725" type="qcurve" smooth="yes"/>
      <point x="604" y="725"/>
      <point x="610" y="698" type="qcurve" smooth="yes"/>
      <point x="745" y="98" type="line"/>
      <point x="764" y="27"/>
      <point x="799" y="8" type="qcurve" smooth="yes"/>
      <point x="829" y="-8"/>
      <point x="876" y="-8" type="qcurve"/>
      <point x="940" y="-6"/>
      <point x="1098" y="2" type="qcurve"/>
      <point x="1145" y="6"/>
      <point x="1159" y="23" type="qcurve" smooth="yes"/>
      <point x="1171" y="39"/>
      <point x="1171" y="55" type="qcurve" smooth="yes"/>
      <point x="1169" y="88"/>
      <point x="1135" y="149" type="qcurve"/>
      <point x="1073" y="291"/>
      <point x="1016" y="506" type="qcurve"/>
      <point x="956" y="717"/>
      <point x="954" y="897" type="qcurve"/>
    </contour>
  </outline>
</glyph>
<glyph name="Idieresis" format="1">
  <advance width="1431"/>
  <unicode hex="00CE"/>
  <unicode hex="041e"/>
  <outline>
    <contour>
      <point x="854" y="1501" type="line"/>
      <point x="549" y="1390"/>
      <point x="340" y="1192" type="qcurve"/>
      <point x="123" y="991"/>
      <point x="119" y="610" type="qcurve"/>
      <point x="119" y="485"/>
      <point x="231" y="244" type="qcurve"/>
      <point x="285" y="133"/>
      <point x="358" y="55" type="qcurve" smooth="yes"/>
      <point x="432" y="-25"/>
      <point x="524" y="-27" type="qcurve"/>
      <point x="582" y="-27"/>
      <point x="651" y="4" type="qcurve"/>
      <point x="948" y="147" type="line"/>
      <point x="1309" y="324"/>
      <point x="1317" y="860" type="qcurve"/>
      <point x="1307" y="1415"/>
      <point x="854" y="1501" type="qcurve"/>
    </contour>
    <contour>
      <point x="823" y="254" type="line"/>
      <point x="666" y="256"/>
      <point x="545" y="418" type="qcurve"/>
      <point x="418" y="575"/>
      <point x="414" y="842" type="qcurve"/>
      <point x="414" y="983"/>
      <point x="451" y="1098" type="qcurve" smooth="yes"/>
      <point x="469" y="1155"/>
      <point x="500" y="1186" type="qcurve"/>
      <point x="530" y="1218"/>
      <point x="571" y="1218" type="qcurve" smooth="yes"/>
      <point x="989" y="1208"/>
      <point x="995" y="575" type="qcurve"/>
      <point x="995" y="465"/>
      <point x="954" y="362" type="qcurve"/>
      <point x="934" y="315"/>
      <point x="903" y="287" type="qcurve"/>
      <point x="870" y="254"/>
      <point x="823" y="254" type="qcurve"/>
    </contour>
  </outline>
</glyph>
<glyph name="Ugrave" format="1">
  <advance width="1628"/>
  <unicode hex="00D6"/>
  <unicode hex="0426"/>
  <outline>
    <contour>
      <point x="279" y="1380" type="line"/>
      <point x="168" y="905"/>
      <point x="168" y="287" type="qcurve"/>
      <point x="166" y="106"/>
      <point x="186" y="-25" type="qcurve"/>
      <point x="1182" y="-25" type="line"/>
      <point x="1304" y="-23"/>
      <point x="1343" y="-127" type="qcurve"/>
      <point x="1382" y="-238"/>
      <point x="1380" y="-504" type="qcurve"/>
      <point x="1380" y="-1022"/>
      <point x="1362" y="-1296" type="qcurve"/>
      <point x="1464" y="-1337" type="line"/>
      <point x="1464" y="-1337" type="line"/>
      <point x="1487" y="-1210"/>
      <point x="1532" y="-831" type="qcurve" smooth="yes"/>
      <point x="1577" y="-455"/>
      <point x="1579" y="-182" type="qcurve" smooth="yes"/>
      <point x="1579" y="-53"/>
      <point x="1569" y="20" type="qcurve"/>
      <point x="1556" y="96"/>
      <point x="1503" y="109" type="qcurve" smooth="yes"/>
      <point x="1350" y="149" type="line"/>
      <point x="1327" y="709"/>
      <point x="1329" y="764" type="qcurve"/>
      <point x="1329" y="1051"/>
      <point x="1399" y="1345" type="qcurve" smooth="yes"/>
      <point x="1403" y="1366"/>
      <point x="1405" y="1390" type="qcurve"/>
      <point x="1405" y="1417"/>
      <point x="1399" y="1436" type="qcurve"/>
      <point x="1390" y="1454"/>
      <point x="1372" y="1454" type="qcurve" smooth="yes"/>
      <point x="1370" y="1454"/>
      <point x="1302" y="1448" type="qcurve"/>
      <point x="1233" y="1438"/>
      <point x="1014" y="1401" type="qcurve"/>
      <point x="973" y="1225"/>
      <point x="969" y="979" type="qcurve"/>
      <point x="971" y="563"/>
      <point x="985" y="104" type="qcurve"/>
      <point x="565" y="104" type="line"/>
      <point x="565" y="586"/>
      <point x="600" y="846" type="qcurve"/>
      <point x="633" y="1104"/>
      <point x="670" y="1253" type="qcurve"/>
      <point x="684" y="1325"/>
      <point x="684" y="1339" type="qcurve" smooth="yes"/>
      <point x="684" y="1362"/>
      <point x="672" y="1384" type="qcurve"/>
      <point x="657" y="1405"/>
      <point x="616" y="1407" type="qcurve"/>
      <point x="526" y="1405"/>
      <point x="279" y="1380" type="qcurve"/>
    </contour>
  </outline>
</glyph>
<glyph name="dotlessi" format="1">
  <advance width="1237"/>
  <unicode hex="00D7"/>
  <unicode hex="0427"/>
  <outline>
    <contour>
      <point x="66" y="1427" type="line"/>
      <point x="98" y="1333"/>
      <point x="123" y="1233" type="qcurve"/>
      <point x="149" y="1135"/>
      <point x="186" y="1046" type="qcurve"/>
      <point x="227" y="958"/>
      <point x="303" y="905" type="qcurve"/>
      <point x="379" y="848"/>
      <point x="508" y="848" type="qcurve" smooth="yes"/>
      <point x="539" y="848"/>
      <point x="567" y="852" type="qcurve" smooth="yes"/>
      <point x="594" y="856"/>
      <point x="612" y="856" type="qcurve" smooth="yes"/>
      <point x="657" y="858"/>
      <point x="659" y="803" type="qcurve"/>
      <point x="657" y="774"/>
      <point x="627" y="580" type="qcurve" smooth="yes"/>
      <point x="596" y="385"/>
      <point x="575" y="0" type="qcurve"/>
      <point x="967" y="0" type="line"/>
      <point x="950" y="156"/>
      <point x="950" y="311" type="qcurve"/>
      <point x="958" y="1053"/>
      <point x="1188" y="1427" type="qcurve"/>
      <point x="962" y="1427" type="line" smooth="yes"/>
      <point x="844" y="1427"/>
      <point x="805" y="1423" type="qcurve" smooth="yes"/>
      <point x="784" y="1421"/>
      <point x="772" y="1417" type="qcurve"/>
      <point x="760" y="1411"/>
      <point x="754" y="1401" type="qcurve"/>
      <point x="747" y="1380"/>
      <point x="737" y="1266" type="qcurve"/>
      <point x="725" y="1151"/>
      <point x="711" y="1059" type="qcurve"/>
      <point x="702" y="1026"/>
      <point x="680" y="1010" type="qcurve"/>
      <point x="657" y="991"/>
      <point x="633" y="991" type="qcurve" smooth="yes"/>
      <point x="594" y="991"/>
      <point x="565" y="1040" type="qcurve"/>
      <point x="534" y="1085"/>
      <point x="514" y="1153" type="qcurve" smooth="yes"/>
      <point x="473" y="1300"/>
      <point x="451" y="1427" type="qcurve"/>
    </contour>
  </outline>
</glyph>
<glyph name="dotaccent" format="1">
  <advance width="1280"/>
  <unicode hex="00DC"/>
  <unicode hex="042c"/>
  <outline>
    <contour>
      <point x="557" y="1433" type="line"/>
      <point x="502" y="1433"/>
      <point x="446" y="1427" type="qcurve"/>
      <point x="389" y="1417"/>
      <point x="358" y="1380" type="qcurve"/>
      <point x="338" y="1350"/>
      <point x="326" y="1288" type="qcurve"/>
      <point x="311" y="1225"/>
      <point x="301" y="1169" type="qcurve" smooth="yes"/>
      <point x="264" y="958"/>
      <point x="219" y="635" type="qcurve"/>
      <point x="172" y="309"/>
      <point x="170" y="172" type="qcurve" smooth="yes"/>
      <point x="170" y="115"/>
      <point x="182" y="80" type="qcurve" smooth="yes"/>
      <point x="195" y="43"/>
      <point x="213" y="23" type="qcurve"/>
      <point x="252" y="-12"/>
      <point x="311" y="-10" type="qcurve"/>
      <point x="338" y="-8"/>
      <point x="371" y="-4" type="qcurve" smooth="yes"/>
      <point x="401" y="0"/>
      <point x="410" y="0" type="qcurve" smooth="yes"/>
      <point x="1116" y="0" type="line" smooth="yes"/>
      <point x="1208" y="0"/>
      <point x="1212" y="123" type="qcurve"/>
      <point x="1210" y="176"/>
      <point x="1128" y="448" type="qcurve"/>
      <point x="1087" y="571"/>
      <point x="1032" y="661" type="qcurve" smooth="yes"/>
      <point x="1003" y="707"/>
      <point x="973" y="731" type="qcurve" smooth="yes"/>
      <point x="942" y="756"/>
      <point x="907" y="756" type="qcurve" smooth="yes"/>
      <point x="881" y="756"/>
      <point x="850" y="737" type="qcurve" smooth="yes"/>
      <point x="598" y="590" type="line"/>
      <point x="584" y="612"/>
      <point x="584" y="641" type="qcurve" smooth="yes"/>
      <point x="584" y="709"/>
      <point x="637" y="971" type="qcurve"/>
      <point x="666" y="1094"/>
      <point x="704" y="1206" type="qcurve"/>
      <point x="745" y="1319"/>
      <point x="797" y="1380" type="qcurve"/>
      <point x="799" y="1425"/>
      <point x="760" y="1425" type="qcurve"/>
      <point x="657" y="1433"/>
      <point x="557" y="1433" type="qcurve"/>
    </contour>
    <contour>
      <point x="684" y="88" type="line"/>
      <point x="627" y="90"/>
      <point x="598" y="162" type="qcurve"/>
      <point x="567" y="229"/>
      <point x="567" y="319" type="qcurve" smooth="yes"/>
      <point x="567" y="405"/>
      <point x="596" y="469" type="qcurve"/>
      <point x="620" y="530"/>
      <point x="670" y="532" type="qcurve"/>
      <point x="698" y="532"/>
      <point x="723" y="510" type="qcurve"/>
      <point x="745" y="487"/>
      <point x="762" y="451" type="qcurve"/>
      <point x="797" y="371"/>
      <point x="797" y="291" type="qcurve" smooth="yes"/>
      <point x="797" y="213"/>
      <point x="776" y="154" type="qcurve"/>
      <point x="750" y="90"/>
      <point x="684" y="88" type="qcurve"/>
    </contour>
  </outline>
</glyph>
<glyph name="ring" format="1">
  <advance width="1405"/>
  <unicode hex="00DD"/>
  <unicode hex="042d"/>
  <outline>
    <contour>
      <point x="491" y="1077" type="line"/>
      <point x="491" y="1077" type="line"/>
      <point x="551" y="1178"/>
      <point x="625" y="1233" type="qcurve"/>
      <point x="698" y="1290"/>
      <point x="813" y="1290" type="qcurve" smooth="yes"/>
      <point x="876" y="1290"/>
      <point x="922" y="1261" type="qcurve"/>
      <point x="965" y="1229"/>
      <point x="989" y="1182" type="qcurve"/>
      <point x="1038" y="1081"/>
      <point x="1038" y="991" type="qcurve" smooth="yes"/>
      <point x="1038" y="926"/>
      <point x="1024" y="866" type="qcurve"/>
      <point x="1016" y="838"/>
      <point x="1003" y="821" type="qcurve" smooth="yes"/>
      <point x="989" y="801"/>
      <point x="971" y="801" type="qcurve" smooth="yes"/>
      <point x="956" y="801"/>
      <point x="942" y="819" type="qcurve"/>
      <point x="924" y="833"/>
      <point x="897" y="852" type="qcurve" smooth="yes"/>
      <point x="870" y="870"/>
      <point x="825" y="887" type="qcurve"/>
      <point x="780" y="901"/>
      <point x="707" y="901" type="qcurve" smooth="yes"/>
      <point x="631" y="901"/>
      <point x="541" y="887" type="qcurve"/>
      <point x="453" y="870"/>
      <point x="381" y="817" type="qcurve"/>
      <point x="293" y="747"/>
      <point x="233" y="711" type="qcurve"/>
      <point x="172" y="676"/>
      <point x="135" y="657" type="qcurve"/>
      <point x="66" y="633"/>
      <point x="68" y="608" type="qcurve"/>
      <point x="68" y="594"/>
      <point x="96" y="582" type="qcurve"/>
      <point x="121" y="569"/>
      <point x="162" y="563" type="qcurve"/>
      <point x="248" y="553"/>
      <point x="340" y="553" type="qcurve" smooth="yes"/>
      <point x="375" y="553"/>
      <point x="424" y="584" type="qcurve"/>
      <point x="473" y="612"/>
      <point x="530" y="647" type="qcurve" smooth="yes"/>
      <point x="590" y="684"/>
      <point x="653" y="713" type="qcurve"/>
      <point x="715" y="739"/>
      <point x="774" y="739" type="qcurve"/>
      <point x="848" y="737"/>
      <point x="899" y="676" type="qcurve"/>
      <point x="950" y="610"/>
      <point x="952" y="524" type="qcurve"/>
      <point x="950" y="424"/>
      <point x="872" y="319" type="qcurve" smooth="yes"/>
      <point x="793" y="213"/>
      <point x="678" y="170" type="qcurve"/>
      <point x="670" y="170"/>
      <point x="643" y="178" type="qcurve"/>
      <point x="616" y="184"/>
      <point x="592" y="201" type="qcurve"/>
      <point x="469" y="305"/>
      <point x="418" y="336" type="qcurve" smooth="yes"/>
      <point x="369" y="365"/>
      <point x="336" y="362" type="qcurve"/>
      <point x="272" y="360"/>
      <point x="238" y="332" type="qcurve" smooth="yes"/>
      <point x="199" y="299"/>
      <point x="199" y="252" type="qcurve" smooth="yes"/>
      <point x="199" y="205"/>
      <point x="240" y="156" type="qcurve"/>
      <point x="279" y="106"/>
      <point x="338" y="66" type="qcurve" smooth="yes"/>
      <point x="399" y="25"/>
      <point x="465" y="0" type="qcurve"/>
      <point x="528" y="-25"/>
      <point x="582" y="-27" type="qcurve"/>
      <point x="735" y="-25"/>
      <point x="868" y="70" type="qcurve"/>
      <point x="1001" y="162"/>
      <point x="1104" y="303" type="qcurve"/>
      <point x="1317" y="604"/>
      <point x="1321" y="887" type="qcurve"/>
      <point x="1321" y="1038"/>
      <point x="1274" y="1188" type="qcurve"/>
      <point x="1249" y="1259"/>
      <point x="1216" y="1309" type="qcurve"/>
      <point x="1180" y="1360"/>
      <point x="1135" y="1376" type="qcurve"/>
      <point x="864" y="1483" type="line" smooth="yes"/>
      <point x="838" y="1493"/>
      <point x="758" y="1499" type="qcurve"/>
      <point x="676" y="1501"/>
      <point x="604" y="1501" type="qcurve" smooth="yes"/>
      <point x="547" y="1501"/>
      <point x="471" y="1466" type="qcurve" smooth="yes"/>
      <point x="395" y="1431"/>
      <point x="324" y="1374" type="qcurve"/>
      <point x="252" y="1321"/>
      <point x="199" y="1261" type="qcurve"/>
      <point x="145" y="1202"/>
      <point x="131" y="1151" type="qcurve"/>
    </contour>
  </outline>
</glyph>
<glyph name="hungarumlaut" format="1">
  <advance width="1421"/>
  <unicode hex="00DF"/>
  <unicode hex="042f"/>
  <outline>
    <contour>
      <point x="1333" y="1413" type="line"/>
      <point x="1036" y="1427"/>
      <point x="524" y="1436" type="qcurve"/>
      <point x="434" y="1433"/>
      <point x="391" y="1376" type="qcurve"/>
      <point x="346" y="1319"/>
      <point x="346" y="1245" type="qcurve"/>
      <point x="348" y="1135"/>
      <point x="426" y="1001" type="qcurve"/>
      <point x="502" y="868"/>
      <point x="620" y="797" type="qcurve" smooth="yes"/>
      <point x="635" y="788"/>
      <point x="635" y="776" type="qcurve"/>
      <point x="643" y="776"/>
      <point x="553" y="670" type="qcurve"/>
      <point x="229" y="315" type="line"/>
      <point x="168" y="250"/>
      <point x="119" y="164" type="qcurve" smooth="yes"/>
      <point x="68" y="74"/>
      <point x="57" y="-27" type="qcurve"/>
      <point x="440" y="-2" type="line"/>
      <point x="473" y="276"/>
      <point x="582" y="487" type="qcurve"/>
      <point x="637" y="588"/>
      <point x="707" y="647" type="qcurve"/>
      <point x="776" y="707"/>
      <point x="856" y="707" type="qcurve"/>
      <point x="788" y="207"/>
      <point x="788" y="0" type="qcurve" smooth="yes"/>
      <point x="788" y="-6"/>
      <point x="803" y="-16" type="qcurve"/>
      <point x="813" y="-27"/>
      <point x="829" y="-27" type="qcurve"/>
      <point x="1178" y="0" type="line"/>
      <point x="1161" y="149"/>
      <point x="1161" y="303" type="qcurve"/>
      <point x="1167" y="985"/>
      <point x="1362" y="1388" type="qcurve"/>
    </contour>
    <contour>
      <point x="842" y="889" type="line"/>
      <point x="778" y="891"/>
      <point x="733" y="971" type="qcurve"/>
      <point x="682" y="1046"/>
      <point x="682" y="1145" type="qcurve"/>
      <point x="680" y="1225"/>
      <point x="709" y="1286" type="qcurve"/>
      <point x="733" y="1350"/>
      <point x="819" y="1352" type="qcurve"/>
      <point x="901" y="1352"/>
      <point x="926" y="1323" type="qcurve"/>
      <point x="948" y="1292"/>
      <point x="948" y="1216" type="qcurve" smooth="yes"/>
      <point x="948" y="1120"/>
      <point x="926" y="1010" type="qcurve"/>
      <point x="913" y="958"/>
      <point x="895" y="926" type="qcurve"/>
      <point x="872" y="889"/>
      <point x="842" y="889" type="qcurve"/>
    </contour>
  </outline>
</glyph>
<glyph name="Lslash" format="1">
  <advance width="1042"/>
  <unicode hex="00E2"/>
  <unicode hex="0432"/>
  <outline>
    <contour>
      <point x="223" y="981" type="line"/>
      <point x="135" y="655"/>
      <point x="133" y="242" type="qcurve" smooth="yes"/>
      <point x="133" y="174"/>
      <point x="137" y="104" type="qcurve" smooth="yes"/>
      <point x="141" y="33"/>
      <point x="149" y="-18" type="qcurve"/>
      <point x="172" y="-27"/>
      <point x="207" y="-27" type="qcurve"/>
      <point x="266" y="-25"/>
      <point x="430" y="-12" type="qcurve" smooth="yes"/>
      <point x="594" y="0"/>
      <point x="928" y="0" type="qcurve" smooth="yes"/>
      <point x="973" y="0"/>
      <point x="973" y="47" type="qcurve" smooth="yes"/>
      <point x="971" y="160"/>
      <point x="932" y="299" type="qcurve"/>
      <point x="891" y="438"/>
      <point x="833" y="547" type="qcurve"/>
      <point x="817" y="584"/>
      <point x="790" y="608" type="qcurve" smooth="yes"/>
      <point x="764" y="631"/>
      <point x="719" y="633" type="qcurve" smooth="yes"/>
      <point x="655" y="637" type="line"/>
      <point x="649" y="647" type="line"/>
      <point x="858" y="784"/>
      <point x="911" y="983" type="qcurve"/>
      <point x="899" y="999" type="line"/>
      <point x="793" y="1003"/>
      <point x="707" y="1005" type="qcurve"/>
      <point x="541" y="1003"/>
      <point x="223" y="981" type="qcurve"/>
    </contour>
    <contour>
      <point x="530" y="901" type="line"/>
      <point x="569" y="930"/>
      <point x="616" y="930" type="qcurve" smooth="yes"/>
      <point x="666" y="930"/>
      <point x="690" y="924" type="qcurve"/>
      <point x="711" y="913"/>
      <point x="711" y="881" type="qcurve" smooth="yes"/>
      <point x="711" y="856"/>
      <point x="690" y="821" type="qcurve" smooth="yes"/>
      <point x="668" y="784"/>
      <point x="633" y="745" type="qcurve" smooth="yes"/>
      <point x="602" y="709"/>
      <point x="567" y="682" type="qcurve" smooth="yes"/>
      <point x="532" y="655"/>
      <point x="506" y="655" type="qcurve" smooth="yes"/>
      <point x="481" y="655"/>
      <point x="481" y="690" type="qcurve"/>
      <point x="477" y="760"/>
      <point x="530" y="901" type="qcurve"/>
    </contour>
    <contour>
      <point x="442" y="57" type="line"/>
      <point x="442" y="410"/>
      <point x="459" y="498" type="qcurve"/>
      <point x="471" y="575"/>
      <point x="487" y="569" type="qcurve"/>
      <point x="520" y="567"/>
      <point x="594" y="455" type="qcurve"/>
      <point x="672" y="340"/>
      <point x="676" y="156" type="qcurve" smooth="yes"/>
      <point x="678" y="92"/>
      <point x="635" y="76" type="qcurve"/>
      <point x="590" y="55"/>
      <point x="442" y="57" type="qcurve"/>
    </contour>
  </outline>
</glyph>
<glyph name="Zcaron" format="1">
  <advance width="1565"/>
  <unicode hex="00E6"/>
  <unicode hex="0436"/>
  <outline>
    <contour>
      <point x="709" y="995" type="line"/>
      <point x="696" y="936"/>
      <point x="686" y="821" type="qcurve"/>
      <point x="664" y="821" type="line"/>
      <point x="577" y="897"/>
      <point x="496" y="965" type="qcurve"/>
      <point x="410" y="1032"/>
      <point x="322" y="1034" type="qcurve"/>
      <point x="272" y="1032"/>
      <point x="190" y="1020" type="qcurve"/>
      <point x="170" y="938"/>
      <point x="170" y="838" type="qcurve" smooth="yes"/>
      <point x="170" y="702"/>
      <point x="190" y="567" type="qcurve"/>
      <point x="238" y="567"/>
      <point x="295" y="565" type="qcurve"/>
      <point x="348" y="561"/>
      <point x="395" y="541" type="qcurve"/>
      <point x="313" y="496"/>
      <point x="254" y="416" type="qcurve" smooth="yes"/>
      <point x="195" y="336"/>
      <point x="170" y="285" type="qcurve"/>
      <point x="49" y="18" type="line"/>
      <point x="72" y="0" type="line"/>
      <point x="360" y="0" type="line"/>
      <point x="401" y="172"/>
      <point x="453" y="332" type="qcurve" smooth="yes"/>
      <point x="479" y="410"/>
      <point x="518" y="471" type="qcurve"/>
      <point x="557" y="530"/>
      <point x="616" y="567" type="qcurve"/>
      <point x="684" y="608" type="line"/>
      <point x="684" y="608" type="line"/>
      <point x="684" y="334" type="line" smooth="yes"/>
      <point x="684" y="219"/>
      <point x="692" y="59" type="qcurve" smooth="yes"/>
      <point x="692" y="45"/>
      <point x="702" y="35" type="qcurve" smooth="yes"/>
      <point x="713" y="23"/>
      <point x="725" y="18" type="qcurve"/>
      <point x="823" y="0"/>
      <point x="893" y="0" type="qcurve"/>
      <point x="969" y="-2"/>
      <point x="971" y="72" type="qcurve"/>
      <point x="967" y="238"/>
      <point x="946" y="518" type="qcurve"/>
      <point x="946" y="518" type="line"/>
      <point x="983" y="491"/>
      <point x="1026" y="432" type="qcurve"/>
      <point x="1067" y="371"/>
      <point x="1108" y="295" type="qcurve" smooth="yes"/>
      <point x="1149" y="219"/>
      <point x="1180" y="147" type="qcurve"/>
      <point x="1208" y="72"/>
      <point x="1221" y="20" type="qcurve"/>
      <point x="1495" y="0" type="line"/>
      <point x="1513" y="18" type="line"/>
      <point x="1444" y="229"/>
      <point x="1352" y="358" type="qcurve"/>
      <point x="1257" y="485"/>
      <point x="1169" y="557" type="qcurve" smooth="yes"/>
      <point x="1081" y="629"/>
      <point x="1024" y="668" type="qcurve"/>
      <point x="997" y="690"/>
      <point x="981" y="704" type="qcurve"/>
      <point x="962" y="719"/>
      <point x="962" y="731" type="qcurve" smooth="yes"/>
      <point x="962" y="750"/>
      <point x="987" y="772" type="qcurve"/>
      <point x="1010" y="795"/>
      <point x="1040" y="815" type="qcurve" smooth="yes"/>
      <point x="1075" y="838"/>
      <point x="1108" y="850" type="qcurve" smooth="yes"/>
      <point x="1141" y="862"/>
      <point x="1163" y="862" type="qcurve" smooth="yes"/>
      <point x="1200" y="862"/>
      <point x="1235" y="815" type="qcurve" smooth="yes"/>
      <point x="1315" y="704" type="line"/>
      <point x="1347" y="704" type="line"/>
      <point x="1440" y="850"/>
      <point x="1520" y="924" type="qcurve"/>
      <point x="1460" y="987"/>
      <point x="1421" y="1012" type="qcurve"/>
      <point x="1380" y="1034"/>
      <point x="1343" y="1034" type="qcurve" smooth="yes"/>
      <point x="1315" y="1034"/>
      <point x="1296" y="1028" type="qcurve"/>
      <point x="1274" y="1018"/>
      <point x="1264" y="1012" type="qcurve" smooth="yes"/>
      <point x="973" y="838" type="line"/>
      <point x="973" y="838" type="line"/>
      <point x="981" y="872"/>
      <point x="993" y="924" type="qcurve"/>
      <point x="1008" y="975"/>
      <point x="1008" y="991" type="qcurve"/>
      <point x="1005" y="1032"/>
      <point x="973" y="1034" type="qcurve"/>
      <point x="989" y="1036"/>
      <point x="709" y="995" type="qcurve"/>
    </contour>
    <contour>
      <point x="684" y="704" type="line"/>
      <point x="635" y="680"/>
      <point x="573" y="645" type="qcurve" smooth="yes"/>
      <point x="510" y="610"/>
      <point x="467" y="608" type="qcurve"/>
      <point x="442" y="608"/>
      <point x="434" y="635" type="qcurve"/>
      <point x="424" y="661"/>
      <point x="424" y="729" type="qcurve" smooth="yes"/>
      <point x="424" y="776"/>
      <point x="434" y="821" type="qcurve"/>
      <point x="442" y="866"/>
      <point x="475" y="868" type="qcurve"/>
      <point x="500" y="868"/>
      <point x="534" y="848" type="qcurve" smooth="yes"/>
      <point x="569" y="827"/>
      <point x="604" y="799" type="qcurve" smooth="yes"/>
      <point x="639" y="770"/>
      <point x="661" y="745" type="qcurve"/>
      <point x="684" y="717"/>
      <point x="684" y="704" type="qcurve"/>
    </contour>
  </outline>
</glyph>
